<?xml version="1.0" standalone="no"?>
<!DOCTYPE svg PUBLIC "-//W3C//DTD SVG 1.1//EN" "http://www.w3.org/Graphics/SVG/1.1/DTD/svg11.dtd" >
<svg xmlns="http://www.w3.org/2000/svg" xmlns:xlink="http://www.w3.org/1999/xlink" version="1.1">
<metadata>
Created by FontForge 20160407 at Tue Nov  8 10:21:01 2016
 By Jimmy Wärting
Copyright \(c\) 2015 by Fontfabric LLC. All rights reserved.
</metadata>
<defs>
<font id="MullerExtraBoldItalic" horiz-adv-x="650" >
  <font-face 
    font-family="Muller ExtraBold Italic"
    font-weight="800"
    font-style="italic"
    font-stretch="normal"
    units-per-em="1000"
    panose-1="0 0 0 0 0 0 0 0 0 0"
    ascent="780"
    descent="-220"
    x-height="480"
    cap-height="700"
    bbox="-208 -270 1320 980"
    underline-thickness="50"
    underline-position="-125"
    slope="-9"
    stemh="125"
    stemv="175"
    unicode-range="U+0020-25CA"
  />
<missing-glyph horiz-adv-x="210" 
 />
    <glyph glyph-name="f_f" unicode="ff" horiz-adv-x="747" 
d="M799 584c-15 6 -33 11 -61 11c-47 0 -83 -21 -91 -66l-9 -49h128l-22 -140h-128l-54 -340h-170l54 340h-165l-54 -340h-170l54 340h-79l22 140h79l3 21c24 151 139 204 261 204c46 0 93 -8 140 -30c45 46 106 60 164 60c51 0 88 -8 118 -21zM303 480h165l10 60
c1 5 2 12 3 17c-22 9 -47 13 -75 13c-56 0 -93 -31 -101 -80z" />
    <glyph glyph-name="f_f_i" unicode="ffi" horiz-adv-x="991" 
d="M227 0h-170l54 340h-79l22 140h79l3 21c24 151 139 204 261 204c50 0 101 -9 152 -36c52 46 124 66 202 66c63 0 123 -12 176 -31l-22 -135c-42 18 -92 26 -133 26c-67 0 -119 -28 -129 -86l-5 -29h331l-76 -480h-170l54 340h-161l-54 -340h-170l54 340h-165zM305 490
l-2 -10h165l6 40c2 13 5 25 8 37c-23 9 -48 13 -76 13c-56 0 -93 -31 -101 -80z" />
    <glyph glyph-name="f_f_l" unicode="ffl" horiz-adv-x="1001" 
d="M715 725c66 0 116 -12 160 -30l142 21l-114 -716h-170l90 571c-24 9 -50 14 -73 14c-56 0 -99 -26 -108 -79l-4 -26h118l-22 -140h-118l-54 -340h-170l54 340h-165l-54 -340h-170l54 340h-79l22 140h79l3 21c24 151 139 204 251 204c60 0 109 -9 165 -38
c45 40 105 58 163 58zM468 480l6 40c2 13 5 25 8 37c-22 9 -47 13 -76 13c-56 0 -93 -31 -101 -80l-2 -10h165z" />
    <glyph glyph-name=".notdef" horiz-adv-x="210" 
 />
    <glyph glyph-name="Aacute" unicode="&#xc1;" horiz-adv-x="751" 
d="M704 0h-186l-23 110h-290l-57 -110h-194l386 700h200zM387 458l-103 -198h180l-38 196c-4 19 -7 43 -8 77c-11 -33 -20 -55 -31 -75zM523 760h-173l113 150h193z" />
    <glyph glyph-name="Abreve" unicode="&#x102;" horiz-adv-x="751" 
d="M704 0h-186l-23 110h-290l-57 -110h-194l386 700h200zM387 458l-103 -198h180l-38 196c-4 19 -7 43 -8 77c-11 -33 -20 -55 -31 -75zM621 780c-47 -29 -92 -46 -166 -46s-125 17 -164 46l20 126c49 -33 97 -42 154 -42s117 9 176 42z" />
    <glyph glyph-name="Acircumflex" unicode="&#xc2;" horiz-adv-x="751" 
d="M704 0h-186l-23 110h-290l-57 -110h-194l386 700h200zM387 458l-103 -198h180l-38 196c-4 19 -7 43 -8 77c-11 -33 -20 -55 -31 -75zM402 910h150l95 -160h-149l-31 55l-49 -55h-161z" />
    <glyph glyph-name="Adieresis" unicode="&#xc4;" horiz-adv-x="751" 
d="M704 0h-186l-23 110h-290l-57 -110h-194l386 700h200zM387 458l-103 -198h180l-38 196c-4 19 -7 43 -8 77c-11 -33 -20 -55 -31 -75zM660 820c-6 -41 -46 -74 -89 -74c-51 0 -86 43 -78 96c7 41 46 74 89 74c51 0 86 -43 78 -96zM440 820c-6 -41 -46 -74 -89 -74
c-51 0 -86 43 -78 96c7 41 46 74 89 74c51 0 86 -43 78 -96z" />
    <glyph glyph-name="Agrave" unicode="&#xc0;" horiz-adv-x="751" 
d="M704 0h-186l-23 110h-290l-57 -110h-194l386 700h200zM387 458l-103 -198h180l-38 196c-4 19 -7 43 -8 77c-11 -33 -20 -55 -31 -75zM560 760h-167l-87 150h187z" />
    <glyph glyph-name="Amacron" unicode="&#x100;" horiz-adv-x="751" 
d="M704 0h-186l-23 110h-290l-57 -110h-194l386 700h200zM387 458l-103 -198h180l-38 196c-4 19 -7 43 -8 77c-11 -33 -20 -55 -31 -75zM308 898h340l-21 -130h-340z" />
    <glyph glyph-name="Aogonek" unicode="&#x104;" horiz-adv-x="752" 
d="M705 0c-44 -26 -77 -65 -77 -89c0 -13 8 -21 28 -21c10 0 22 3 33 8l-18 -115c-27 -13 -53 -18 -85 -18c-83 0 -122 53 -111 117c7 37 36 81 92 118h-48l-23 110h-290l-57 -110h-194l386 700h200zM388 458l-103 -198h180l-38 196c-4 19 -7 43 -8 77
c-11 -33 -20 -55 -31 -75z" />
    <glyph glyph-name="Aring" unicode="&#xc5;" horiz-adv-x="751" 
d="M704 0h-186l-23 110h-290l-57 -110h-194l386 700h200zM387 458l-103 -198h180l-38 196c-4 19 -7 43 -8 77c-11 -33 -20 -55 -31 -75zM597 845c-12 -75 -74 -115 -140 -115c-63 0 -130 50 -117 137c12 72 75 113 140 113c64 0 130 -51 117 -135zM433 858
c-3 -25 12 -38 32 -38c19 0 36 11 39 32c4 24 -12 38 -32 38c-18 0 -36 -11 -39 -32z" />
    <glyph glyph-name="Atilde" unicode="&#xc3;" horiz-adv-x="751" 
d="M704 0h-186l-23 110h-290l-57 -110h-194l386 700h200zM387 458l-103 -198h180l-38 196c-4 19 -7 43 -8 77c-11 -33 -20 -55 -31 -75zM650 904c10 -93 -41 -157 -115 -157c-61 0 -109 42 -137 42c-24 0 -28 -31 -26 -36h-116c-10 93 41 157 115 157c61 0 109 -42 137 -42
c24 0 28 31 26 36h116z" />
    <glyph glyph-name="AE" unicode="&#xc6;" horiz-adv-x="1025" 
d="M1044 700l-25 -160h-299l-17 -107h269l-25 -159h-269l-19 -114h305l-25 -160h-490l18 115h-245l-90 -115h-192l555 700h549zM335 260h155l41 252z" />
    <glyph glyph-name="B" unicode="B" horiz-adv-x="684" 
d="M131 700h302c143 0 249 -61 229 -188c-11 -71 -51 -119 -126 -144c67 -21 119 -78 103 -181c-24 -153 -168 -187 -311 -187h-308zM459 214c12 59 -25 77 -79 77h-130l-23 -146h122c56 0 100 18 110 69zM475 486c9 44 -13 69 -64 69h-119l-20 -129l111 -1
c49 0 85 25 92 61z" />
    <glyph glyph-name="C" unicode="C" horiz-adv-x="653" 
d="M42 361c39 248 263 354 428 354c80 0 144 -17 202 -52l-26 -163c-36 33 -93 53 -153 53c-105 0 -240 -53 -264 -209c-21 -132 77 -196 182 -196c71 0 141 24 194 60l-29 -181c-61 -29 -132 -42 -201 -42c-186 0 -373 120 -333 376z" />
    <glyph glyph-name="Cacute" unicode="&#x106;" horiz-adv-x="653" 
d="M42 361c39 248 263 354 428 354c80 0 144 -17 202 -52l-26 -163c-36 33 -93 53 -153 53c-105 0 -240 -53 -264 -209c-21 -132 77 -196 182 -196c71 0 141 24 194 60l-29 -181c-61 -29 -132 -42 -201 -42c-186 0 -373 120 -333 376zM539 760h-173l113 150h193z" />
    <glyph glyph-name="Ccaron" unicode="&#x10c;" horiz-adv-x="653" 
d="M42 361c39 248 263 354 428 354c80 0 144 -17 202 -52l-26 -163c-36 33 -93 53 -153 53c-105 0 -240 -53 -264 -209c-21 -132 77 -196 182 -196c71 0 141 24 194 60l-29 -181c-61 -29 -132 -42 -201 -42c-186 0 -373 120 -333 376zM702 920l-155 -160h-150l-105 160h150
l39 -65l62 65h159z" />
    <glyph glyph-name="Ccedilla" unicode="&#xc7;" horiz-adv-x="653" 
d="M646 500c-36 33 -93 53 -153 53c-105 0 -240 -53 -264 -209c-21 -132 77 -196 182 -196c71 0 141 24 194 60l-29 -181c-54 -26 -115 -39 -177 -41l-13 -30c61 -10 83 -46 74 -102c-11 -68 -95 -89 -156 -89c-39 0 -77 5 -110 18l15 97c18 -10 48 -16 75 -16s56 6 59 26
c4 23 -33 31 -79 25l28 78c-154 31 -284 151 -250 368c39 248 263 354 428 354c80 0 144 -17 202 -52z" />
    <glyph glyph-name="Cdotaccent" unicode="&#x10a;" horiz-adv-x="653" 
d="M42 361c39 248 263 354 428 354c80 0 144 -17 202 -52l-26 -163c-36 33 -93 53 -153 53c-105 0 -240 -53 -264 -209c-21 -132 77 -196 182 -196c71 0 141 24 194 60l-29 -181c-61 -29 -132 -42 -201 -42c-186 0 -373 120 -333 376zM571 835c-9 -57 -52 -79 -98 -79
c-54 0 -96 32 -85 101c9 56 52 79 98 79c54 0 96 -33 85 -101z" />
    <glyph glyph-name="D" unicode="D" horiz-adv-x="743" 
d="M131 700h275c240 0 346 -151 313 -361c-32 -198 -161 -339 -406 -339h-293zM532 361c20 125 -32 179 -143 179h-99l-60 -380h90c111 0 191 64 212 201z" />
    <glyph glyph-name="Eth" unicode="&#xd0;" horiz-adv-x="757" 
d="M145 700h275c240 0 346 -151 313 -361c-32 -198 -161 -339 -406 -339h-293l45 285h-69l21 130h69zM334 160c111 0 191 64 212 201c20 125 -32 179 -143 179h-99l-20 -125h127l-21 -130h-126l-20 -125h90z" />
    <glyph glyph-name="Dcaron" unicode="&#x10e;" horiz-adv-x="743" 
d="M131 700h275c240 0 346 -151 313 -361c-32 -198 -161 -339 -406 -339h-293zM532 361c20 125 -32 179 -143 179h-99l-60 -380h90c111 0 191 64 212 201zM641 920l-155 -160h-150l-105 160h150l39 -65l62 65h159z" />
    <glyph glyph-name="Dcroat" unicode="&#x110;" horiz-adv-x="757" 
d="M145 700h275c240 0 346 -151 313 -361c-32 -198 -161 -339 -406 -339h-293l45 285h-69l21 130h69zM334 160c111 0 191 64 212 201c20 125 -32 179 -143 179h-99l-20 -125h127l-21 -130h-126l-20 -125h90z" />
    <glyph glyph-name="E" unicode="E" horiz-adv-x="616" 
d="M131 700h504l-25 -160h-320l-17 -107h290l-25 -159h-290l-18 -114h325l-25 -160h-510z" />
    <glyph glyph-name="Eacute" unicode="&#xc9;" horiz-adv-x="616" 
d="M131 700h504l-25 -160h-320l-17 -107h290l-25 -159h-290l-18 -114h325l-25 -160h-510zM460 760h-173l113 150h193z" />
    <glyph glyph-name="Ecaron" unicode="&#x11a;" horiz-adv-x="616" 
d="M131 700h504l-25 -160h-320l-17 -107h290l-25 -159h-290l-18 -114h325l-25 -160h-510zM623 920l-155 -160h-150l-105 160h150l39 -65l62 65h159z" />
    <glyph glyph-name="Ecircumflex" unicode="&#xca;" horiz-adv-x="616" 
d="M131 700h504l-25 -160h-320l-17 -107h290l-25 -159h-290l-18 -114h325l-25 -160h-510zM339 910h150l95 -160h-149l-31 55l-49 -55h-161z" />
    <glyph glyph-name="Edieresis" unicode="&#xcb;" horiz-adv-x="616" 
d="M131 700h504l-25 -160h-320l-17 -107h290l-25 -159h-290l-18 -114h325l-25 -160h-510zM597 820c-6 -41 -46 -74 -89 -74c-51 0 -86 43 -78 96c7 41 46 74 89 74c51 0 86 -43 78 -96zM377 820c-6 -41 -46 -74 -89 -74c-51 0 -86 43 -78 96c7 41 46 74 89 74
c51 0 86 -43 78 -96z" />
    <glyph glyph-name="Edotaccent" unicode="&#x116;" horiz-adv-x="616" 
d="M131 700h504l-25 -160h-320l-17 -107h290l-25 -159h-290l-18 -114h325l-25 -160h-510zM492 835c-9 -57 -52 -79 -98 -79c-54 0 -96 32 -85 101c9 56 52 79 98 79c54 0 96 -33 85 -101z" />
    <glyph glyph-name="Egrave" unicode="&#xc8;" horiz-adv-x="616" 
d="M131 700h504l-25 -160h-320l-17 -107h290l-25 -159h-290l-18 -114h325l-25 -160h-510zM497 760h-167l-87 150h187z" />
    <glyph glyph-name="Emacron" unicode="&#x112;" horiz-adv-x="616" 
d="M131 700h504l-25 -160h-320l-17 -107h290l-25 -159h-290l-18 -114h325l-25 -160h-510zM245 898h340l-21 -130h-340z" />
    <glyph glyph-name="Eogonek" unicode="&#x118;" horiz-adv-x="616" 
d="M635 700l-25 -160h-320l-17 -107h290l-25 -159h-290l-18 -114h325l-25 -160c-44 -26 -77 -65 -77 -89c0 -13 8 -21 28 -21c10 0 22 3 33 8l-18 -115c-27 -13 -53 -18 -85 -18c-83 0 -122 53 -111 117c7 37 36 81 92 118h-372l111 700h504z" />
    <glyph glyph-name="F" unicode="F" horiz-adv-x="605" 
d="M131 700h505l-26 -165h-320l-19 -121h291l-26 -165h-291l-40 -249h-185z" />
    <glyph glyph-name="G" unicode="G" horiz-adv-x="697" 
d="M43 361c41 255 253 354 434 354c84 0 158 -18 214 -46l-26 -167c-40 33 -102 50 -173 50c-107 0 -238 -63 -262 -213c-27 -167 92 -195 168 -195c25 0 41 2 57 7l37 234h175l-56 -354c-73 -31 -156 -46 -231 -46c-203 0 -378 116 -337 376z" />
    <glyph glyph-name="Gbreve" unicode="&#x11e;" horiz-adv-x="697" 
d="M43 361c41 255 253 354 434 354c84 0 158 -18 214 -46l-26 -167c-40 33 -102 50 -173 50c-107 0 -238 -63 -262 -213c-27 -167 92 -195 168 -195c25 0 41 2 57 7l37 234h175l-56 -354c-73 -31 -156 -46 -231 -46c-203 0 -378 116 -337 376zM644 780
c-47 -29 -92 -46 -166 -46s-125 17 -164 46l20 126c49 -33 97 -42 154 -42s117 9 176 42z" />
    <glyph glyph-name="Gcommaaccent" unicode="&#x122;" horiz-adv-x="697" 
d="M43 361c41 255 253 354 434 354c84 0 158 -18 214 -46l-26 -167c-40 33 -102 50 -173 50c-107 0 -238 -63 -262 -213c-27 -167 92 -195 168 -195c25 0 41 2 57 7l37 234h175l-56 -354c-73 -31 -156 -46 -231 -46c-203 0 -378 116 -337 376zM408 -270h-137l60 200h157z
" />
    <glyph glyph-name="Gdotaccent" unicode="&#x120;" horiz-adv-x="697" 
d="M43 361c41 255 253 354 434 354c84 0 158 -18 214 -46l-26 -167c-40 33 -102 50 -173 50c-107 0 -238 -63 -262 -213c-27 -167 92 -195 168 -195c25 0 41 2 57 7l37 234h175l-56 -354c-73 -31 -156 -46 -231 -46c-203 0 -378 116 -337 376zM578 835
c-9 -57 -52 -79 -98 -79c-54 0 -96 32 -85 101c9 56 52 79 98 79c54 0 96 -33 85 -101z" />
    <glyph glyph-name="H" unicode="H" horiz-adv-x="762" 
d="M576 700h185l-111 -700h-185l42 267h-260l-42 -267h-185l111 700h185l-42 -268h260z" />
    <glyph glyph-name="Hbar" unicode="&#x126;" horiz-adv-x="780" 
d="M214 0h-185l79 495h-65l17 110h65l15 95h185l-15 -95h260l15 95h185l-15 -95h65l-17 -110h-65l-79 -495h-185l44 277h-260zM293 495l-12 -73h260l12 73h-260z" />
    <glyph glyph-name="I" unicode="I" horiz-adv-x="317" 
d="M131 700h185l-111 -700h-185z" />
    <glyph glyph-name="IJ" unicode="&#x132;" horiz-adv-x="831" 
d="M131 700h185l-111 -700h-185zM475 700h360l-77 -487c-27 -174 -145 -228 -289 -228c-73 0 -138 14 -180 35l26 163c36 -18 80 -28 127 -28c70 0 125 25 136 93l45 287h-174z" />
    <glyph glyph-name="Iacute" unicode="&#xcd;" horiz-adv-x="317" 
d="M131 700h185l-111 -700h-185zM300 760h-173l113 150h193z" />
    <glyph glyph-name="Icircumflex" unicode="&#xce;" horiz-adv-x="317" 
d="M131 700h185l-111 -700h-185zM179 910h150l95 -160h-149l-31 55l-49 -55h-161z" />
    <glyph glyph-name="Idieresis" unicode="&#xcf;" horiz-adv-x="317" 
d="M131 700h185l-111 -700h-185zM437 820c-6 -41 -46 -74 -89 -74c-51 0 -86 43 -78 96c7 41 46 74 89 74c51 0 86 -43 78 -96zM217 820c-6 -41 -46 -74 -89 -74c-51 0 -86 43 -78 96c7 41 46 74 89 74c51 0 86 -43 78 -96z" />
    <glyph glyph-name="Idotaccent" unicode="&#x130;" horiz-adv-x="317" 
d="M131 700h185l-111 -700h-185zM332 835c-9 -57 -52 -79 -98 -79c-54 0 -96 32 -85 101c9 56 52 79 98 79c54 0 96 -33 85 -101z" />
    <glyph glyph-name="Igrave" unicode="&#xcc;" horiz-adv-x="317" 
d="M131 700h185l-111 -700h-185zM337 760h-167l-87 150h187z" />
    <glyph glyph-name="Imacron" unicode="&#x12a;" horiz-adv-x="317" 
d="M131 700h185l-111 -700h-185zM85 898h340l-21 -130h-340z" />
    <glyph glyph-name="Iogonek" unicode="&#x12e;" horiz-adv-x="317" 
d="M316 700l-111 -700c-44 -26 -77 -65 -77 -89c0 -13 8 -21 28 -21c10 0 22 3 33 8l-18 -115c-27 -13 -53 -18 -85 -18c-83 0 -122 53 -111 117c7 37 36 81 92 118h-47l111 700h185z" />
    <glyph glyph-name="J" unicode="J" horiz-adv-x="514" 
d="M158 700h360l-77 -487c-27 -174 -145 -228 -289 -228c-73 0 -138 14 -180 35l26 163c36 -18 80 -28 127 -28c70 0 125 25 136 93l45 287h-174z" />
    <glyph glyph-name="K" unicode="K" horiz-adv-x="706" 
d="M567 700h203l-273 -357l168 -343h-197l-127 270h-93l-43 -270h-185l111 700h185l-42 -265h93z" />
    <glyph glyph-name="Kcommaaccent" unicode="&#x136;" horiz-adv-x="706" 
d="M567 700h203l-273 -357l168 -343h-197l-127 270h-93l-43 -270h-185l111 700h185l-42 -265h93zM345 -260h-137l60 200h157z" />
    <glyph glyph-name="L" unicode="L" horiz-adv-x="581" 
d="M131 700h185l-85 -535h320l-26 -165h-505z" />
    <glyph glyph-name="Lacute" unicode="&#x139;" horiz-adv-x="581" 
d="M131 700h185l-85 -535h320l-26 -165h-505zM319 760h-173l113 150h193z" />
    <glyph glyph-name="Lcaron" unicode="&#x13d;" horiz-adv-x="584" 
d="M445 700h151l-78 -211h-121zM131 700h185l-85 -535h320l-26 -165h-505z" />
    <glyph glyph-name="Lcommaaccent" unicode="&#x13b;" horiz-adv-x="581" 
d="M131 700h185l-85 -535h320l-26 -165h-505zM277 -260h-137l60 200h157z" />
    <glyph glyph-name="Ldot" unicode="&#x13f;" horiz-adv-x="590" 
d="M521 397c-9 -57 -52 -79 -98 -79c-53 0 -95 32 -85 101c9 56 53 79 98 79c54 0 96 -33 85 -101zM131 700h185l-85 -535h320l-26 -165h-505z" />
    <glyph glyph-name="Lslash" unicode="&#x141;" horiz-adv-x="614" 
d="M558 0h-505l37 235l-84 -30l23 150l85 30l50 315h185l-39 -247l164 57l-24 -150l-164 -57l-22 -138h320z" />
    <glyph glyph-name="M" unicode="M" horiz-adv-x="908" 
d="M720 700h187l-111 -700h-185l59 371l-172 -215h-126l-106 218l-61 -374h-185l111 700h168l160 -328z" />
    <glyph glyph-name="N" unicode="N" horiz-adv-x="762" 
d="M205 0h-185l111 700h154l234 -398c1 31 6 78 12 113l45 285h185l-111 -700h-154l-233 397c0 -33 -5 -71 -10 -104z" />
    <glyph glyph-name="Nacute" unicode="&#x143;" horiz-adv-x="762" 
d="M205 0h-185l111 700h154l234 -398c1 31 6 78 12 113l45 285h185l-111 -700h-154l-233 397c0 -33 -5 -71 -10 -104zM513 760h-173l113 150h193z" />
    <glyph glyph-name="Ncaron" unicode="&#x147;" horiz-adv-x="762" 
d="M205 0h-185l111 700h154l234 -398c1 31 6 78 12 113l45 285h185l-111 -700h-154l-233 397c0 -33 -5 -71 -10 -104zM676 920l-155 -160h-150l-105 160h150l39 -65l62 65h159z" />
    <glyph glyph-name="Ncommaaccent" unicode="&#x145;" horiz-adv-x="762" 
d="M205 0h-185l111 700h154l234 -398c1 31 6 78 12 113l45 285h185l-111 -700h-154l-233 397c0 -33 -5 -71 -10 -104zM342 -260h-137l60 200h157z" />
    <glyph glyph-name="Eng" unicode="&#x14a;" horiz-adv-x="762" 
d="M645 -30c-21 -134 -100 -201 -210 -201c-28 0 -61 5 -88 12l23 150c10 -3 22 -4 31 -4c42 0 57 34 63 68l8 45l-209 358c0 -33 -5 -71 -10 -104l-48 -294h-185l111 700h153l235 -397c1 31 6 78 12 113l45 284h185z" />
    <glyph glyph-name="Ntilde" unicode="&#xd1;" horiz-adv-x="762" 
d="M205 0h-185l111 700h154l234 -398c1 31 6 78 12 113l45 285h185l-111 -700h-154l-233 397c0 -33 -5 -71 -10 -104zM640 904c10 -93 -41 -157 -115 -157c-61 0 -109 42 -137 42c-24 0 -28 -31 -26 -36h-116c-10 93 41 157 115 157c61 0 109 -42 137 -42c24 0 28 31 26 36
h116z" />
    <glyph glyph-name="O" unicode="O" horiz-adv-x="812" 
d="M789 339c-30 -189 -182 -354 -423 -354c-244 0 -356 175 -324 376c30 189 182 354 423 354c234 0 356 -175 324 -376zM229 344c-17 -106 31 -189 148 -189c125 0 207 83 225 201c17 106 -31 189 -148 189c-125 0 -206 -83 -225 -201z" />
    <glyph glyph-name="Oacute" unicode="&#xd3;" horiz-adv-x="812" 
d="M789 339c-30 -189 -182 -354 -423 -354c-244 0 -356 175 -324 376c30 189 182 354 423 354c234 0 356 -175 324 -376zM229 344c-17 -106 31 -189 148 -189c125 0 207 83 225 201c17 106 -31 189 -148 189c-125 0 -206 -83 -225 -201zM543 760h-173l113 150h193z" />
    <glyph glyph-name="Ocircumflex" unicode="&#xd4;" horiz-adv-x="812" 
d="M789 339c-30 -189 -182 -354 -423 -354c-244 0 -356 175 -324 376c30 189 182 354 423 354c234 0 356 -175 324 -376zM229 344c-17 -106 31 -189 148 -189c125 0 207 83 225 201c17 106 -31 189 -148 189c-125 0 -206 -83 -225 -201zM422 910h150l95 -160h-149l-31 55
l-49 -55h-161z" />
    <glyph glyph-name="Odieresis" unicode="&#xd6;" horiz-adv-x="812" 
d="M789 339c-30 -189 -182 -354 -423 -354c-244 0 -356 175 -324 376c30 189 182 354 423 354c234 0 356 -175 324 -376zM229 344c-17 -106 31 -189 148 -189c125 0 207 83 225 201c17 106 -31 189 -148 189c-125 0 -206 -83 -225 -201zM680 820c-6 -41 -46 -74 -89 -74
c-51 0 -86 43 -78 96c7 41 46 74 89 74c51 0 86 -43 78 -96zM460 820c-6 -41 -46 -74 -89 -74c-51 0 -86 43 -78 96c7 41 46 74 89 74c51 0 86 -43 78 -96z" />
    <glyph glyph-name="Ograve" unicode="&#xd2;" horiz-adv-x="812" 
d="M789 339c-30 -189 -182 -354 -423 -354c-244 0 -356 175 -324 376c30 189 182 354 423 354c234 0 356 -175 324 -376zM229 344c-17 -106 31 -189 148 -189c125 0 207 83 225 201c17 106 -31 189 -148 189c-125 0 -206 -83 -225 -201zM580 760h-167l-87 150h187z" />
    <glyph glyph-name="Ohungarumlaut" unicode="&#x150;" horiz-adv-x="812" 
d="M789 339c-30 -189 -182 -354 -423 -354c-244 0 -356 175 -324 376c30 189 182 354 423 354c234 0 356 -175 324 -376zM229 344c-17 -106 31 -189 148 -189c125 0 207 83 225 201c17 106 -31 189 -148 189c-125 0 -206 -83 -225 -201zM648 770h-152l99 157h162zM453 770
h-152l99 157h162z" />
    <glyph glyph-name="Omacron" unicode="&#x14c;" horiz-adv-x="812" 
d="M789 339c-30 -189 -182 -354 -423 -354c-244 0 -356 175 -324 376c30 189 182 354 423 354c234 0 356 -175 324 -376zM229 344c-17 -106 31 -189 148 -189c125 0 207 83 225 201c17 106 -31 189 -148 189c-125 0 -206 -83 -225 -201zM328 898h340l-21 -130h-340z" />
    <glyph glyph-name="Oslash" unicode="&#xd8;" horiz-adv-x="812" 
d="M125 -48h-114l108 124c-68 70 -95 174 -77 285c30 189 182 354 423 354c69 0 128 -15 176 -41l65 74h114l-110 -126c68 -70 97 -173 79 -283c-30 -189 -182 -354 -423 -354c-70 0 -129 14 -177 40zM229 344c-8 -47 -2 -90 17 -123l273 313c-18 7 -40 11 -65 11
c-125 0 -206 -83 -225 -201zM312 166c18 -7 40 -11 65 -11c125 0 207 83 225 201c8 47 2 90 -17 123z" />
    <glyph glyph-name="Otilde" unicode="&#xd5;" horiz-adv-x="812" 
d="M789 339c-30 -189 -182 -354 -423 -354c-244 0 -356 175 -324 376c30 189 182 354 423 354c234 0 356 -175 324 -376zM229 344c-17 -106 31 -189 148 -189c125 0 207 83 225 201c17 106 -31 189 -148 189c-125 0 -206 -83 -225 -201zM670 904c10 -93 -41 -157 -115 -157
c-61 0 -109 42 -137 42c-24 0 -28 -31 -26 -36h-116c-10 93 41 157 115 157c61 0 109 -42 137 -42c24 0 28 31 26 36h116z" />
    <glyph glyph-name="OE" unicode="&#x152;" horiz-adv-x="1052" 
d="M485 -1c-38 -10 -79 -14 -119 -14c-244 0 -356 175 -324 376c30 189 179 354 423 354c48 0 88 -6 123 -16l483 1l-25 -160h-300l-17 -107h270l-25 -159h-270l-18 -114h305l-25 -160zM229 345c-19 -121 54 -195 158 -195c42 0 81 8 118 25l57 358c-24 11 -61 17 -96 17
c-113 0 -216 -72 -237 -205z" />
    <glyph glyph-name="P" unicode="P" horiz-adv-x="670" 
d="M131 700h273c163 0 299 -61 269 -251c-28 -178 -153 -229 -331 -229h-102l-35 -220h-185zM485 461c11 67 -38 79 -89 79h-105l-26 -160h103c62 0 108 22 117 81z" />
    <glyph glyph-name="Thorn" unicode="&#xde;" horiz-adv-x="668" 
d="M299 590h88c153 0 299 -61 269 -251c-28 -178 -154 -229 -337 -229h-96l-18 -110h-185l111 700h185zM248 270h97c62 0 113 17 124 86c9 57 -38 74 -86 74h-110z" />
    <glyph glyph-name="Q" unicode="Q" horiz-adv-x="812" 
d="M744 53l-139 -109l-64 74c-52 -21 -110 -33 -175 -33c-244 0 -356 175 -324 376c30 189 182 354 423 354c234 0 356 -175 324 -376c-13 -81 -48 -158 -103 -219zM229 344c-17 -106 31 -189 148 -189c15 0 29 1 43 3l-53 62l133 116l67 -79c18 29 29 62 35 99
c17 106 -31 189 -148 189c-125 0 -206 -83 -225 -201z" />
    <glyph glyph-name="R" unicode="R" horiz-adv-x="711" 
d="M205 0h-185l111 700h291c132 0 282 -56 252 -247c-18 -110 -80 -170 -164 -201l149 -252h-196l-126 228h-96zM291 540l-26 -162h114c53 0 98 32 106 82c9 58 -24 80 -77 80h-117z" />
    <glyph glyph-name="Racute" unicode="&#x154;" horiz-adv-x="711" 
d="M205 0h-185l111 700h291c132 0 282 -56 252 -247c-18 -110 -80 -170 -164 -201l149 -252h-196l-126 228h-96zM291 540l-26 -162h114c53 0 98 32 106 82c9 58 -24 80 -77 80h-117zM453 760h-173l113 150h193z" />
    <glyph glyph-name="Rcaron" unicode="&#x158;" horiz-adv-x="711" 
d="M205 0h-185l111 700h291c132 0 282 -56 252 -247c-18 -110 -80 -170 -164 -201l149 -252h-196l-126 228h-96zM291 540l-26 -162h114c53 0 98 32 106 82c9 58 -24 80 -77 80h-117zM616 920l-155 -160h-150l-105 160h150l39 -65l62 65h159z" />
    <glyph glyph-name="Rcommaaccent" unicode="&#x156;" horiz-adv-x="711" 
d="M205 0h-185l111 700h291c132 0 282 -56 252 -247c-18 -110 -80 -170 -164 -201l149 -252h-196l-126 228h-96zM291 540l-26 -162h114c53 0 98 32 106 82c9 58 -24 80 -77 80h-117zM333 -260h-137l60 200h157z" />
    <glyph glyph-name="S" unicode="S" horiz-adv-x="615" 
d="M77 520c22 134 152 195 287 195c91 0 176 -24 231 -59l-25 -163c-60 45 -133 63 -200 62c-72 -1 -104 -20 -106 -49c-6 -92 355 -74 310 -318c-29 -159 -155 -203 -304 -203c-105 0 -196 26 -263 67l27 169c74 -57 155 -76 231 -76c72 0 116 17 120 48
c16 115 -348 81 -308 327z" />
    <glyph glyph-name="Sacute" unicode="&#x15a;" horiz-adv-x="615" 
d="M77 520c22 134 152 195 287 195c91 0 176 -24 231 -59l-25 -163c-60 45 -133 63 -200 62c-72 -1 -104 -20 -106 -49c-6 -92 355 -74 310 -318c-29 -159 -155 -203 -304 -203c-105 0 -196 26 -263 67l27 169c74 -57 155 -76 231 -76c72 0 116 17 120 48
c16 115 -348 81 -308 327zM438 760h-173l113 150h193z" />
    <glyph glyph-name="Scaron" unicode="&#x160;" horiz-adv-x="615" 
d="M77 520c22 134 152 195 287 195c91 0 176 -24 231 -59l-25 -163c-60 45 -133 63 -200 62c-72 -1 -104 -20 -106 -49c-6 -92 355 -74 310 -318c-29 -159 -155 -203 -304 -203c-105 0 -196 26 -263 67l27 169c74 -57 155 -76 231 -76c72 0 116 17 120 48
c16 115 -348 81 -308 327zM601 920l-155 -160h-150l-105 160h150l39 -65l62 65h159z" />
    <glyph glyph-name="Scedilla" unicode="&#x15e;" horiz-adv-x="615" 
d="M378 -146c-11 -68 -95 -89 -156 -89c-39 0 -77 5 -110 18l15 97c18 -10 48 -16 75 -16s56 6 59 26c4 23 -33 31 -79 25l26 73c-79 8 -148 31 -201 64l27 169c74 -57 155 -76 231 -76c72 0 116 17 120 48c16 115 -348 81 -308 327c22 134 152 195 287 195
c91 0 176 -24 231 -59l-25 -163c-60 45 -133 63 -200 62c-72 -1 -104 -20 -106 -49c-6 -92 355 -74 310 -318c-26 -142 -129 -192 -256 -201l-14 -31c61 -10 83 -46 74 -102z" />
    <glyph glyph-name="Scommaaccent" unicode="&#x218;" horiz-adv-x="615" 
d="M77 520c22 134 152 195 287 195c91 0 176 -24 231 -59l-25 -163c-60 45 -133 63 -200 62c-72 -1 -104 -20 -106 -49c-6 -92 355 -74 310 -318c-29 -159 -155 -203 -304 -203c-105 0 -196 26 -263 67l27 169c74 -57 155 -76 231 -76c72 0 116 17 120 48
c16 115 -348 81 -308 327zM282 -260h-137l60 200h157z" />
    <glyph glyph-name="T" unicode="T" horiz-adv-x="605" 
d="M77 700h580l-26 -165h-197l-85 -535h-185l85 535h-198z" />
    <glyph glyph-name="Tbar" unicode="&#x166;" horiz-adv-x="619" 
d="M356 0h-185l42 265h-118l19 120h118l24 150h-198l26 165h580l-26 -165h-197l-24 -150h117l-19 -120h-117z" />
    <glyph glyph-name="Tcaron" unicode="&#x164;" horiz-adv-x="605" 
d="M77 700h580l-26 -165h-197l-85 -535h-185l85 535h-198zM607 920l-155 -160h-150l-105 160h150l39 -65l62 65h159z" />
    <glyph glyph-name="Tcommaaccent" unicode="&#x162;" horiz-adv-x="605" 
d="M77 700h580l-26 -165h-197l-85 -535h-185l85 535h-198zM249 -260h-137l60 200h157z" />
    <glyph glyph-name="uni021A" unicode="&#x21a;" horiz-adv-x="605" 
d="M77 700h580l-26 -165h-197l-85 -535h-185l85 535h-198zM249 -260h-137l60 200h157z" />
    <glyph glyph-name="U" unicode="U" horiz-adv-x="748" 
d="M569 700h185l-69 -438c-34 -211 -190 -277 -351 -277c-149 0 -311 76 -278 287l68 428h185l-68 -428c-15 -94 28 -122 103 -122c83 0 144 38 159 132z" />
    <glyph glyph-name="Uacute" unicode="&#xda;" horiz-adv-x="748" 
d="M569 700h185l-69 -438c-34 -211 -190 -277 -351 -277c-149 0 -311 76 -278 287l68 428h185l-68 -428c-15 -94 28 -122 103 -122c83 0 144 38 159 132zM506 760h-173l113 150h193z" />
    <glyph glyph-name="Ucircumflex" unicode="&#xdb;" horiz-adv-x="748" 
d="M569 700h185l-69 -438c-34 -211 -190 -277 -351 -277c-149 0 -311 76 -278 287l68 428h185l-68 -428c-15 -94 28 -122 103 -122c83 0 144 38 159 132zM385 910h150l95 -160h-149l-31 55l-49 -55h-161z" />
    <glyph glyph-name="Udieresis" unicode="&#xdc;" horiz-adv-x="748" 
d="M569 700h185l-69 -438c-34 -211 -190 -277 -351 -277c-149 0 -311 76 -278 287l68 428h185l-68 -428c-15 -94 28 -122 103 -122c83 0 144 38 159 132zM643 820c-6 -41 -46 -74 -89 -74c-51 0 -86 43 -78 96c7 41 46 74 89 74c51 0 86 -43 78 -96zM423 820
c-6 -41 -46 -74 -89 -74c-51 0 -86 43 -78 96c7 41 46 74 89 74c51 0 86 -43 78 -96z" />
    <glyph glyph-name="Ugrave" unicode="&#xd9;" horiz-adv-x="748" 
d="M569 700h185l-69 -438c-34 -211 -190 -277 -351 -277c-149 0 -311 76 -278 287l68 428h185l-68 -428c-15 -94 28 -122 103 -122c83 0 144 38 159 132zM543 760h-167l-87 150h187z" />
    <glyph glyph-name="Uhungarumlaut" unicode="&#x170;" horiz-adv-x="748" 
d="M569 700h185l-69 -438c-34 -211 -190 -277 -351 -277c-149 0 -311 76 -278 287l68 428h185l-68 -428c-15 -94 28 -122 103 -122c83 0 144 38 159 132zM611 770h-152l99 157h162zM416 770h-152l99 157h162z" />
    <glyph glyph-name="Umacron" unicode="&#x16a;" horiz-adv-x="748" 
d="M569 700h185l-69 -438c-34 -211 -190 -277 -351 -277c-149 0 -311 76 -278 287l68 428h185l-68 -428c-15 -94 28 -122 103 -122c83 0 144 38 159 132zM291 898h340l-21 -130h-340z" />
    <glyph glyph-name="Uogonek" unicode="&#x172;" horiz-adv-x="749" 
d="M503 282l66 418h185l-69 -438c-16 -101 -61 -169 -121 -213c-90 -66 -110 -115 -110 -138c0 -13 8 -21 28 -21c10 0 22 3 33 8l-18 -115c-27 -13 -53 -18 -85 -18c-83 0 -122 53 -111 117c6 33 30 71 81 105c-16 -1 -32 -2 -48 -2c-149 0 -311 76 -278 287l68 428h185
l-68 -428c-15 -94 28 -122 103 -122c83 0 144 38 159 132z" />
    <glyph glyph-name="Uring" unicode="&#x16e;" horiz-adv-x="748" 
d="M569 700h185l-69 -438c-34 -211 -190 -277 -351 -277c-149 0 -311 76 -278 287l68 428h185l-68 -428c-15 -94 28 -122 103 -122c83 0 144 38 159 132zM580 845c-12 -75 -74 -115 -140 -115c-63 0 -130 50 -117 137c12 72 75 113 140 113c64 0 130 -51 117 -135zM416 858
c-3 -25 12 -38 32 -38c19 0 36 11 39 32c4 24 -12 38 -32 38c-18 0 -36 -11 -39 -32z" />
    <glyph glyph-name="V" unicode="V" horiz-adv-x="721" 
d="M409 0h-190l-152 700h193l81 -480l235 480h207z" />
    <glyph glyph-name="W" unicode="W" horiz-adv-x="1081" 
d="M935 700h205l-325 -700h-205l-49 432l-189 -432h-200l-103 700h194l40 -492l212 492h164l54 -492z" />
    <glyph glyph-name="Wacute" unicode="&#x1e82;" horiz-adv-x="1081" 
d="M935 700h205l-325 -700h-205l-49 432l-189 -432h-200l-103 700h194l40 -492l212 492h164l54 -492zM673 760h-173l113 150h193z" />
    <glyph glyph-name="Wcircumflex" unicode="&#x174;" horiz-adv-x="1081" 
d="M935 700h205l-325 -700h-205l-49 432l-189 -432h-200l-103 700h194l40 -492l212 492h164l54 -492zM552 910h150l95 -160h-149l-31 55l-49 -55h-161z" />
    <glyph glyph-name="Wdieresis" unicode="&#x1e84;" horiz-adv-x="1081" 
d="M935 700h205l-325 -700h-205l-49 432l-189 -432h-200l-103 700h194l40 -492l212 492h164l54 -492zM810 820c-6 -41 -46 -74 -89 -74c-51 0 -86 43 -78 96c7 41 46 74 89 74c51 0 86 -43 78 -96zM590 820c-6 -41 -46 -74 -89 -74c-51 0 -86 43 -78 96c7 41 46 74 89 74
c51 0 86 -43 78 -96z" />
    <glyph glyph-name="Wgrave" unicode="&#x1e80;" horiz-adv-x="1081" 
d="M935 700h205l-325 -700h-205l-49 432l-189 -432h-200l-103 700h194l40 -492l212 492h164l54 -492zM710 760h-167l-87 150h187z" />
    <glyph glyph-name="X" unicode="X" horiz-adv-x="691" 
d="M159 0h-219l310 359l-180 341h208l95 -196l164 196h219l-291 -337l191 -363h-208l-105 220z" />
    <glyph glyph-name="Y" unicode="Y" horiz-adv-x="728" 
d="M409 0h-184l39 239l-200 461h202l109 -293l201 293h218l-346 -461z" />
    <glyph glyph-name="Yacute" unicode="&#xdd;" horiz-adv-x="728" 
d="M409 0h-184l39 239l-200 461h202l109 -293l201 293h218l-346 -461zM502 760h-173l113 150h193z" />
    <glyph glyph-name="Ycircumflex" unicode="&#x176;" horiz-adv-x="728" 
d="M409 0h-184l39 239l-200 461h202l109 -293l201 293h218l-346 -461zM381 910h150l95 -160h-149l-31 55l-49 -55h-161z" />
    <glyph glyph-name="Ydieresis" unicode="&#x178;" horiz-adv-x="728" 
d="M409 0h-184l39 239l-200 461h202l109 -293l201 293h218l-346 -461zM639 820c-6 -41 -46 -74 -89 -74c-51 0 -86 43 -78 96c7 41 46 74 89 74c51 0 86 -43 78 -96zM419 820c-6 -41 -46 -74 -89 -74c-51 0 -86 43 -78 96c7 41 46 74 89 74c51 0 86 -43 78 -96z" />
    <glyph glyph-name="Ygrave" unicode="&#x1ef2;" horiz-adv-x="728" 
d="M409 0h-184l39 239l-200 461h202l109 -293l201 293h218l-346 -461zM539 760h-167l-87 150h187z" />
    <glyph glyph-name="Z" unicode="Z" horiz-adv-x="627" 
d="M547 0h-563l19 122l363 413h-279l26 165h536l-19 -125l-363 -410h306z" />
    <glyph glyph-name="Zacute" unicode="&#x179;" horiz-adv-x="627" 
d="M547 0h-563l19 122l363 413h-279l26 165h536l-19 -125l-363 -410h306zM450 760h-173l113 150h193z" />
    <glyph glyph-name="Zcaron" unicode="&#x17d;" horiz-adv-x="627" 
d="M547 0h-563l19 122l363 413h-279l26 165h536l-19 -125l-363 -410h306zM613 920l-155 -160h-150l-105 160h150l39 -65l62 65h159z" />
    <glyph glyph-name="Zdotaccent" unicode="&#x17b;" horiz-adv-x="627" 
d="M547 0h-563l19 122l363 413h-279l26 165h536l-19 -125l-363 -410h306zM482 835c-9 -57 -52 -79 -98 -79c-54 0 -96 32 -85 101c9 56 52 79 98 79c54 0 96 -33 85 -101z" />
    <glyph glyph-name="a" unicode="a" horiz-adv-x="622" 
d="M385 65c-30 -44 -85 -80 -167 -80c-160 0 -219 136 -198 266c19 118 106 244 263 244c85 0 136 -47 156 -93l12 78h150l-76 -480h-150zM191 235c-8 -50 11 -110 79 -110c53 0 93 32 115 64l18 109c-8 33 -38 57 -81 57c-76 0 -121 -58 -131 -120z" />
    <glyph glyph-name="aacute" unicode="&#xe1;" horiz-adv-x="622" 
d="M385 65c-30 -44 -85 -80 -167 -80c-160 0 -219 136 -198 266c19 118 106 244 263 244c85 0 136 -47 156 -93l12 78h150l-76 -480h-150zM191 235c-8 -50 11 -110 79 -110c53 0 93 32 115 64l18 109c-8 33 -38 57 -81 57c-76 0 -121 -58 -131 -120zM410 550h-173l113 150
h193z" />
    <glyph glyph-name="abreve" unicode="&#x103;" horiz-adv-x="622" 
d="M385 65c-30 -44 -85 -80 -167 -80c-160 0 -219 136 -198 266c19 118 106 244 263 244c85 0 136 -47 156 -93l12 78h150l-76 -480h-150zM191 235c-8 -50 11 -110 79 -110c53 0 93 32 115 64l18 109c-8 33 -38 57 -81 57c-76 0 -121 -58 -131 -120zM508 570
c-47 -29 -92 -46 -166 -46s-125 17 -164 46l20 126c49 -33 97 -42 154 -42s117 9 176 42z" />
    <glyph glyph-name="acircumflex" unicode="&#xe2;" horiz-adv-x="622" 
d="M385 65c-30 -44 -85 -80 -167 -80c-160 0 -219 136 -198 266c19 118 106 244 263 244c85 0 136 -47 156 -93l12 78h150l-76 -480h-150zM191 235c-8 -50 11 -110 79 -110c53 0 93 32 115 64l18 109c-8 33 -38 57 -81 57c-76 0 -121 -58 -131 -120zM289 700h150l95 -160
h-149l-31 55l-49 -55h-161z" />
    <glyph glyph-name="adieresis" unicode="&#xe4;" horiz-adv-x="622" 
d="M385 65c-30 -44 -85 -80 -167 -80c-160 0 -219 136 -198 266c19 118 106 244 263 244c85 0 136 -47 156 -93l12 78h150l-76 -480h-150zM191 235c-8 -50 11 -110 79 -110c53 0 93 32 115 64l18 109c-8 33 -38 57 -81 57c-76 0 -121 -58 -131 -120zM547 610
c-6 -41 -46 -74 -89 -74c-51 0 -86 43 -78 96c7 41 46 74 89 74c51 0 86 -43 78 -96zM327 610c-6 -41 -46 -74 -89 -74c-51 0 -86 43 -78 96c7 41 46 74 89 74c51 0 86 -43 78 -96z" />
    <glyph glyph-name="agrave" unicode="&#xe0;" horiz-adv-x="622" 
d="M385 65c-30 -44 -85 -80 -167 -80c-160 0 -219 136 -198 266c19 118 106 244 263 244c85 0 136 -47 156 -93l12 78h150l-76 -480h-150zM191 235c-8 -50 11 -110 79 -110c53 0 93 32 115 64l18 109c-8 33 -38 57 -81 57c-76 0 -121 -58 -131 -120zM447 550h-167l-87 150
h187z" />
    <glyph glyph-name="amacron" unicode="&#x101;" horiz-adv-x="622" 
d="M385 65c-30 -44 -85 -80 -167 -80c-160 0 -219 136 -198 266c19 118 106 244 263 244c85 0 136 -47 156 -93l12 78h150l-76 -480h-150zM191 235c-8 -50 11 -110 79 -110c53 0 93 32 115 64l18 109c-8 33 -38 57 -81 57c-76 0 -121 -58 -131 -120zM195 688h340l-21 -130
h-340z" />
    <glyph glyph-name="aogonek" unicode="&#x105;" horiz-adv-x="622" 
d="M601 480l-76 -480c-44 -26 -77 -65 -77 -89c0 -13 8 -21 28 -21c10 0 22 3 33 8l-18 -115c-27 -13 -53 -18 -85 -18c-83 0 -122 53 -111 117c7 37 36 81 92 118h-12l10 65c-30 -44 -85 -80 -167 -80c-160 0 -219 136 -198 266c19 118 106 244 263 244
c85 0 136 -47 156 -93l12 78h150zM270 125c53 0 93 32 115 64l18 109c-8 33 -38 57 -81 57c-76 0 -121 -58 -131 -120c-8 -50 11 -110 79 -110z" />
    <glyph glyph-name="aring" unicode="&#xe5;" horiz-adv-x="622" 
d="M385 65c-30 -44 -85 -80 -167 -80c-160 0 -219 136 -198 266c19 118 106 244 263 244c85 0 136 -47 156 -93l12 78h150l-76 -480h-150zM191 235c-8 -50 11 -110 79 -110c53 0 93 32 115 64l18 109c-8 33 -38 57 -81 57c-76 0 -121 -58 -131 -120zM484 635
c-12 -75 -74 -115 -140 -115c-63 0 -130 50 -117 137c12 72 75 113 140 113c64 0 130 -51 117 -135zM320 648c-3 -25 12 -38 32 -38c19 0 36 11 39 32c4 24 -12 38 -32 38c-18 0 -36 -11 -39 -32z" />
    <glyph glyph-name="atilde" unicode="&#xe3;" horiz-adv-x="622" 
d="M385 65c-30 -44 -85 -80 -167 -80c-160 0 -219 136 -198 266c19 118 106 244 263 244c85 0 136 -47 156 -93l12 78h150l-76 -480h-150zM191 235c-8 -50 11 -110 79 -110c53 0 93 32 115 64l18 109c-8 33 -38 57 -81 57c-76 0 -121 -58 -131 -120zM537 694
c10 -93 -41 -157 -115 -157c-61 0 -109 42 -137 42c-24 0 -28 -31 -26 -36h-116c-10 93 41 157 115 157c61 0 109 -42 137 -42c24 0 28 31 26 36h116z" />
    <glyph glyph-name="ae" unicode="&#xe6;" horiz-adv-x="945" 
d="M386 66c-30 -44 -85 -81 -167 -81c-160 0 -219 137 -198 267c19 118 106 243 263 243c85 0 136 -46 156 -92l12 77h140l-12 -74c40 66 106 89 163 89c170 1 206 -161 153 -306h-326c11 -54 70 -74 145 -74c55 0 103 11 140 29l-20 -130c-39 -16 -76 -29 -134 -29
c-86 0 -144 31 -174 86l-11 -71h-140zM191 235c-8 -50 11 -110 79 -110c53 0 93 32 115 64l18 109c-8 33 -38 57 -81 57c-76 0 -121 -58 -131 -120zM693 372c-61 0 -90 -36 -98 -81h162c9 28 0 81 -64 81z" />
    <glyph glyph-name="b" unicode="b" horiz-adv-x="621" 
d="M115 700h170l-42 -262c40 37 90 57 145 57c150 0 218 -136 197 -266c-18 -118 -102 -244 -264 -244c-84 0 -136 45 -152 88l-15 -73h-150zM413 241c8 54 -11 114 -77 114c-49 0 -92 -30 -116 -64l-17 -109c10 -33 36 -57 77 -57c76 0 124 54 133 116z" />
    <glyph glyph-name="c" unicode="c" horiz-adv-x="493" 
d="M19 246c29 183 187 250 310 250c58 0 111 -13 154 -39l-22 -136c-31 19 -70 30 -113 30c-71 0 -144 -34 -156 -117c-11 -74 43 -104 107 -104c52 0 99 12 142 32l-23 -147c-49 -21 -101 -30 -161 -30c-139 0 -267 79 -238 261z" />
    <glyph glyph-name="cacute" unicode="&#x107;" horiz-adv-x="493" 
d="M19 246c29 183 187 250 310 250c58 0 111 -13 154 -39l-22 -136c-31 19 -70 30 -113 30c-71 0 -144 -34 -156 -117c-11 -74 43 -104 107 -104c52 0 99 12 142 32l-23 -147c-49 -21 -101 -30 -161 -30c-139 0 -267 79 -238 261zM380 540h-173l113 150h193z" />
    <glyph glyph-name="ccaron" unicode="&#x10d;" horiz-adv-x="493" 
d="M19 246c29 183 187 250 310 250c58 0 111 -13 154 -39l-22 -136c-31 19 -70 30 -113 30c-71 0 -144 -34 -156 -117c-11 -74 43 -104 107 -104c52 0 99 12 142 32l-23 -147c-49 -21 -101 -30 -161 -30c-139 0 -267 79 -238 261zM543 700l-155 -160h-150l-105 160h150
l39 -65l62 65h159z" />
    <glyph glyph-name="ccedilla" unicode="&#xe7;" horiz-adv-x="493" 
d="M461 321c-31 19 -70 30 -113 30c-71 0 -144 -34 -156 -117c-11 -74 43 -104 107 -104c52 0 99 12 142 32l-23 -147c-37 -16 -76 -25 -119 -28l-14 -31c61 -10 83 -46 74 -102c-11 -68 -95 -89 -156 -89c-39 0 -77 5 -110 18l15 97c18 -10 48 -16 75 -16s56 6 59 26
c4 23 -33 31 -79 25l27 77c-110 22 -195 102 -171 254c29 183 187 250 310 250c58 0 111 -13 154 -39z" />
    <glyph glyph-name="cdotaccent" unicode="&#x10b;" horiz-adv-x="493" 
d="M19 246c29 183 187 250 310 250c58 0 111 -13 154 -39l-22 -136c-31 19 -70 30 -113 30c-71 0 -144 -34 -156 -117c-11 -74 43 -104 107 -104c52 0 99 12 142 32l-23 -147c-49 -21 -101 -30 -161 -30c-139 0 -267 79 -238 261zM412 615c-9 -57 -52 -79 -98 -79
c-54 0 -96 32 -85 101c9 56 52 79 98 79c54 0 96 -33 85 -101z" />
    <glyph glyph-name="d" unicode="d" horiz-adv-x="622" 
d="M466 700h170l-111 -700h-150l10 64c-29 -44 -85 -79 -167 -79c-160 0 -219 136 -198 266c19 118 109 244 263 244c65 0 114 -29 139 -68zM403 302c-10 29 -40 53 -81 53c-76 0 -121 -56 -131 -121c-8 -50 11 -109 79 -109c53 0 93 31 115 65z" />
    <glyph glyph-name="eth" unicode="&#xf0;" horiz-adv-x="579" 
d="M544 269c-36 -214 -157 -284 -297 -284c-138 0 -250 87 -230 241c18 137 115 209 225 209c60 0 118 -23 151 -76c3 17 3 34 2 50c-3 57 -28 104 -63 134l-88 -78l-64 74l57 47c-26 7 -55 9 -86 9l11 120c66 0 127 -12 180 -33l82 71l65 -74l-57 -49
c89 -70 139 -199 112 -361zM190 215c-7 -57 20 -90 73 -90s89 33 96 90s-20 90 -73 90s-89 -33 -96 -90z" />
    <glyph glyph-name="dcaron" unicode="&#x10f;" horiz-adv-x="621" 
d="M692 700h151l-68 -211h-131zM466 700h170l-111 -700h-150l10 64c-29 -44 -85 -79 -167 -79c-160 0 -219 136 -198 266c19 118 109 244 263 244c65 0 114 -29 139 -68zM403 302c-10 29 -40 53 -81 53c-76 0 -121 -56 -131 -121c-8 -50 11 -109 79 -109c53 0 93 31 115 65z
" />
    <glyph glyph-name="dcroat" unicode="&#x111;" horiz-adv-x="621" 
d="M626 638h60l-16 -100h-60l-85 -538h-150l10 64c-29 -44 -85 -79 -167 -79c-160 0 -219 136 -198 266c19 118 109 244 263 244c65 0 114 -29 139 -68l18 111h-110l16 100h110l10 62h170zM270 125c53 0 93 31 115 65l18 112c-10 29 -40 53 -81 53c-76 0 -121 -56 -131 -121
c-8 -50 11 -109 79 -109z" />
    <glyph glyph-name="e" unicode="e" horiz-adv-x="544" 
d="M20 253c26 177 167 242 278 242c200 0 251 -162 198 -306h-316c11 -55 70 -74 135 -74s113 10 150 28l-20 -130c-39 -16 -96 -28 -174 -28c-158 0 -276 100 -251 268zM357 291c9 28 0 81 -64 81c-51 0 -90 -36 -98 -81h162z" />
    <glyph glyph-name="eacute" unicode="&#xe9;" horiz-adv-x="544" 
d="M20 253c26 177 167 242 278 242c200 0 251 -162 198 -306h-316c11 -55 70 -74 135 -74s113 10 150 28l-20 -130c-39 -16 -96 -28 -174 -28c-158 0 -276 100 -251 268zM357 291c9 28 0 81 -64 81c-51 0 -90 -36 -98 -81h162zM374 540h-173l113 150h193z" />
    <glyph glyph-name="ecaron" unicode="&#x11b;" horiz-adv-x="544" 
d="M20 253c26 177 167 242 278 242c200 0 251 -162 198 -306h-316c11 -55 70 -74 135 -74s113 10 150 28l-20 -130c-39 -16 -96 -28 -174 -28c-158 0 -276 100 -251 268zM357 291c9 28 0 81 -64 81c-51 0 -90 -36 -98 -81h162zM537 700l-155 -160h-150l-105 160h150l39 -65
l62 65h159z" />
    <glyph glyph-name="ecircumflex" unicode="&#xea;" horiz-adv-x="544" 
d="M20 253c26 177 167 242 278 242c200 0 251 -162 198 -306h-316c11 -55 70 -74 135 -74s113 10 150 28l-20 -130c-39 -16 -96 -28 -174 -28c-158 0 -276 100 -251 268zM357 291c9 28 0 81 -64 81c-51 0 -90 -36 -98 -81h162zM253 690h150l95 -160h-149l-31 55l-49 -55
h-161z" />
    <glyph glyph-name="edieresis" unicode="&#xeb;" horiz-adv-x="544" 
d="M20 253c26 177 167 242 278 242c200 0 251 -162 198 -306h-316c11 -55 70 -74 135 -74s113 10 150 28l-20 -130c-39 -16 -96 -28 -174 -28c-158 0 -276 100 -251 268zM357 291c9 28 0 81 -64 81c-51 0 -90 -36 -98 -81h162zM511 600c-6 -41 -46 -74 -89 -74
c-51 0 -86 43 -78 96c7 41 46 74 89 74c51 0 86 -43 78 -96zM291 600c-6 -41 -46 -74 -89 -74c-51 0 -86 43 -78 96c7 41 46 74 89 74c51 0 86 -43 78 -96z" />
    <glyph glyph-name="edotaccent" unicode="&#x117;" horiz-adv-x="544" 
d="M20 253c26 177 167 242 278 242c200 0 251 -162 198 -306h-316c11 -55 70 -74 135 -74s113 10 150 28l-20 -130c-39 -16 -96 -28 -174 -28c-158 0 -276 100 -251 268zM357 291c9 28 0 81 -64 81c-51 0 -90 -36 -98 -81h162zM406 615c-9 -57 -52 -79 -98 -79
c-54 0 -96 32 -85 101c9 56 52 79 98 79c54 0 96 -33 85 -101z" />
    <glyph glyph-name="egrave" unicode="&#xe8;" horiz-adv-x="544" 
d="M20 253c26 177 167 242 278 242c200 0 251 -162 198 -306h-316c11 -55 70 -74 135 -74s113 10 150 28l-20 -130c-39 -16 -96 -28 -174 -28c-158 0 -276 100 -251 268zM357 291c9 28 0 81 -64 81c-51 0 -90 -36 -98 -81h162zM411 540h-167l-87 150h187z" />
    <glyph glyph-name="emacron" unicode="&#x113;" horiz-adv-x="544" 
d="M20 253c26 177 167 242 278 242c200 0 251 -162 198 -306h-316c11 -55 70 -74 135 -74s113 10 150 28l-20 -130c-39 -16 -96 -28 -174 -28c-158 0 -276 100 -251 268zM357 291c9 28 0 81 -64 81c-51 0 -90 -36 -98 -81h162zM159 678h340l-21 -130h-340z" />
    <glyph glyph-name="eogonek" unicode="&#x119;" horiz-adv-x="545" 
d="M390 -217c-27 -13 -53 -18 -85 -18c-83 0 -122 53 -111 117c6 32 32 72 84 103h-7c-158 0 -276 100 -251 268c26 177 167 242 278 242c200 0 251 -162 198 -306h-316c11 -55 70 -74 135 -74s113 10 150 28l-20 -130c-68 -41 -98 -78 -98 -102c0 -13 8 -21 28 -21
c10 0 22 3 33 8zM293 372c-51 0 -90 -36 -98 -81h162c9 28 0 81 -64 81z" />
    <glyph glyph-name="f" unicode="f" horiz-adv-x="412" 
d="M140 526c24 151 127 189 222 189c51 0 88 -8 118 -21l-20 -130c-15 6 -33 11 -61 11c-47 0 -84 -21 -91 -66l-5 -29h128l-22 -140h-128l-54 -340h-170l54 340h-79l22 140h79z" />
    <glyph glyph-name="g" unicode="g" horiz-adv-x="622" 
d="M528 15c-29 -182 -165 -250 -311 -250c-83 0 -157 20 -210 48l22 139c50 -32 110 -47 171 -47c76 0 145 28 158 110l5 32c-18 -27 -64 -62 -145 -62c-160 0 -219 136 -198 266c19 118 109 244 263 244c73 0 126 -30 155 -85l13 70h150zM191 234c-8 -50 11 -109 79 -109
c53 0 93 31 115 65l18 112c-10 29 -40 53 -81 53c-76 0 -121 -56 -131 -121z" />
    <glyph glyph-name="gbreve" unicode="&#x11f;" horiz-adv-x="622" 
d="M528 15c-29 -182 -165 -250 -311 -250c-83 0 -157 20 -210 48l22 139c50 -32 110 -47 171 -47c76 0 145 28 158 110l5 32c-18 -27 -64 -62 -145 -62c-160 0 -219 136 -198 266c19 118 109 244 263 244c73 0 126 -30 155 -85l13 70h150zM191 234c-8 -50 11 -109 79 -109
c53 0 93 31 115 65l18 112c-10 29 -40 53 -81 53c-76 0 -121 -56 -131 -121zM477 560c-47 -29 -92 -46 -166 -46s-125 17 -164 46l20 126c49 -33 97 -42 154 -42s117 9 176 42z" />
    <glyph glyph-name="gcommaaccent" unicode="&#x123;" horiz-adv-x="622" 
d="M377 536h-142l88 211h122zM528 15c-29 -182 -165 -250 -311 -250c-83 0 -157 20 -210 48l22 139c50 -32 110 -47 171 -47c76 0 145 28 158 110l5 32c-18 -27 -64 -62 -145 -62c-160 0 -219 136 -198 266c19 118 109 244 263 244c73 0 126 -30 155 -85l13 70h150zM191 234
c-8 -50 11 -109 79 -109c53 0 93 31 115 65l18 112c-10 29 -40 53 -81 53c-76 0 -121 -56 -131 -121z" />
    <glyph glyph-name="gdotaccent" unicode="&#x121;" horiz-adv-x="622" 
d="M528 15c-29 -182 -165 -250 -311 -250c-83 0 -157 20 -210 48l22 139c50 -32 110 -47 171 -47c76 0 145 28 158 110l5 32c-18 -27 -64 -62 -145 -62c-160 0 -219 136 -198 266c19 118 109 244 263 244c73 0 126 -30 155 -85l13 70h150zM191 234c-8 -50 11 -109 79 -109
c53 0 93 31 115 65l18 112c-10 29 -40 53 -81 53c-76 0 -121 -56 -131 -121zM411 615c-9 -57 -52 -79 -98 -79c-54 0 -96 32 -85 101c9 56 52 79 98 79c54 0 96 -33 85 -101z" />
    <glyph glyph-name="h" unicode="h" horiz-adv-x="590" 
d="M115 700h170l-41 -255c39 29 89 50 136 50c126 0 183 -94 166 -202l-47 -293h-170l44 280c8 50 -16 70 -53 70c-41 0 -77 -26 -98 -47l-48 -303h-170z" />
    <glyph glyph-name="hbar" unicode="&#x127;" horiz-adv-x="591" 
d="M245 445c39 29 89 50 136 50c126 0 183 -94 166 -202l-47 -293h-170l44 280c8 50 -16 70 -53 70c-41 0 -77 -26 -98 -47l-48 -303h-170l85 538h-63l16 100h63l10 62h170l-10 -62h107l-16 -100h-107z" />
    <glyph glyph-name="i" unicode="i" horiz-adv-x="274" 
d="M176 0h-170l76 480h170zM289 631c-10 -60 -55 -84 -104 -84c-55 0 -99 34 -88 105c9 60 55 84 103 84c56 0 100 -34 89 -105z" />
    <glyph glyph-name="dotlessi" unicode="&#x131;" horiz-adv-x="274" 
d="M176 0h-170l76 480h170z" />
    <glyph glyph-name="iacute" unicode="&#xed;" horiz-adv-x="274" 
d="M176 0h-170l76 480h170zM247 540h-173l113 150h193z" />
    <glyph glyph-name="icircumflex" unicode="&#xee;" horiz-adv-x="274" 
d="M176 0h-170l76 480h170zM152 530h-151l125 160h150l75 -160h-149l-16 55z" />
    <glyph glyph-name="idieresis" unicode="&#xef;" horiz-adv-x="274" 
d="M176 0h-170l76 480h170zM169 601c-6 -39 -43 -70 -84 -70c-48 0 -81 40 -73 90c6 39 43 70 84 70c48 0 81 -40 73 -90zM369 601c-6 -39 -43 -70 -84 -70c-48 0 -81 40 -73 90c7 39 43 70 84 70c48 0 81 -40 73 -90z" />
    <glyph glyph-name="i.loclTRK" horiz-adv-x="274" 
d="M176 0h-170l76 480h170zM279 615c-9 -57 -52 -79 -98 -79c-54 0 -96 32 -85 101c9 56 52 79 98 79c54 0 96 -33 85 -101z" />
    <glyph glyph-name="igrave" unicode="&#xec;" horiz-adv-x="274" 
d="M264 540h-167l-57 150h187zM176 0h-170l76 480h170z" />
    <glyph glyph-name="ij" unicode="&#x133;" horiz-adv-x="548" 
d="M176 0h-170l76 480h170zM289 631c-10 -60 -55 -84 -104 -84c-55 0 -99 34 -88 105c9 60 55 84 103 84c56 0 100 -34 89 -105zM439 -72c-21 -131 -98 -163 -203 -163c-40 0 -75 8 -98 17l22 138c11 -4 31 -7 47 -7c41 0 62 17 69 64l80 503h170zM563 631
c-10 -60 -55 -84 -104 -84c-55 0 -99 34 -88 105c9 60 55 84 103 84c56 0 100 -34 89 -105z" />
    <glyph glyph-name="imacron" unicode="&#x12b;" horiz-adv-x="274" 
d="M311 558h-260l17 110h260zM176 0h-170l76 480h170z" />
    <glyph glyph-name="iogonek" unicode="&#x12f;" horiz-adv-x="274" 
d="M97 652c9 60 55 84 103 84c56 0 100 -34 89 -105c-10 -60 -55 -84 -104 -84c-55 0 -99 34 -88 105zM38 0h-32l76 480h170l-76 -480c-34 -28 -62 -65 -62 -89c0 -13 8 -21 28 -21c10 0 22 3 33 8l-18 -115c-27 -13 -53 -18 -85 -18c-83 0 -122 53 -111 117
c7 37 34 81 77 118z" />
    <glyph glyph-name="j" unicode="j" horiz-adv-x="274" 
d="M165 -72c-21 -131 -98 -163 -203 -163c-40 0 -75 8 -98 17l22 138c11 -4 31 -7 47 -7c41 0 62 17 69 64l80 503h170zM289 631c-10 -60 -55 -84 -104 -84c-55 0 -99 34 -88 105c9 60 55 84 103 84c56 0 100 -34 89 -105z" />
    <glyph glyph-name="k" unicode="k" horiz-adv-x="560" 
d="M392 480h195l-199 -243l127 -237h-175l-94 182h-43l-29 -182h-170l111 700h170l-62 -388h37z" />
    <glyph glyph-name="kcommaaccent" unicode="&#x137;" horiz-adv-x="560" 
d="M392 480h195l-199 -243l127 -237h-175l-94 182h-43l-29 -182h-170l111 700h170l-62 -388h37zM254 -260h-137l60 200h157z" />
    <glyph glyph-name="l" unicode="l" horiz-adv-x="274" 
d="M122 730h170l-116 -730h-170z" />
    <glyph glyph-name="lacute" unicode="&#x13a;" horiz-adv-x="274" 
d="M122 730h170l-116 -730h-170zM299 780h-173l113 150h193z" />
    <glyph glyph-name="lcaron" unicode="&#x13e;" horiz-adv-x="274" 
d="M349 730h151l-69 -211h-131zM122 730h170l-116 -730h-170z" />
    <glyph glyph-name="lcommaaccent" unicode="&#x13c;" horiz-adv-x="274" 
d="M122 730h170l-116 -730h-170zM83 -260h-137l60 200h157z" />
    <glyph glyph-name="ldot" unicode="&#x140;" horiz-adv-x="458" 
d="M122 730h170l-116 -730h-170zM476 339c-10 -63 -57 -88 -108 -88c-58 0 -104 35 -92 110c10 62 58 87 108 87c59 0 104 -35 92 -109z" />
    <glyph glyph-name="lslash" unicode="&#x142;" horiz-adv-x="379" 
d="M173 730h170l-44 -279l79 29l-20 -130l-80 -29l-51 -321h-170l40 254l-79 -29l20 130l80 29z" />
    <glyph glyph-name="m" unicode="m" horiz-adv-x="865" 
d="M508 431c44 36 100 64 160 64c138 0 165 -121 154 -192l-48 -303h-170l48 303c5 33 -18 47 -45 47c-29 0 -59 -16 -79 -36c0 -4 0 -8 -1 -11l-48 -303h-170l48 303c5 33 -18 47 -45 47c-34 0 -69 -22 -91 -50l-47 -300h-170l76 480h150l-9 -53c34 34 96 68 162 68
s104 -27 125 -64z" />
    <glyph glyph-name="n" unicode="n" horiz-adv-x="590" 
d="M221 425c51 47 113 70 167 70c121 0 175 -94 158 -199l-47 -296h-170l44 280c9 51 -15 70 -53 70c-42 0 -78 -27 -98 -46l-48 -304h-170l76 480h150z" />
    <glyph glyph-name="nacute" unicode="&#x144;" horiz-adv-x="590" 
d="M221 425c51 47 113 70 167 70c121 0 175 -94 158 -199l-47 -296h-170l44 280c9 51 -15 70 -53 70c-42 0 -78 -27 -98 -46l-48 -304h-170l76 480h150zM407 540h-173l113 150h193z" />
    <glyph glyph-name="ncaron" unicode="&#x148;" horiz-adv-x="590" 
d="M221 425c51 47 113 70 167 70c121 0 175 -94 158 -199l-47 -296h-170l44 280c9 51 -15 70 -53 70c-42 0 -78 -27 -98 -46l-48 -304h-170l76 480h150zM570 700l-155 -160h-150l-105 160h150l39 -65l62 65h159z" />
    <glyph glyph-name="ncommaaccent" unicode="&#x146;" horiz-adv-x="590" 
d="M221 425c51 47 113 70 167 70c121 0 175 -94 158 -199l-47 -296h-170l44 280c9 51 -15 70 -53 70c-42 0 -78 -27 -98 -46l-48 -304h-170l76 480h150zM244 -260h-137l60 200h157z" />
    <glyph glyph-name="eng" unicode="&#x14b;" horiz-adv-x="590" 
d="M488 -72c-21 -131 -98 -163 -193 -163c-35 0 -64 8 -83 17l22 137c10 -4 21 -6 37 -6c29 0 47 17 54 64l48 303c8 51 -15 70 -53 70c-42 0 -78 -27 -98 -46l-48 -304h-170l76 480h150l-9 -55c51 47 113 70 167 70c121 0 175 -94 158 -199z" />
    <glyph glyph-name="ntilde" unicode="&#xf1;" horiz-adv-x="590" 
d="M221 425c51 47 113 70 167 70c121 0 175 -94 158 -199l-47 -296h-170l44 280c9 51 -15 70 -53 70c-42 0 -78 -27 -98 -46l-48 -304h-170l76 480h150zM534 684c10 -93 -41 -157 -115 -157c-61 0 -109 42 -137 42c-24 0 -28 -31 -26 -36h-116c-10 93 41 157 115 157
c61 0 109 -42 137 -42c24 0 28 31 26 36h116z" />
    <glyph glyph-name="o" unicode="o" horiz-adv-x="594" 
d="M557 224c-26 -164 -170 -239 -300 -239c-148 0 -264 95 -236 271c26 164 161 239 301 239c138 0 263 -95 235 -271zM192 239c-7 -48 7 -104 79 -104c68 0 105 46 115 106c7 48 -6 104 -77 104c-69 0 -107 -46 -117 -106z" />
    <glyph glyph-name="oacute" unicode="&#xf3;" horiz-adv-x="594" 
d="M557 224c-26 -164 -170 -239 -300 -239c-148 0 -264 95 -236 271c26 164 161 239 301 239c138 0 263 -95 235 -271zM192 239c-7 -48 7 -104 79 -104c68 0 105 46 115 106c7 48 -6 104 -77 104c-69 0 -107 -46 -117 -106zM398 530h-173l113 150h193z" />
    <glyph glyph-name="ocircumflex" unicode="&#xf4;" horiz-adv-x="594" 
d="M557 224c-26 -164 -170 -239 -300 -239c-148 0 -264 95 -236 271c26 164 161 239 301 239c138 0 263 -95 235 -271zM192 239c-7 -48 7 -104 79 -104c68 0 105 46 115 106c7 48 -6 104 -77 104c-69 0 -107 -46 -117 -106zM277 680h150l95 -160h-149l-31 55l-49 -55h-161z
" />
    <glyph glyph-name="odieresis" unicode="&#xf6;" horiz-adv-x="594" 
d="M557 224c-26 -164 -170 -239 -300 -239c-148 0 -264 95 -236 271c26 164 161 239 301 239c138 0 263 -95 235 -271zM192 239c-7 -48 7 -104 79 -104c68 0 105 46 115 106c7 48 -6 104 -77 104c-69 0 -107 -46 -117 -106zM535 590c-6 -41 -46 -74 -89 -74
c-51 0 -86 43 -78 96c7 41 46 74 89 74c51 0 86 -43 78 -96zM315 590c-6 -41 -46 -74 -89 -74c-51 0 -86 43 -78 96c7 41 46 74 89 74c51 0 86 -43 78 -96z" />
    <glyph glyph-name="ograve" unicode="&#xf2;" horiz-adv-x="594" 
d="M557 224c-26 -164 -170 -239 -300 -239c-148 0 -264 95 -236 271c26 164 161 239 301 239c138 0 263 -95 235 -271zM192 239c-7 -48 7 -104 79 -104c68 0 105 46 115 106c7 48 -6 104 -77 104c-69 0 -107 -46 -117 -106zM435 530h-167l-87 150h187z" />
    <glyph glyph-name="ohungarumlaut" unicode="&#x151;" horiz-adv-x="594" 
d="M557 224c-26 -164 -170 -239 -300 -239c-148 0 -264 95 -236 271c26 164 161 239 301 239c138 0 263 -95 235 -271zM192 239c-7 -48 7 -104 79 -104c68 0 105 46 115 106c7 48 -6 104 -77 104c-69 0 -107 -46 -117 -106zM503 540h-152l99 157h162zM308 540h-152l99 157
h162z" />
    <glyph glyph-name="omacron" unicode="&#x14d;" horiz-adv-x="594" 
d="M557 224c-26 -164 -170 -239 -300 -239c-148 0 -264 95 -236 271c26 164 161 239 301 239c138 0 263 -95 235 -271zM192 239c-7 -48 7 -104 79 -104c68 0 105 46 115 106c7 48 -6 104 -77 104c-69 0 -107 -46 -117 -106zM183 668h340l-21 -130h-340z" />
    <glyph glyph-name="oslash" unicode="&#xf8;" horiz-adv-x="594" 
d="M555 543l-76 -97c59 -45 94 -120 78 -222c-26 -164 -170 -239 -300 -239c-44 0 -85 8 -120 25l-57 -73h-57l75 96c-60 44 -93 120 -77 223c26 164 161 239 301 239c42 0 83 -9 118 -26l58 74h57zM309 345c-69 0 -107 -46 -117 -106c-4 -25 -2 -52 11 -72l136 174
c-8 2 -18 4 -30 4zM271 135c68 0 105 46 115 106c4 25 2 52 -11 73l-136 -174c9 -3 20 -5 32 -5z" />
    <glyph glyph-name="otilde" unicode="&#xf5;" horiz-adv-x="594" 
d="M557 224c-26 -164 -170 -239 -300 -239c-148 0 -264 95 -236 271c26 164 161 239 301 239c138 0 263 -95 235 -271zM192 239c-7 -48 7 -104 79 -104c68 0 105 46 115 106c7 48 -6 104 -77 104c-69 0 -107 -46 -117 -106zM525 674c10 -93 -41 -157 -115 -157
c-61 0 -109 42 -137 42c-24 0 -28 -31 -26 -36h-116c-10 93 41 157 115 157c61 0 109 -42 137 -42c24 0 28 31 26 36h116z" />
    <glyph glyph-name="oe" unicode="&#x153;" horiz-adv-x="916" 
d="M449 67c-49 -55 -119 -81 -202 -81c-138 0 -254 95 -226 271c26 164 161 239 291 239c78 0 138 -26 174 -77c47 49 114 76 188 76c200 0 246 -162 193 -306h-316c11 -55 70 -74 135 -74s113 10 150 28l-20 -130c-39 -16 -96 -28 -174 -28c-85 0 -153 29 -193 82zM192 239
c-7 -48 7 -104 73 -104c74 0 111 46 121 106c7 48 -6 104 -72 104c-74 0 -112 -46 -122 -106zM664 372c-51 0 -90 -36 -98 -81h162c9 28 0 81 -64 81z" />
    <glyph glyph-name="p" unicode="p" horiz-adv-x="622" 
d="M221 417c30 42 90 78 168 78c150 0 218 -136 197 -266c-18 -118 -105 -244 -262 -244c-71 0 -116 28 -142 63l-42 -268h-170l111 700h150zM415 246c8 50 -11 109 -79 109c-51 0 -93 -34 -115 -66l-18 -110c9 -30 38 -54 81 -54c76 0 121 59 131 121z" />
    <glyph glyph-name="thorn" unicode="&#xfe;" horiz-adv-x="621" 
d="M139 -220h-170l146 920h170l-41 -256c33 29 83 51 144 51c150 0 218 -136 197 -266c-18 -118 -105 -244 -262 -244c-71 0 -116 28 -142 63zM202 179c9 -30 38 -54 81 -54c76 0 121 59 131 121c8 50 -11 109 -79 109c-51 0 -93 -34 -115 -66z" />
    <glyph glyph-name="q" unicode="q" horiz-adv-x="622" 
d="M20 251c19 118 106 244 263 244c89 0 139 -52 156 -92l12 77h150l-111 -700h-170l41 257c-31 -31 -80 -52 -143 -52c-160 0 -219 136 -198 266zM403 301c-8 28 -39 54 -81 54c-77 0 -121 -59 -131 -121c-8 -50 11 -109 79 -109c54 0 95 33 115 64z" />
    <glyph glyph-name="r" unicode="r" horiz-adv-x="407" 
d="M220 416c39 52 104 83 204 73l-26 -163c-78 19 -145 -8 -182 -60l-42 -266h-170l76 480h150z" />
    <glyph glyph-name="racute" unicode="&#x155;" horiz-adv-x="407" 
d="M220 416c39 52 104 83 204 73l-26 -163c-78 19 -145 -8 -182 -60l-42 -266h-170l76 480h150zM327 540h-173l113 150h193z" />
    <glyph glyph-name="rcaron" unicode="&#x159;" horiz-adv-x="407" 
d="M220 416c39 52 104 83 204 73l-26 -163c-78 19 -145 -8 -182 -60l-42 -266h-170l76 480h150zM490 700l-155 -160h-150l-105 160h150l39 -65l62 65h159z" />
    <glyph glyph-name="rcommaaccent" unicode="&#x157;" horiz-adv-x="407" 
d="M220 416c39 52 104 83 204 73l-26 -163c-78 19 -145 -8 -182 -60l-42 -266h-170l76 480h150zM79 -260h-137l60 200h157z" />
    <glyph glyph-name="s" unicode="s" horiz-adv-x="490" 
d="M41 352c19 117 136 143 227 143c70 0 135 -17 185 -41l-21 -135c-43 29 -105 51 -161 51c-25 0 -51 -4 -54 -24c-11 -67 251 -38 223 -216c-19 -120 -124 -145 -245 -145c-75 0 -148 15 -194 44l21 135c47 -35 119 -51 176 -51c42 0 64 7 67 24c10 63 -251 42 -224 215z
" />
    <glyph glyph-name="sacute" unicode="&#x15b;" horiz-adv-x="490" 
d="M41 352c19 117 136 143 227 143c70 0 135 -17 185 -41l-21 -135c-43 29 -105 51 -161 51c-25 0 -51 -4 -54 -24c-11 -67 251 -38 223 -216c-19 -120 -124 -145 -245 -145c-75 0 -148 15 -194 44l21 135c47 -35 119 -51 176 -51c42 0 64 7 67 24c10 63 -251 42 -224 215z
M339 540h-173l113 150h193z" />
    <glyph glyph-name="scaron" unicode="&#x161;" horiz-adv-x="490" 
d="M41 352c19 117 136 143 227 143c70 0 135 -17 185 -41l-21 -135c-43 29 -105 51 -161 51c-25 0 -51 -4 -54 -24c-11 -67 251 -38 223 -216c-19 -120 -124 -145 -245 -145c-75 0 -148 15 -194 44l21 135c47 -35 119 -51 176 -51c42 0 64 7 67 24c10 63 -251 42 -224 215z
M502 700l-155 -160h-150l-105 160h150l39 -65l62 65h159z" />
    <glyph glyph-name="scedilla" unicode="&#x15f;" horiz-adv-x="490" 
d="M323 -146c-11 -68 -95 -89 -156 -89c-39 0 -77 5 -110 18l15 97c18 -10 48 -16 75 -16s56 6 59 26c4 23 -33 31 -79 25l25 72c-59 4 -114 19 -151 42l21 135c47 -35 119 -51 176 -51c42 0 64 7 67 24c10 63 -251 42 -224 215c19 117 136 143 227 143
c70 0 135 -17 185 -41l-21 -135c-43 29 -105 51 -161 51c-25 0 -51 -4 -54 -24c-11 -67 251 -38 223 -216c-15 -96 -86 -132 -176 -142l-15 -32c61 -10 83 -46 74 -102z" />
    <glyph glyph-name="scommaaccent" unicode="&#x219;" horiz-adv-x="490" 
d="M41 352c19 117 136 143 227 143c70 0 135 -17 185 -41l-21 -135c-43 29 -105 51 -161 51c-25 0 -51 -4 -54 -24c-11 -67 251 -38 223 -216c-19 -120 -124 -145 -245 -145c-75 0 -148 15 -194 44l21 135c47 -35 119 -51 176 -51c42 0 64 7 67 24c10 63 -251 42 -224 215z
M217 -260h-137l60 200h157z" />
    <glyph glyph-name="germandbls" unicode="&#xdf;" horiz-adv-x="585" 
d="M545 120c-15 -93 -107 -135 -201 -135c-55 0 -94 11 -124 26l19 123c22 -13 44 -18 71 -18c38 0 63 20 66 41c9 55 -117 118 -103 211c12 70 84 104 98 162c9 40 -15 55 -42 55c-39 0 -66 -25 -72 -61l-83 -524h-170l78 491c23 147 103 223 254 224
c152 1 209 -95 198 -167c-13 -79 -102 -126 -110 -178c-9 -57 143 -110 121 -250z" />
    <glyph glyph-name="t" unicode="t" horiz-adv-x="419" 
d="M139 615l176 40l-28 -175h130l-22 -140h-130l-26 -161c-6 -38 8 -54 52 -54c30 0 55 4 82 13l-21 -134c-27 -11 -74 -19 -125 -19c-92 0 -181 43 -161 170l29 185h-76l22 140h76z" />
    <glyph glyph-name="tbar" unicode="&#x167;" horiz-adv-x="421" 
d="M418 480l-21 -130h-129l-9 -58h113l-14 -90h-114l-4 -23c-6 -38 8 -54 52 -54c30 0 55 4 82 13l-21 -134c-27 -11 -74 -19 -125 -19c-92 0 -181 43 -161 170l7 47h-46l14 90h47l9 58h-76l20 130h76l22 135l176 40l-28 -175h130z" />
    <glyph glyph-name="tcaron" unicode="&#x165;" horiz-adv-x="419" 
d="M407 745h151l-68 -211h-131zM139 615l176 40l-28 -175h130l-22 -140h-130l-26 -161c-6 -38 8 -54 52 -54c30 0 55 4 82 13l-21 -134c-27 -11 -74 -19 -125 -19c-92 0 -181 43 -161 170l29 185h-76l22 140h76z" />
    <glyph glyph-name="tcommaaccent" unicode="&#x163;" horiz-adv-x="419" 
d="M139 615l176 40l-28 -175h130l-22 -140h-130l-26 -161c-6 -38 8 -54 52 -54c30 0 55 4 82 13l-21 -134c-27 -11 -74 -19 -125 -19c-92 0 -181 43 -161 170l29 185h-76l22 140h76zM220 -260h-137l60 200h157z" />
    <glyph glyph-name="uni021B" unicode="&#x21b;" horiz-adv-x="419" 
d="M139 615l176 40l-28 -175h130l-22 -140h-130l-26 -161c-6 -38 8 -54 52 -54c30 0 55 4 82 13l-21 -134c-27 -11 -74 -19 -125 -19c-92 0 -181 43 -161 170l29 185h-76l22 140h76zM220 -260h-137l60 200h157z" />
    <glyph glyph-name="u" unicode="u" horiz-adv-x="591" 
d="M400 480h170l-76 -480h-150l9 55c-42 -46 -93 -70 -156 -70c-126 0 -185 94 -168 202l46 293h170l-44 -280c-8 -51 17 -70 54 -70c42 0 78 24 97 46z" />
    <glyph glyph-name="uacute" unicode="&#xfa;" horiz-adv-x="591" 
d="M400 480h170l-76 -480h-150l9 55c-42 -46 -93 -70 -156 -70c-126 0 -185 94 -168 202l46 293h170l-44 -280c-8 -51 17 -70 54 -70c42 0 78 24 97 46zM404 540h-173l113 150h193z" />
    <glyph glyph-name="ucircumflex" unicode="&#xfb;" horiz-adv-x="591" 
d="M400 480h170l-76 -480h-150l9 55c-42 -46 -93 -70 -156 -70c-126 0 -185 94 -168 202l46 293h170l-44 -280c-8 -51 17 -70 54 -70c42 0 78 24 97 46zM283 690h150l95 -160h-149l-31 55l-49 -55h-161z" />
    <glyph glyph-name="udieresis" unicode="&#xfc;" horiz-adv-x="591" 
d="M400 480h170l-76 -480h-150l9 55c-42 -46 -93 -70 -156 -70c-126 0 -185 94 -168 202l46 293h170l-44 -280c-8 -51 17 -70 54 -70c42 0 78 24 97 46zM541 600c-6 -41 -46 -74 -89 -74c-51 0 -86 43 -78 96c7 41 46 74 89 74c51 0 86 -43 78 -96zM321 600
c-6 -41 -46 -74 -89 -74c-51 0 -86 43 -78 96c7 41 46 74 89 74c51 0 86 -43 78 -96z" />
    <glyph glyph-name="ugrave" unicode="&#xf9;" horiz-adv-x="591" 
d="M400 480h170l-76 -480h-150l9 55c-42 -46 -93 -70 -156 -70c-126 0 -185 94 -168 202l46 293h170l-44 -280c-8 -51 17 -70 54 -70c42 0 78 24 97 46zM441 540h-167l-87 150h187z" />
    <glyph glyph-name="uhungarumlaut" unicode="&#x171;" horiz-adv-x="591" 
d="M400 480h170l-76 -480h-150l9 55c-42 -46 -93 -70 -156 -70c-126 0 -185 94 -168 202l46 293h170l-44 -280c-8 -51 17 -70 54 -70c42 0 78 24 97 46zM509 550h-152l99 157h162zM314 550h-152l99 157h162z" />
    <glyph glyph-name="umacron" unicode="&#x16b;" horiz-adv-x="591" 
d="M400 480h170l-76 -480h-150l9 55c-42 -46 -93 -70 -156 -70c-126 0 -185 94 -168 202l46 293h170l-44 -280c-8 -51 17 -70 54 -70c42 0 78 24 97 46zM189 678h340l-21 -130h-340z" />
    <glyph glyph-name="uogonek" unicode="&#x173;" horiz-adv-x="591" 
d="M570 480l-76 -480c-44 -26 -77 -65 -77 -89c0 -13 8 -21 28 -21c10 0 22 3 33 8l-18 -115c-27 -13 -53 -18 -85 -18c-83 0 -122 53 -111 117c7 37 36 81 92 118h-12l9 55c-42 -46 -93 -70 -156 -70c-126 0 -185 94 -168 202l46 293h170l-44 -280c-8 -51 17 -70 54 -70
c42 0 78 24 97 46l48 304h170z" />
    <glyph glyph-name="uring" unicode="&#x16f;" horiz-adv-x="591" 
d="M400 480h170l-76 -480h-150l9 55c-42 -46 -93 -70 -156 -70c-126 0 -185 94 -168 202l46 293h170l-44 -280c-8 -51 17 -70 54 -70c42 0 78 24 97 46zM478 625c-12 -75 -74 -115 -140 -115c-63 0 -130 50 -117 137c12 72 75 113 140 113c64 0 130 -51 117 -135zM314 638
c-3 -25 12 -38 32 -38c19 0 36 11 39 32c4 24 -12 38 -32 38c-18 0 -36 -11 -39 -32z" />
    <glyph glyph-name="v" unicode="v" horiz-adv-x="579" 
d="M415 480h192l-276 -480h-180l-114 480h173l53 -303z" />
    <glyph glyph-name="w" unicode="w" horiz-adv-x="835" 
d="M669 480h189l-235 -480h-180l-30 281l-127 -281h-175l-73 480h169l31 -285l121 285h164l30 -285z" />
    <glyph glyph-name="wacute" unicode="&#x1e83;" horiz-adv-x="836" 
d="M670 480h189l-235 -480h-180l-30 281l-127 -281h-175l-73 480h169l31 -285l121 285h164l30 -285zM523 540h-173l113 150h193z" />
    <glyph glyph-name="wcircumflex" unicode="&#x175;" horiz-adv-x="836" 
d="M670 480h189l-235 -480h-180l-30 281l-127 -281h-175l-73 480h169l31 -285l121 285h164l30 -285zM402 690h150l95 -160h-149l-31 55l-49 -55h-161z" />
    <glyph glyph-name="wdieresis" unicode="&#x1e85;" horiz-adv-x="836" 
d="M670 480h189l-235 -480h-180l-30 281l-127 -281h-175l-73 480h169l31 -285l121 285h164l30 -285zM660 600c-6 -41 -46 -74 -89 -74c-51 0 -86 43 -78 96c7 41 46 74 89 74c51 0 86 -43 78 -96zM440 600c-6 -41 -46 -74 -89 -74c-51 0 -86 43 -78 96c7 41 46 74 89 74
c51 0 86 -43 78 -96z" />
    <glyph glyph-name="wgrave" unicode="&#x1e81;" horiz-adv-x="836" 
d="M670 480h189l-235 -480h-180l-30 281l-127 -281h-175l-73 480h169l31 -285l121 285h164l30 -285zM560 540h-167l-87 150h187z" />
    <glyph glyph-name="x" unicode="x" horiz-adv-x="551" 
d="M148 0h-200l227 253l-138 227h180l67 -114l95 114h200l-216 -241l145 -239h-180l-75 126z" />
    <glyph glyph-name="y" unicode="y" horiz-adv-x="576" 
d="M280 198l119 282h200l-283 -534c-76 -144 -156 -179 -244 -179c-36 0 -66 6 -97 18l22 139c20 -8 39 -12 59 -12c55 0 84 37 120 104l-147 464h180z" />
    <glyph glyph-name="yacute" unicode="&#xfd;" horiz-adv-x="576" 
d="M280 198l119 282h200l-283 -534c-76 -144 -156 -179 -244 -179c-36 0 -66 6 -97 18l22 139c20 -8 39 -12 59 -12c55 0 84 37 120 104l-147 464h180zM383 540h-173l113 150h193z" />
    <glyph glyph-name="ycircumflex" unicode="&#x177;" horiz-adv-x="576" 
d="M280 198l119 282h200l-283 -534c-76 -144 -156 -179 -244 -179c-36 0 -66 6 -97 18l22 139c20 -8 39 -12 59 -12c55 0 84 37 120 104l-147 464h180zM262 690h150l95 -160h-149l-31 55l-49 -55h-161z" />
    <glyph glyph-name="ydieresis" unicode="&#xff;" horiz-adv-x="576" 
d="M280 198l119 282h200l-283 -534c-76 -144 -156 -179 -244 -179c-36 0 -66 6 -97 18l22 139c20 -8 39 -12 59 -12c55 0 84 37 120 104l-147 464h180zM520 600c-6 -41 -46 -74 -89 -74c-51 0 -86 43 -78 96c7 41 46 74 89 74c51 0 86 -43 78 -96zM300 600
c-6 -41 -46 -74 -89 -74c-51 0 -86 43 -78 96c7 41 46 74 89 74c51 0 86 -43 78 -96z" />
    <glyph glyph-name="ygrave" unicode="&#x1ef3;" horiz-adv-x="576" 
d="M280 198l119 282h200l-283 -534c-76 -144 -156 -179 -244 -179c-36 0 -66 6 -97 18l22 139c20 -8 39 -12 59 -12c55 0 84 37 120 104l-147 464h180zM420 540h-167l-87 150h187z" />
    <glyph glyph-name="z" unicode="z" horiz-adv-x="492" 
d="M74 480h405l-15 -98l-230 -242h205l-22 -140h-434l16 100l228 240h-175z" />
    <glyph glyph-name="zacute" unicode="&#x17a;" horiz-adv-x="492" 
d="M74 480h405l-15 -98l-230 -242h205l-22 -140h-434l16 100l228 240h-175zM360 540h-173l113 150h193z" />
    <glyph glyph-name="zcaron" unicode="&#x17e;" horiz-adv-x="492" 
d="M74 480h405l-15 -98l-230 -242h205l-22 -140h-434l16 100l228 240h-175zM523 700l-155 -160h-150l-105 160h150l39 -65l62 65h159z" />
    <glyph glyph-name="zdotaccent" unicode="&#x17c;" horiz-adv-x="492" 
d="M74 480h405l-15 -98l-230 -242h205l-22 -140h-434l16 100l228 240h-175zM392 615c-9 -57 -52 -79 -98 -79c-54 0 -96 32 -85 101c9 56 52 79 98 79c54 0 96 -33 85 -101z" />
    <glyph glyph-name="a.ss01" horiz-adv-x="570" 
d="M481 132c-3 -18 6 -24 19 -24c9 0 17 1 28 4l-17 -109c-25 -9 -55 -13 -78 -13c-57 0 -97 22 -114 60c-40 -41 -90 -65 -165 -65c-93 0 -163 61 -155 149c11 125 130 157 225 157c40 0 76 -4 111 -10l3 21c5 35 -34 55 -93 55c-67 0 -120 -16 -171 -39l23 149
c40 13 101 28 173 28c162 0 259 -58 232 -229zM259 196c-37 0 -80 -8 -86 -50c-4 -28 19 -50 50 -50s60 9 88 35l10 59c-15 3 -36 6 -62 6z" />
    <glyph glyph-name="aacute.ss01" horiz-adv-x="570" 
d="M481 132c-3 -18 6 -24 19 -24c9 0 17 1 28 4l-17 -109c-25 -9 -55 -13 -78 -13c-57 0 -97 22 -114 60c-40 -41 -90 -65 -165 -65c-93 0 -163 61 -155 149c11 125 130 157 225 157c40 0 76 -4 111 -10l3 21c5 35 -34 55 -93 55c-67 0 -120 -16 -171 -39l23 149
c40 13 101 28 173 28c162 0 259 -58 232 -229zM259 196c-37 0 -80 -8 -86 -50c-4 -28 19 -50 50 -50s60 9 88 35l10 59c-15 3 -36 6 -62 6zM359 540h-173l113 150h193z" />
    <glyph glyph-name="abreve.ss01" horiz-adv-x="570" 
d="M481 132c-3 -18 6 -24 19 -24c9 0 17 1 28 4l-17 -109c-25 -9 -55 -13 -78 -13c-57 0 -97 22 -114 60c-40 -41 -90 -65 -165 -65c-93 0 -163 61 -155 149c11 125 130 157 225 157c40 0 76 -4 111 -10l3 21c5 35 -34 55 -93 55c-67 0 -120 -16 -171 -39l23 149
c40 13 101 28 173 28c162 0 259 -58 232 -229zM259 196c-37 0 -80 -8 -86 -50c-4 -28 19 -50 50 -50s60 9 88 35l10 59c-15 3 -36 6 -62 6zM457 560c-47 -29 -92 -46 -166 -46s-125 17 -164 46l20 126c49 -33 97 -42 154 -42s117 9 176 42z" />
    <glyph glyph-name="acircumflex.ss01" horiz-adv-x="570" 
d="M481 132c-3 -18 6 -24 19 -24c9 0 17 1 28 4l-17 -109c-25 -9 -55 -13 -78 -13c-57 0 -97 22 -114 60c-40 -41 -90 -65 -165 -65c-93 0 -163 61 -155 149c11 125 130 157 225 157c40 0 76 -4 111 -10l3 21c5 35 -34 55 -93 55c-67 0 -120 -16 -171 -39l23 149
c40 13 101 28 173 28c162 0 259 -58 232 -229zM259 196c-37 0 -80 -8 -86 -50c-4 -28 19 -50 50 -50s60 9 88 35l10 59c-15 3 -36 6 -62 6zM238 690h150l95 -160h-149l-31 55l-49 -55h-161z" />
    <glyph glyph-name="adieresis.ss01" horiz-adv-x="570" 
d="M481 132c-3 -18 6 -24 19 -24c9 0 17 1 28 4l-17 -109c-25 -9 -55 -13 -78 -13c-57 0 -97 22 -114 60c-40 -41 -90 -65 -165 -65c-93 0 -163 61 -155 149c11 125 130 157 225 157c40 0 76 -4 111 -10l3 21c5 35 -34 55 -93 55c-67 0 -120 -16 -171 -39l23 149
c40 13 101 28 173 28c162 0 259 -58 232 -229zM259 196c-37 0 -80 -8 -86 -50c-4 -28 19 -50 50 -50s60 9 88 35l10 59c-15 3 -36 6 -62 6zM496 600c-6 -41 -46 -74 -89 -74c-51 0 -86 43 -78 96c7 41 46 74 89 74c51 0 86 -43 78 -96zM276 600c-6 -41 -46 -74 -89 -74
c-51 0 -86 43 -78 96c7 41 46 74 89 74c51 0 86 -43 78 -96z" />
    <glyph glyph-name="agrave.ss01" horiz-adv-x="570" 
d="M481 132c-3 -18 6 -24 19 -24c9 0 17 1 28 4l-17 -109c-25 -9 -55 -13 -78 -13c-57 0 -97 22 -114 60c-40 -41 -90 -65 -165 -65c-93 0 -163 61 -155 149c11 125 130 157 225 157c40 0 76 -4 111 -10l3 21c5 35 -34 55 -93 55c-67 0 -120 -16 -171 -39l23 149
c40 13 101 28 173 28c162 0 259 -58 232 -229zM259 196c-37 0 -80 -8 -86 -50c-4 -28 19 -50 50 -50s60 9 88 35l10 59c-15 3 -36 6 -62 6zM396 540h-167l-87 150h187z" />
    <glyph glyph-name="amacron.ss01" horiz-adv-x="570" 
d="M481 132c-3 -18 6 -24 19 -24c9 0 17 1 28 4l-17 -109c-25 -9 -55 -13 -78 -13c-57 0 -97 22 -114 60c-40 -41 -90 -65 -165 -65c-93 0 -163 61 -155 149c11 125 130 157 225 157c40 0 76 -4 111 -10l3 21c5 35 -34 55 -93 55c-67 0 -120 -16 -171 -39l23 149
c40 13 101 28 173 28c162 0 259 -58 232 -229zM259 196c-37 0 -80 -8 -86 -50c-4 -28 19 -50 50 -50s60 9 88 35l10 59c-15 3 -36 6 -62 6zM144 678h340l-21 -130h-340z" />
    <glyph glyph-name="aogonek.ss01" horiz-adv-x="570" 
d="M528 112l-17 -109c-44 -26 -77 -65 -77 -89c0 -13 8 -21 28 -21c10 0 22 3 33 8l-18 -115c-27 -13 -53 -18 -85 -18c-83 0 -122 53 -111 117c7 36 35 80 89 116c-24 10 -41 27 -51 49c-40 -41 -90 -65 -165 -65c-93 0 -163 61 -155 149c11 125 130 157 225 157
c40 0 76 -4 111 -10l3 21c5 35 -34 55 -93 55c-67 0 -120 -16 -171 -39l23 149c40 13 101 28 173 28c162 0 259 -58 232 -229l-21 -134c-3 -18 6 -24 19 -24c9 0 17 1 28 4zM223 96c31 0 60 9 88 35l10 59c-15 3 -36 6 -62 6c-37 0 -80 -8 -86 -50c-4 -28 19 -50 50 -50z
" />
    <glyph glyph-name="aring.ss01" horiz-adv-x="570" 
d="M481 132c-3 -18 6 -24 19 -24c9 0 17 1 28 4l-17 -109c-25 -9 -55 -13 -78 -13c-57 0 -97 22 -114 60c-40 -41 -90 -65 -165 -65c-93 0 -163 61 -155 149c11 125 130 157 225 157c40 0 76 -4 111 -10l3 21c5 35 -34 55 -93 55c-67 0 -120 -16 -171 -39l23 149
c40 13 101 28 173 28c162 0 259 -58 232 -229zM259 196c-37 0 -80 -8 -86 -50c-4 -28 19 -50 50 -50s60 9 88 35l10 59c-15 3 -36 6 -62 6zM433 625c-12 -75 -74 -115 -140 -115c-63 0 -130 50 -117 137c12 72 75 113 140 113c64 0 130 -51 117 -135zM269 638
c-3 -25 12 -38 32 -38c19 0 36 11 39 32c4 24 -12 38 -32 38c-18 0 -36 -11 -39 -32z" />
    <glyph glyph-name="atilde.ss01" horiz-adv-x="570" 
d="M481 132c-3 -18 6 -24 19 -24c9 0 17 1 28 4l-17 -109c-25 -9 -55 -13 -78 -13c-57 0 -97 22 -114 60c-40 -41 -90 -65 -165 -65c-93 0 -163 61 -155 149c11 125 130 157 225 157c40 0 76 -4 111 -10l3 21c5 35 -34 55 -93 55c-67 0 -120 -16 -171 -39l23 149
c40 13 101 28 173 28c162 0 259 -58 232 -229zM259 196c-37 0 -80 -8 -86 -50c-4 -28 19 -50 50 -50s60 9 88 35l10 59c-15 3 -36 6 -62 6zM486 684c10 -93 -41 -157 -115 -157c-61 0 -109 42 -137 42c-24 0 -28 -31 -26 -36h-116c-10 93 41 157 115 157
c61 0 109 -42 137 -42c24 0 28 31 26 36h116z" />
    <glyph glyph-name="ae.ss01" horiz-adv-x="842" 
d="M377 58c-55 -45 -119 -73 -209 -73c-111 0 -177 62 -169 151c11 124 130 155 225 155c40 0 76 -4 111 -10l3 21c5 35 -34 55 -93 55c-57 0 -120 -16 -171 -39l23 149c40 13 111 28 173 28c86 0 140 -16 167 -57c50 40 111 57 162 57c177 0 256 -138 194 -307h-316
c11 -55 70 -74 135 -74s113 10 150 28l-20 -130c-39 -16 -96 -28 -174 -28c-86 0 -151 26 -191 74zM174 147c-5 -27 15 -51 52 -51c39 0 78 15 111 44c-3 15 -5 30 -5 47c-27 6 -49 9 -74 9c-27 0 -77 -5 -84 -49zM590 371c-51 0 -90 -36 -98 -81h162c9 28 0 81 -64 81z" />
    <glyph glyph-name="y.ss01" horiz-adv-x="591" 
d="M497 15c-30 -194 -165 -250 -311 -250c-76 0 -146 20 -193 48l22 138c44 -31 98 -46 154 -46c76 0 145 29 158 110l3 19c-37 -32 -81 -49 -133 -49c-126 0 -185 94 -168 202l46 293h170l-44 -280c-8 -51 17 -70 54 -70c42 0 78 24 97 46l48 304h170z" />
    <glyph glyph-name="yacute.ss01" horiz-adv-x="591" 
d="M497 15c-30 -194 -165 -250 -311 -250c-76 0 -146 20 -193 48l22 138c44 -31 98 -46 154 -46c76 0 145 29 158 110l3 19c-37 -32 -81 -49 -133 -49c-126 0 -185 94 -168 202l46 293h170l-44 -280c-8 -51 17 -70 54 -70c42 0 78 24 97 46l48 304h170zM392 540h-173
l113 150h193z" />
    <glyph glyph-name="ycircumflex.ss01" horiz-adv-x="591" 
d="M497 15c-30 -194 -165 -250 -311 -250c-76 0 -146 20 -193 48l22 138c44 -31 98 -46 154 -46c76 0 145 29 158 110l3 19c-37 -32 -81 -49 -133 -49c-126 0 -185 94 -168 202l46 293h170l-44 -280c-8 -51 17 -70 54 -70c42 0 78 24 97 46l48 304h170zM271 690h150l95 -160
h-149l-31 55l-49 -55h-161z" />
    <glyph glyph-name="ydieresis.ss01" horiz-adv-x="591" 
d="M497 15c-30 -194 -165 -250 -311 -250c-76 0 -146 20 -193 48l22 138c44 -31 98 -46 154 -46c76 0 145 29 158 110l3 19c-37 -32 -81 -49 -133 -49c-126 0 -185 94 -168 202l46 293h170l-44 -280c-8 -51 17 -70 54 -70c42 0 78 24 97 46l48 304h170zM529 600
c-6 -41 -46 -74 -89 -74c-51 0 -86 43 -78 96c7 41 46 74 89 74c51 0 86 -43 78 -96zM309 600c-6 -41 -46 -74 -89 -74c-51 0 -86 43 -78 96c7 41 46 74 89 74c51 0 86 -43 78 -96z" />
    <glyph glyph-name="ygrave.ss01" horiz-adv-x="591" 
d="M497 15c-30 -194 -165 -250 -311 -250c-76 0 -146 20 -193 48l22 138c44 -31 98 -46 154 -46c76 0 145 29 158 110l3 19c-37 -32 -81 -49 -133 -49c-126 0 -185 94 -168 202l46 293h170l-44 -280c-8 -51 17 -70 54 -70c42 0 78 24 97 46l48 304h170zM429 540h-167
l-87 150h187z" />
    <glyph glyph-name="f_b" horiz-adv-x="1015" 
d="M637 438c40 37 90 57 145 57c150 0 218 -136 197 -266c-18 -118 -102 -244 -264 -244c-84 0 -136 45 -152 88l-15 -73h-150l89 561c-25 9 -52 14 -79 14c-49 0 -91 -21 -102 -79l-3 -16h118l-22 -140h-118l-54 -340h-170l54 340h-79l22 140h79l5 30
c23 144 133 205 240 205c66 0 117 -12 161 -30l141 21zM674 125c76 0 124 54 133 116c8 54 -11 114 -77 114c-49 0 -92 -30 -116 -64l-17 -109c10 -33 36 -57 77 -57z" />
    <glyph glyph-name="f_f_b" horiz-adv-x="1349" 
d="M971 438c40 37 90 57 145 57c150 0 218 -136 197 -266c-18 -118 -102 -244 -264 -244c-84 0 -136 45 -152 88l-15 -73h-150l91 571c-24 9 -50 14 -73 14c-56 0 -99 -26 -108 -79l-4 -26h118l-22 -140h-118l-54 -340h-170l54 340h-165l-54 -340h-170l54 340h-79l22 140h79
l3 21c24 151 139 204 251 204c60 0 109 -9 165 -38c45 40 105 58 163 58c66 0 116 -12 160 -30l141 21zM468 480l6 40c2 13 5 25 8 37c-22 9 -47 13 -76 13c-56 0 -93 -31 -101 -80l-2 -10h165zM1008 125c76 0 124 54 133 116c8 54 -11 114 -77 114c-49 0 -92 -30 -116 -64
l-17 -109c10 -33 36 -57 77 -57z" />
    <glyph glyph-name="f_f_h" horiz-adv-x="1319" 
d="M973 445c39 29 89 50 136 50c126 0 183 -94 166 -202l-47 -293h-170l44 280c8 50 -16 70 -53 70c-41 0 -77 -26 -98 -47l-48 -303h-170l90 571c-24 9 -50 14 -73 14c-56 0 -99 -26 -108 -79l-4 -26h118l-22 -140h-118l-54 -340h-170l54 340h-165l-54 -340h-170l54 340
h-79l22 140h79l3 21c24 151 139 204 251 204c60 0 109 -9 165 -38c45 40 105 58 163 58c66 0 116 -12 160 -30l142 21zM468 480l6 40c2 13 5 25 8 37c-22 9 -47 13 -76 13c-56 0 -93 -31 -101 -80l-2 -10h165z" />
    <glyph glyph-name="f_f_j" horiz-adv-x="991" 
d="M882 -72c-21 -131 -98 -163 -193 -163c-35 0 -64 8 -83 17l22 137c10 -4 21 -6 37 -6c29 0 47 17 54 64l58 363h-161l-54 -340h-170l54 340h-165l-54 -340h-170l54 340h-79l22 140h79l3 21c24 151 139 204 261 204c50 0 101 -9 152 -36c52 46 124 66 202 66
c63 0 123 -12 176 -31l-22 -135c-42 18 -92 26 -133 26c-67 0 -119 -28 -129 -86l-5 -29h331zM305 490l-2 -10h165l6 40c2 13 5 25 8 37c-23 9 -48 13 -76 13c-56 0 -93 -31 -101 -80z" />
    <glyph glyph-name="f_f_k" horiz-adv-x="1291" 
d="M1128 480h192l-202 -246l126 -234h-175l-94 182h-43l-29 -182h-170l90 571c-24 9 -50 14 -73 14c-56 0 -99 -26 -108 -79l-4 -26h118l-22 -140h-118l-54 -340h-170l54 340h-165l-54 -340h-170l54 340h-79l22 140h79l3 21c24 151 139 204 251 204c60 0 109 -9 165 -38
c45 40 105 58 163 58c66 0 116 -12 160 -30l142 21l-64 -404h43zM468 480l6 40c2 13 5 25 8 37c-22 9 -47 13 -76 13c-56 0 -93 -31 -101 -80l-2 -10h165z" />
    <glyph glyph-name="f_h" horiz-adv-x="984" 
d="M638 445c39 29 89 50 136 50c126 0 183 -94 166 -202l-47 -293h-170l44 280c8 50 -16 70 -53 70c-41 0 -77 -26 -98 -47l-48 -303h-170l89 561c-25 9 -52 14 -79 14c-49 0 -91 -21 -102 -79l-3 -16h118l-22 -140h-118l-54 -340h-170l54 340h-79l22 140h79l5 30
c23 144 133 205 240 205c66 0 117 -12 161 -30l141 21z" />
    <glyph glyph-name="f_i" horiz-adv-x="636" 
d="M227 0h-170l54 340h-79l22 140h79l3 20c25 154 140 215 277 215c63 0 123 -12 176 -31l-22 -135c-42 18 -92 26 -133 26c-67 0 -120 -28 -129 -86l-2 -9h311l-76 -480h-170l54 340h-141z" />
    <glyph glyph-name="f_j" horiz-adv-x="636" 
d="M527 -72c-21 -131 -98 -163 -193 -163c-35 0 -64 8 -83 17l22 137c10 -4 21 -6 37 -6c29 0 47 17 54 64l58 363h-141l-54 -340h-170l54 340h-79l22 140h79l3 20c25 154 140 215 277 215c63 0 123 -12 176 -31l-22 -135c-42 18 -92 26 -133 26c-67 0 -120 -28 -129 -86
l-2 -9h311z" />
    <glyph glyph-name="f_k" horiz-adv-x="956" 
d="M793 480h192l-202 -246l126 -234h-175l-94 182h-43l-29 -182h-170l89 561c-25 9 -52 14 -79 14c-49 0 -91 -21 -102 -79l-3 -16h118l-22 -140h-118l-54 -340h-170l54 340h-79l22 140h79l5 30c23 144 133 205 240 205c66 0 117 -12 161 -30l141 21l-63 -394h44z" />
    <glyph glyph-name="f_l" horiz-adv-x="666" 
d="M378 715c66 0 117 -12 161 -30l141 21l-112 -706h-170l89 561c-25 9 -52 14 -79 14c-49 0 -91 -21 -102 -79l-3 -16h118l-22 -140h-118l-54 -340h-170l54 340h-79l22 140h79l5 30c23 144 133 205 240 205z" />
    <glyph glyph-name="uni0410" unicode="&#x410;" horiz-adv-x="752" 
d="M705 0h-186l-23 110h-290l-57 -110h-194l386 700h200zM388 458l-103 -198h180l-38 196c-4 19 -7 43 -8 77c-11 -33 -20 -55 -31 -75z" />
    <glyph glyph-name="uni0411" unicode="&#x411;" horiz-adv-x="680" 
d="M277 452h134c132 0 262 -56 233 -237c-27 -169 -155 -215 -297 -215h-327l111 700h531l-26 -165h-346zM230 160h132c43 0 86 17 94 67c9 58 -32 65 -75 65h-130z" />
    <glyph glyph-name="uni0412" unicode="&#x412;" horiz-adv-x="684" 
d="M131 700h302c143 0 249 -61 229 -188c-11 -71 -51 -119 -126 -144c67 -21 119 -78 103 -181c-24 -153 -168 -187 -311 -187h-308zM459 214c12 59 -25 77 -79 77h-130l-23 -146h122c56 0 100 18 110 69zM475 486c9 44 -13 69 -64 69h-119l-20 -129l111 -1
c49 0 85 25 92 61z" />
    <glyph glyph-name="uni0413" unicode="&#x413;" horiz-adv-x="583" 
d="M205 0h-185l111 700h505l-26 -165h-320z" />
    <glyph glyph-name="uni0414" unicode="&#x414;" horiz-adv-x="829" 
d="M113 -145h-160l48 305h79c116 145 168 355 198 540h499l-86 -540h90l-48 -305h-160l23 145h-460zM425 535c-32 -140 -71 -278 -142 -375h223l60 375h-141z" />
    <glyph glyph-name="uni0415" unicode="&#x415;" horiz-adv-x="616" 
d="M131 700h504l-25 -160h-320l-17 -107h290l-25 -159h-290l-18 -114h325l-25 -160h-510z" />
    <glyph glyph-name="uni0401" unicode="&#x401;" horiz-adv-x="616" 
d="M597 820c-6 -41 -46 -74 -89 -74c-51 0 -86 43 -78 96c7 41 46 74 89 74c51 0 86 -43 78 -96zM377 820c-6 -41 -46 -74 -89 -74c-51 0 -86 43 -78 96c7 41 46 74 89 74c51 0 86 -43 78 -96zM131 700h504l-25 -160h-320l-17 -107h290l-25 -159h-290l-18 -114h325l-25 -160
h-510z" />
    <glyph glyph-name="uni0416" unicode="&#x416;" horiz-adv-x="1015" 
d="M866 700h202l-247 -352l144 -348h-183l-110 270h-75l-43 -270h-185l43 270h-65l-189 -270h-202l258 359l-135 341h188l103 -265h68l42 265h185l-42 -265h67z" />
    <glyph glyph-name="uni0417" unicode="&#x417;" horiz-adv-x="625" 
d="M576 180c-25 -153 -169 -195 -318 -195c-81 0 -166 13 -262 48l26 162c84 -32 159 -46 231 -45c70 1 134 19 144 74c7 40 -25 55 -71 55h-180l27 160l140 -1c62 0 95 18 101 53c7 40 -32 59 -100 59c-60 0 -136 -14 -236 -58l28 178c87 36 170 45 233 45
c157 0 283 -68 261 -205c-11 -67 -54 -116 -132 -141c70 -23 124 -83 108 -189z" />
    <glyph glyph-name="uni0418" unicode="&#x418;" horiz-adv-x="762" 
d="M761 700l-111 -700h-185l46 285c5 34 12 67 21 100l-349 -385h-163l111 700h185l-45 -285c-5 -34 -12 -68 -20 -100l347 385h163z" />
    <glyph glyph-name="uni0419" unicode="&#x419;" horiz-adv-x="762" 
d="M761 700l-111 -700h-185l46 285c5 34 12 67 21 100l-349 -385h-163l111 700h185l-45 -285c-5 -34 -12 -68 -20 -100l347 385h163zM633 780c-47 -29 -92 -46 -166 -46s-125 17 -164 46l20 126c49 -33 97 -42 154 -42s117 9 176 42z" />
    <glyph glyph-name="uni041A" unicode="&#x41a;" horiz-adv-x="706" 
d="M567 700h203l-273 -357l168 -343h-197l-127 270h-93l-43 -270h-185l111 700h185l-42 -265h93z" />
    <glyph glyph-name="uni041B" unicode="&#x41b;" horiz-adv-x="750" 
d="M245 700h504l-111 -700h-185l85 535h-146c-58 -268 -116 -544 -331 -544c-44 0 -72 6 -100 19l25 157c12 -5 30 -7 49 -5c126 13 175 356 210 538z" />
    <glyph glyph-name="uni041C" unicode="&#x41c;" horiz-adv-x="908" 
d="M720 700h187l-111 -700h-185l59 371l-172 -215h-126l-106 218l-61 -374h-185l111 700h168l160 -328z" />
    <glyph glyph-name="uni041D" unicode="&#x41d;" horiz-adv-x="762" 
d="M576 700h185l-111 -700h-185l42 267h-260l-42 -267h-185l111 700h185l-42 -268h260z" />
    <glyph glyph-name="uni041E" unicode="&#x41e;" horiz-adv-x="812" 
d="M789 339c-30 -189 -182 -354 -423 -354c-244 0 -356 175 -324 376c30 189 182 354 423 354c234 0 356 -175 324 -376zM229 344c-17 -106 31 -189 148 -189c125 0 207 83 225 201c17 106 -31 189 -148 189c-125 0 -206 -83 -225 -201z" />
    <glyph glyph-name="uni041F" unicode="&#x41f;" horiz-adv-x="762" 
d="M205 0h-185l111 700h630l-111 -700h-185l85 535h-260z" />
    <glyph glyph-name="uni0420" unicode="&#x420;" horiz-adv-x="670" 
d="M131 700h273c163 0 299 -61 269 -251c-28 -178 -153 -229 -331 -229h-102l-35 -220h-185zM485 461c11 67 -38 79 -89 79h-105l-26 -160h103c62 0 108 22 117 81z" />
    <glyph glyph-name="uni0421" unicode="&#x421;" horiz-adv-x="653" 
d="M42 361c39 248 263 354 428 354c80 0 144 -17 202 -52l-26 -163c-36 33 -93 53 -153 53c-105 0 -240 -53 -264 -209c-21 -132 77 -196 182 -196c71 0 141 24 194 60l-29 -181c-61 -29 -132 -42 -201 -42c-186 0 -373 120 -333 376z" />
    <glyph glyph-name="uni0422" unicode="&#x422;" horiz-adv-x="605" 
d="M77 700h580l-26 -165h-197l-85 -535h-185l85 535h-198z" />
    <glyph glyph-name="uni0423" unicode="&#x423;" horiz-adv-x="680" 
d="M411 155c-85 -135 -155 -170 -246 -170c-50 0 -87 7 -121 20l24 152c23 -9 52 -14 75 -14c36 0 68 17 94 50l17 22l-195 485h197l110 -329l180 329h203z" />
    <glyph glyph-name="uni0424" unicode="&#x424;" horiz-adv-x="883" 
d="M479 -40h-175l17 86c-180 16 -324 126 -294 315c29 178 168 287 387 293l14 86h175l-14 -86c177 -18 314 -128 285 -315c-28 -176 -165 -285 -381 -293zM209 349c-10 -60 10 -141 133 -153l48 306c-127 -12 -170 -82 -181 -153zM566 504l-49 -306c123 14 164 82 175 153
c10 60 -8 139 -126 153z" />
    <glyph glyph-name="uni0425" unicode="&#x425;" horiz-adv-x="691" 
d="M159 0h-219l310 359l-180 341h208l95 -196l164 196h219l-291 -337l191 -363h-208l-105 220z" />
    <glyph glyph-name="uni0427" unicode="&#x427;" horiz-adv-x="700" 
d="M588 0h-185l38 241c-56 -21 -112 -29 -158 -29c-146 0 -250 83 -224 247l38 241h185l-38 -241c-10 -62 34 -80 96 -80c43 0 85 9 127 27l47 294h185z" />
    <glyph glyph-name="uni0426" unicode="&#x426;" horiz-adv-x="814" 
d="M717 -145h-160l23 145h-560l111 700h185l-85 -535h260l85 535h185l-85 -535h90z" />
    <glyph glyph-name="uni0428" unicode="&#x428;" horiz-adv-x="1047" 
d="M935 0h-915l111 700h185l-85 -535h180l85 535h185l-85 -535h180l85 535h185z" />
    <glyph glyph-name="uni0429" unicode="&#x429;" horiz-adv-x="1099" 
d="M1002 -145h-160l23 145h-845l111 700h185l-85 -535h180l85 535h185l-85 -535h180l85 535h185l-85 -535h90z" />
    <glyph glyph-name="uni042F" unicode="&#x42f;" horiz-adv-x="704" 
d="M176 0h-217l238 263c-80 38 -129 108 -112 207c26 169 172 230 319 230h299l-111 -700h-185l36 228h-61zM273 464c-10 -58 24 -86 82 -86h112l26 162h-104c-63 0 -108 -26 -116 -76z" />
    <glyph glyph-name="uni042C" unicode="&#x42c;" horiz-adv-x="669" 
d="M301 0h-281l111 700h185l-35 -220h88c163 0 299 -61 269 -251c-28 -178 -154 -229 -337 -229zM256 320l-26 -160h97c56 0 114 12 125 81c9 57 -35 79 -91 79h-105z" />
    <glyph glyph-name="uni042A" unicode="&#x42a;" horiz-adv-x="776" 
d="M408 0h-281l85 535h-160l26 165h345l-35 -220h88c163 0 299 -61 269 -251c-28 -178 -154 -229 -337 -229zM363 320l-26 -160h97c56 0 114 12 125 81c9 57 -35 79 -91 79h-105z" />
    <glyph glyph-name="uni042B" unicode="&#x42b;" horiz-adv-x="944" 
d="M301 0h-281l111 700h185l-35 -220h88c163 0 299 -61 269 -251c-28 -178 -154 -229 -337 -229zM256 320l-26 -160h97c56 0 114 12 125 81c9 57 -35 79 -91 79h-105zM832 0h-185l111 700h185z" />
    <glyph glyph-name="uni042D" unicode="&#x42d;" horiz-adv-x="652" 
d="M102 669c58 33 131 46 198 46c183 0 369 -116 326 -386c-38 -244 -231 -344 -429 -344c-73 0 -140 17 -196 46l27 168c41 -30 92 -49 161 -49c97 0 199 27 241 126h-290l24 155h290c-13 102 -105 118 -182 119c-73 1 -146 -20 -198 -58z" />
    <glyph glyph-name="uni042E" unicode="&#x42e;" horiz-adv-x="1112" 
d="M1089 339c-30 -189 -182 -354 -423 -354c-205 0 -310 124 -319 283h-100l-42 -268h-185l111 700h185l-43 -267h96c51 157 186 282 396 282c234 0 356 -175 324 -376zM529 344c-17 -106 31 -189 148 -189c125 0 207 83 225 201c17 106 -31 189 -148 189
c-125 0 -206 -83 -225 -201z" />
    <glyph glyph-name="uni0414.loclBGR" horiz-adv-x="856" 
d="M117 -145h-160l48 305h86l299 540h205l132 -540h83l-48 -305h-160l23 145h-485zM469 512l-184 -352h255z" />
    <glyph glyph-name="uni041B.loclBGR" horiz-adv-x="720" 
d="M-44 0l374 700h190l152 -700h-198l-81 475l-230 -475h-207z" />
    <glyph glyph-name="uni0424.loclBGR" horiz-adv-x="910" 
d="M484 -90h-175l15 92c-199 17 -313 180 -283 369c28 177 164 320 393 327l16 92h175l-16 -92c197 -19 309 -181 279 -369c-28 -176 -159 -318 -389 -327zM223 359c-10 -60 -7 -191 126 -201l61 384c-137 -10 -176 -111 -187 -183zM584 542l-60 -382
c129 12 171 120 182 191c10 59 7 179 -122 191z" />
    <glyph glyph-name="uni0430" unicode="&#x430;" horiz-adv-x="622" 
d="M385 65c-30 -44 -85 -80 -167 -80c-160 0 -219 136 -198 266c19 118 106 244 263 244c85 0 136 -47 156 -93l12 78h150l-76 -480h-150zM191 235c-8 -50 11 -110 79 -110c53 0 93 32 115 64l18 109c-8 33 -38 57 -81 57c-76 0 -121 -58 -131 -120z" />
    <glyph glyph-name="uni0431" unicode="&#x431;" horiz-adv-x="582" 
d="M540 204c-23 -149 -141 -219 -286 -219c-133 0 -256 80 -220 306c27 171 100 262 191 319c155 83 277 46 352 109l-19 -158c-71 -56 -150 -26 -236 -69c-55 -21 -94 -80 -101 -115c34 40 82 68 150 68c113 0 194 -85 169 -241zM196 204c-2 -28 -2 -89 69 -89
c79 0 100 71 103 111c2 28 2 89 -69 89c-79 0 -99 -71 -103 -111z" />
    <glyph glyph-name="uni0432" unicode="&#x432;" horiz-adv-x="549" 
d="M314 0h-310l76 480h294c120 0 155 -76 146 -136c-9 -52 -36 -84 -95 -106c52 -17 79 -58 69 -121c-9 -56 -50 -117 -180 -117zM205 194l-13 -86h74c32 0 59 9 65 45c4 26 -14 41 -44 41h-82zM234 372l-14 -86h64c32 0 59 10 65 46c4 26 -14 40 -44 40h-71z" />
    <glyph glyph-name="uni0433" unicode="&#x433;" horiz-adv-x="438" 
d="M174 0h-170l76 480h374l-22 -140h-204z" />
    <glyph glyph-name="uni0434" unicode="&#x434;" horiz-adv-x="662" 
d="M107 -125h-155l40 250h68c71 102 103 217 121 355h414l-56 -355h73l-40 -250h-155l20 125h-310zM315 355c-18 -98 -37 -166 -79 -230h138l37 230h-96z" />
    <glyph glyph-name="uni0435" unicode="&#x435;" horiz-adv-x="543" 
d="M20 253c26 177 167 242 278 242c200 0 251 -162 198 -306h-316c11 -55 70 -74 135 -74s113 10 150 28l-20 -130c-39 -16 -96 -28 -174 -28c-158 0 -276 100 -251 268zM357 291c9 28 0 81 -64 81c-51 0 -90 -36 -98 -81h162z" />
    <glyph glyph-name="uni0451" unicode="&#x451;" horiz-adv-x="543" 
d="M511 600c-6 -41 -46 -74 -89 -74c-51 0 -86 43 -78 96c7 41 46 74 89 74c51 0 86 -43 78 -96zM291 600c-6 -41 -46 -74 -89 -74c-51 0 -86 43 -78 96c7 41 46 74 89 74c51 0 86 -43 78 -96zM20 253c26 177 167 242 278 242c200 0 251 -162 198 -306h-316
c11 -55 70 -74 135 -74s113 10 150 28l-20 -130c-39 -16 -96 -28 -174 -28c-158 0 -276 100 -251 268zM357 291c9 28 0 81 -64 81c-51 0 -90 -36 -98 -81h162z" />
    <glyph glyph-name="uni0436" unicode="&#x436;" horiz-adv-x="814" 
d="M134 0h-182l194 248l-101 232h163l77 -183h38l29 183h170l-29 -183h41l117 183h182l-178 -258l105 -222h-168l-78 167h-42l-26 -167h-170l26 167h-45z" />
    <glyph glyph-name="uni0437" unicode="&#x437;" horiz-adv-x="498" 
d="M443 124c-10 -61 -72 -138 -266 -139c-88 0 -150 21 -188 45l19 123c36 -24 95 -43 151 -43c62 0 109 10 115 49c5 34 -44 37 -81 37h-89l15 94h71c55 0 96 8 102 44c3 19 -10 37 -66 37c-64 0 -135 -18 -181 -42l20 128c51 25 117 38 187 38c180 0 226 -87 215 -155
c-8 -50 -45 -82 -92 -96c51 -17 77 -59 68 -120z" />
    <glyph glyph-name="uni0438" unicode="&#x438;" horiz-adv-x="591" 
d="M155 0h-151l76 480h170l-35 -219l204 219h151l-76 -480h-170l34 217z" />
    <glyph glyph-name="uni0439" unicode="&#x439;" horiz-adv-x="591" 
d="M505 576c-37 -24 -92 -46 -166 -46s-125 22 -164 46l19 121c49 -28 97 -42 154 -42s119 12 176 42zM155 0h-151l76 480h170l-35 -219l204 219h151l-76 -480h-170l34 217z" />
    <glyph glyph-name="uni043A" unicode="&#x43a;" horiz-adv-x="561" 
d="M174 0h-170l76 480h170l-27 -168h38l132 168h195l-200 -244l127 -236h-175l-94 182h-43z" />
    <glyph glyph-name="uni043B" unicode="&#x43b;" horiz-adv-x="588" 
d="M293 350c-39 -203 -93 -361 -238 -361c-29 0 -60 2 -90 13l22 139c10 -6 22 -8 36 -7c69 6 106 154 135 346h409l-76 -480h-170l55 350h-83z" />
    <glyph glyph-name="uni043C" unicode="&#x43c;" horiz-adv-x="687" 
d="M170 0h-166l76 480h153l99 -223l173 223h161l-76 -480h-166l39 240l-114 -147h-73l-67 150z" />
    <glyph glyph-name="uni043D" unicode="&#x43d;" horiz-adv-x="591" 
d="M174 0h-170l76 480h170l-27 -170h150l27 170h170l-76 -480h-170l27 170h-150z" />
    <glyph glyph-name="uni043E" unicode="&#x43e;" horiz-adv-x="594" 
d="M557 224c-26 -164 -170 -239 -300 -239c-148 0 -264 95 -236 271c26 164 161 239 301 239c138 0 263 -95 235 -271zM192 239c-7 -48 7 -104 79 -104c68 0 105 46 115 106c7 48 -6 104 -77 104c-69 0 -107 -46 -117 -106z" />
    <glyph glyph-name="uni043F" unicode="&#x43f;" horiz-adv-x="591" 
d="M174 0h-170l76 480h490l-76 -480h-170l54 340h-150z" />
    <glyph glyph-name="uni0440" unicode="&#x440;" horiz-adv-x="622" 
d="M221 417c30 42 90 78 168 78c150 0 218 -136 197 -266c-18 -118 -105 -244 -262 -244c-71 0 -116 28 -142 63l-42 -268h-170l111 700h150zM415 246c8 50 -11 109 -79 109c-51 0 -93 -34 -115 -66l-18 -110c9 -30 38 -54 81 -54c76 0 121 59 131 121z" />
    <glyph glyph-name="uni0441" unicode="&#x441;" horiz-adv-x="495" 
d="M19 246c29 183 187 250 310 250c58 0 111 -13 154 -39l-22 -136c-31 19 -70 30 -113 30c-71 0 -144 -34 -156 -117c-11 -74 43 -104 107 -104c52 0 99 12 142 32l-23 -147c-49 -21 -101 -30 -161 -30c-139 0 -267 79 -238 261z" />
    <glyph glyph-name="uni0442" unicode="&#x442;" horiz-adv-x="478" 
d="M278 0h-170l54 340h-140l22 140h450l-22 -140h-140z" />
    <glyph glyph-name="uni0443" unicode="&#x443;" horiz-adv-x="576" 
d="M280 198l119 282h200l-283 -534c-76 -144 -156 -179 -244 -179c-36 0 -66 6 -97 18l22 139c20 -8 39 -12 59 -12c55 0 84 37 120 104l-147 464h180z" />
    <glyph glyph-name="uni0444" unicode="&#x444;" horiz-adv-x="760" 
d="M379 -220h-160l33 206c-134 6 -258 106 -233 265c23 147 139 237 313 244l33 205h160l-33 -206c138 -6 259 -106 233 -265c-23 -147 -144 -237 -314 -244zM185 239c-7 -46 8 -108 88 -114l37 230c-75 -6 -116 -59 -125 -116zM470 355l-36 -230c79 6 116 59 125 116
c7 46 -12 108 -89 114z" />
    <glyph glyph-name="uni0445" unicode="&#x445;" horiz-adv-x="551" 
d="M148 0h-200l227 253l-138 227h180l67 -114l95 114h200l-216 -241l145 -239h-180l-75 126z" />
    <glyph glyph-name="uni0447" unicode="&#x447;" horiz-adv-x="548" 
d="M451 0h-170l22 139c-34 -12 -64 -16 -106 -16c-93 0 -188 51 -168 179l28 178h170l-26 -164c-6 -42 21 -53 48 -53c26 0 54 5 77 17l31 200h170z" />
    <glyph glyph-name="uni0446" unicode="&#x446;" horiz-adv-x="638" 
d="M548 -125h-156l20 125h-408l76 480h170l-54 -340h150l54 340h170l-54 -345h73z" />
    <glyph glyph-name="uni0448" unicode="&#x448;" horiz-adv-x="811" 
d="M714 0h-710l76 480h170l-54 -340h100l54 340h170l-54 -340h100l54 340h170z" />
    <glyph glyph-name="uni0449" unicode="&#x449;" horiz-adv-x="858" 
d="M767 -125h-155l20 125h-628l76 480h170l-54 -340h100l54 340h170l-54 -340h100l54 340h170l-54 -345h73z" />
    <glyph glyph-name="uni044F" unicode="&#x44f;" horiz-adv-x="560" 
d="M155 0h-193l153 170c-47 30 -73 79 -61 151c12 78 79 159 219 159h266l-76 -480h-170l21 130h-40zM224 303c-4 -28 14 -58 53 -58h55l17 110h-47c-43 0 -72 -16 -78 -52z" />
    <glyph glyph-name="uni044C" unicode="&#x44c;" horiz-adv-x="527" 
d="M270 0h-266l76 480h170l-22 -140h88c120 0 189 -81 173 -181c-14 -88 -89 -159 -219 -159zM209 225l-17 -110h42c51 0 78 18 84 56c4 26 -12 54 -58 54h-51z" />
    <glyph glyph-name="uni044A" unicode="&#x44a;" horiz-adv-x="610" 
d="M353 0h-266l55 350h-119l20 130h290l-22 -140h88c120 0 189 -81 173 -181c-14 -88 -89 -159 -219 -159zM292 225l-17 -110h42c51 0 78 18 84 56c4 26 -12 54 -58 54h-51z" />
    <glyph glyph-name="uni044B" unicode="&#x44b;" horiz-adv-x="801" 
d="M270 0h-266l76 480h170l-22 -140h88c120 0 189 -81 173 -181c-14 -88 -89 -159 -219 -159zM209 225l-17 -110h42c51 0 78 18 84 56c4 26 -12 54 -58 54h-51zM704 0h-170l76 480h170z" />
    <glyph glyph-name="uni044D" unicode="&#x44d;" horiz-adv-x="502" 
d="M464 219c-27 -167 -165 -234 -292 -234c-85 0 -127 15 -179 45l19 117c32 -24 81 -37 127 -37c74 0 127 25 153 73h-189l19 120h191c-11 50 -62 67 -117 67c-54 0 -113 -18 -156 -44l20 127c51 29 100 42 162 42c135 0 273 -82 242 -276z" />
    <glyph glyph-name="uni044E" unicode="&#x44e;" horiz-adv-x="841" 
d="M805 224c-26 -164 -170 -239 -300 -239c-115 0 -215 66 -229 190h-74l-28 -175h-170l76 480h170l-28 -175h69c43 130 163 190 279 190c138 0 263 -95 235 -271zM440 239c-7 -48 7 -104 79 -104c68 0 105 46 115 106c7 48 -6 104 -77 104c-69 0 -107 -46 -117 -106z" />
    <glyph glyph-name="uni0432.loclBGR" horiz-adv-x="598" 
d="M558 523c-8 -49 -31 -93 -94 -129c69 -33 108 -102 95 -189c-23 -142 -136 -220 -287 -220c-155 0 -269 77 -233 309l15 96c32 213 141 325 311 325c128 0 209 -88 193 -192zM389 511c6 34 -10 60 -46 60c-46 0 -92 -30 -115 -157l79 17c46 9 77 46 82 80zM281 135
c59 0 100 38 108 89c6 40 -23 94 -97 78l-84 -18c-18 -111 10 -149 73 -149z" />
    <glyph glyph-name="uni0433.loclBGR" horiz-adv-x="496" 
d="M417 29c-56 -29 -125 -44 -210 -44c-121 0 -220 43 -204 165c24 178 282 136 292 192c4 22 -20 28 -45 28c-62 0 -137 -22 -187 -50l21 134c53 23 119 41 197 41c101 0 208 -36 188 -163c-28 -173 -283 -134 -292 -192c-3 -19 17 -27 69 -27c59 0 133 15 192 53z" />
    <glyph glyph-name="uni0434.loclBGR" horiz-adv-x="622" 
d="M528 15c-29 -182 -165 -250 -311 -250c-83 0 -157 20 -210 48l22 139c50 -32 110 -47 171 -47c76 0 145 28 158 110l5 32c-18 -27 -64 -62 -145 -62c-160 0 -219 136 -198 266c19 118 109 244 263 244c73 0 126 -30 155 -85l13 70h150zM191 234c-8 -50 11 -109 79 -109
c53 0 93 31 115 65l18 112c-10 29 -40 53 -81 53c-76 0 -121 -56 -131 -121z" />
    <glyph glyph-name="uni0436.loclBGR" horiz-adv-x="814" 
d="M134 0h-182l194 248l-101 232h163l77 -183h38l64 403h170l-64 -403h41l117 183h182l-178 -258l105 -222h-168l-78 167h-42l-26 -167h-170l26 167h-45z" />
    <glyph glyph-name="uni0438.loclBGR" horiz-adv-x="591" 
d="M400 480h170l-76 -480h-150l9 55c-42 -46 -93 -70 -156 -70c-126 0 -185 94 -168 202l46 293h170l-44 -280c-8 -51 17 -70 54 -70c42 0 78 24 97 46z" />
    <glyph glyph-name="uni0439.loclBGR" horiz-adv-x="591" 
d="M503 576c-37 -24 -92 -46 -166 -46s-125 22 -164 46l19 121c49 -28 97 -42 154 -42s119 12 176 42zM400 480h170l-76 -480h-150l9 55c-42 -46 -93 -70 -156 -70c-126 0 -185 94 -168 202l46 293h170l-44 -280c-8 -51 17 -70 54 -70c42 0 78 24 97 46z" />
    <glyph glyph-name="uni043A.loclBGR" horiz-adv-x="561" 
d="M392 480h195l-199 -243l127 -237h-175l-94 182h-43l-29 -182h-170l111 700h170l-62 -388h37z" />
    <glyph glyph-name="uni043B.loclBGR" horiz-adv-x="571" 
d="M410 480l109 -480h-173l-49 303l-151 -303h-187l266 480h185z" />
    <glyph glyph-name="uni043F.loclBGR" horiz-adv-x="590" 
d="M221 425c51 47 113 70 167 70c121 0 175 -94 158 -199l-47 -296h-170l44 280c9 51 -15 70 -53 70c-42 0 -78 -27 -98 -46l-48 -304h-170l76 480h150z" />
    <glyph glyph-name="uni0442.loclBGR" horiz-adv-x="865" 
d="M508 431c44 36 100 64 160 64c138 0 165 -121 154 -192l-48 -303h-170l48 303c5 33 -18 47 -45 47c-29 0 -59 -16 -79 -36c0 -4 0 -8 -1 -11l-48 -303h-170l48 303c5 33 -18 47 -45 47c-34 0 -69 -22 -91 -50l-47 -300h-170l76 480h150l-9 -53c34 34 96 68 162 68
s104 -27 125 -64z" />
    <glyph glyph-name="uni0446.loclBGR" horiz-adv-x="635" 
d="M515 132c-3 -18 3 -24 24 -24h45l-37 -233h-155l20 123c-29 10 -50 29 -61 55c-41 -45 -92 -68 -154 -68c-126 0 -185 94 -168 202l46 293h170l-44 -280c-8 -51 17 -70 54 -70c42 0 78 24 97 46l48 304h170z" />
    <glyph glyph-name="uni0448.loclBGR" horiz-adv-x="866" 
d="M627 174l48 306h170l-76 -480h-150l8 50c-28 -30 -83 -65 -150 -65s-109 29 -132 67c-40 -38 -96 -67 -163 -67c-138 0 -166 121 -155 192l48 303h170l-47 -298c-6 -38 15 -52 41 -52c29 0 59 14 81 36l4 24l46 290h170l-47 -298c-6 -38 15 -52 41 -52c33 0 69 16 93 44z
" />
    <glyph glyph-name="uni0449.loclBGR" horiz-adv-x="910" 
d="M790 132c-3 -18 3 -24 24 -24h45l-37 -233h-155l20 123c-28 10 -48 28 -59 52c-30 -30 -84 -65 -151 -65c-68 0 -109 29 -132 66c-41 -37 -96 -66 -163 -66c-138 0 -166 121 -155 192l48 303h170l-47 -298c-6 -38 15 -52 41 -52c29 0 60 15 82 38l49 312h170l-47 -298
c-6 -38 15 -52 41 -52c33 0 69 16 93 44l48 306h170z" />
    <glyph glyph-name="uni044E.loclBGR" horiz-adv-x="841" 
d="M805 224c-26 -164 -170 -239 -300 -239c-115 0 -215 66 -229 190h-74l-28 -175h-170l111 700h170l-63 -395h69c43 130 163 190 279 190c138 0 263 -95 235 -271zM440 239c-7 -48 7 -104 79 -104c68 0 105 46 115 106c7 48 -6 104 -77 104c-69 0 -107 -46 -117 -106z" />
    <glyph glyph-name="uni0430.ss01" horiz-adv-x="578" 
d="M481 132c-3 -18 6 -24 19 -24c9 0 17 1 28 4l-17 -109c-25 -9 -55 -13 -78 -13c-57 0 -97 22 -114 60c-40 -41 -90 -65 -165 -65c-93 0 -163 61 -155 149c11 125 130 157 225 157c40 0 76 -4 111 -10l3 21c5 35 -34 55 -93 55c-67 0 -120 -16 -171 -39l23 149
c40 13 101 28 173 28c162 0 259 -58 232 -229zM259 196c-37 0 -80 -8 -86 -50c-4 -28 19 -50 50 -50s60 9 88 35l10 59c-15 3 -36 6 -62 6z" />
    <glyph glyph-name="uni0437.ss01" horiz-adv-x="479" 
d="M421 -25c-24 -150 -153 -209 -298 -209c-70 0 -139 13 -188 40l22 142c42 -29 99 -46 152 -46c69 0 130 28 141 97c8 51 -22 99 -108 80l-60 -13l20 130l67 15c56 12 78 50 82 80c7 50 -31 72 -80 72c-43 0 -100 -17 -148 -47l22 142c56 24 106 37 181 37
c103 0 213 -69 194 -192c-8 -50 -31 -94 -96 -131c70 -34 111 -109 97 -197z" />
    <glyph glyph-name="uni0443.ss01" horiz-adv-x="591" 
d="M497 15c-30 -194 -165 -250 -311 -250c-76 0 -146 20 -193 48l22 138c44 -31 98 -46 154 -46c76 0 145 29 158 110l3 19c-37 -32 -81 -49 -133 -49c-126 0 -185 94 -168 202l46 293h170l-44 -280c-8 -51 17 -70 54 -70c42 0 78 24 97 46l48 304h170z" />
    <glyph glyph-name="zero" unicode="0" horiz-adv-x="706" 
d="M48 351c30 188 143 344 361 344c216 0 297 -166 265 -366c-30 -188 -143 -344 -361 -344c-216 0 -297 166 -265 366zM493 341c20 125 -8 194 -93 194c-93 0 -149 -59 -171 -196c-20 -125 8 -194 93 -194c93 0 149 59 171 196z" />
    <glyph glyph-name="one" unicode="1" horiz-adv-x="477" 
d="M276 680h135l-83 -525h106l-25 -155h-406l25 155h120l54 342l-127 -45l26 165z" />
    <glyph glyph-name="two" unicode="2" horiz-adv-x="608" 
d="M115 621c84 53 163 74 244 74c130 0 255 -65 230 -222c-17 -109 -90 -153 -185 -208c-101 -59 -161 -85 -166 -110h306l-25 -155h-527l14 86c26 164 156 229 260 286c84 46 133 65 140 113c5 33 -25 50 -73 50c-72 0 -162 -30 -245 -88z" />
    <glyph glyph-name="three" unicode="3" horiz-adv-x="599" 
d="M567 495c-11 -65 -52 -112 -127 -136c68 -22 120 -80 104 -184c-23 -143 -158 -190 -307 -190c-86 0 -154 15 -232 48l25 164c67 -38 134 -53 201 -52c70 1 136 21 145 76c5 35 -16 51 -72 51h-130l26 155h90c53 0 94 10 100 49c6 36 -23 59 -89 59
c-60 0 -142 -24 -216 -69l28 176c66 35 149 53 222 53c137 0 253 -63 232 -200z" />
    <glyph glyph-name="four" unicode="4" horiz-adv-x="666" 
d="M423 680h181l-67 -420h90l-23 -150h-90l-18 -110h-175l18 110h-345l23 150zM362 260l30 187l-180 -187h150z" />
    <glyph glyph-name="five" unicode="5" horiz-adv-x="595" 
d="M147 680h445l-25 -154l-284 1l-21 -99c26 4 51 5 70 5c128 0 240 -68 215 -227c-26 -162 -170 -221 -328 -221c-83 0 -159 19 -216 48l25 162c48 -32 118 -50 180 -50c91 0 149 21 158 80c6 37 -18 72 -110 73c-57 0 -128 -8 -195 -30z" />
    <glyph glyph-name="six" unicode="6" horiz-adv-x="658" 
d="M248 418c53 21 101 31 156 31c111 0 235 -81 211 -235c-25 -155 -148 -229 -297 -229c-215 0 -305 140 -268 372c38 242 202 338 375 338c81 0 144 -17 199 -45l-24 -153c-38 28 -92 48 -153 48c-79 0 -158 -28 -199 -127zM315 130c54 0 107 21 117 87
c8 54 -35 82 -91 82c-38 0 -81 -13 -122 -34c-4 -113 43 -135 96 -135z" />
    <glyph glyph-name="seven" unicode="7" horiz-adv-x="582" 
d="M85 681h540l-19 -125l-364 -556h-202l345 526h-325z" />
    <glyph glyph-name="eight" unicode="8" horiz-adv-x="663" 
d="M609 179c-15 -98 -109 -194 -317 -194c-196 0 -286 106 -269 216c10 66 62 124 125 160c-36 35 -63 82 -51 150c16 88 98 184 291 184c166 0 261 -106 246 -206c-10 -63 -47 -102 -106 -143c58 -38 96 -78 81 -167zM207 212c-4 -40 23 -87 105 -87c61 0 108 30 114 63
c9 49 -32 63 -90 81c-24 8 -52 17 -81 30c-28 -31 -44 -55 -48 -87zM341 419c19 -7 41 -14 65 -24c30 32 50 65 54 97c3 30 -27 63 -87 63c-55 0 -98 -22 -104 -61c-6 -37 24 -59 72 -75z" />
    <glyph glyph-name="nine" unicode="9" horiz-adv-x="657" 
d="M58 466c26 155 150 229 297 229c215 0 305 -140 268 -372c-38 -242 -197 -338 -375 -338c-71 0 -144 15 -202 43l24 153c43 -30 101 -46 156 -46c87 0 160 28 199 127c-48 -20 -92 -29 -146 -29c-121 0 -247 77 -221 233zM349 548c-54 0 -98 -28 -107 -83
c-10 -60 37 -86 93 -86c38 0 79 12 119 33c2 114 -50 136 -105 136z" />
    <glyph glyph-name="zero.osf" horiz-adv-x="678" 
d="M638 247c-21 -128 -132 -262 -339 -262c-211 0 -290 146 -268 286c20 128 136 264 339 264c211 0 290 -148 268 -288zM213 256c-9 -55 20 -111 95 -111c83 0 137 52 148 119c9 55 -20 111 -95 111c-83 0 -138 -52 -148 -119z" />
    <glyph glyph-name="one.osf" horiz-adv-x="478" 
d="M250 520h135l-57 -365h106l-25 -155h-406l25 155h120l29 182l-128 -45l27 165z" />
    <glyph glyph-name="two.osf" horiz-adv-x="570" 
d="M480 0h-487l12 76c18 112 107 144 206 187c75 33 125 48 132 76c6 26 -18 36 -54 36c-52 0 -142 -22 -225 -68l28 176c76 36 150 52 233 52c116 0 226 -56 204 -188c-11 -67 -57 -112 -114 -142c-49 -26 -92 -41 -132 -50h222z" />
    <glyph glyph-name="three.osf" horiz-adv-x="560" 
d="M507 335c-10 -65 -52 -114 -126 -138c67 -22 120 -78 104 -182c-23 -143 -159 -190 -298 -190c-76 0 -136 13 -215 44l25 160c60 -32 121 -45 187 -44c70 1 124 26 131 72c7 44 -24 55 -70 55h-110l25 155l80 -1c59 -1 86 21 92 54c6 36 -26 55 -80 55
c-59 0 -126 -12 -195 -45l26 166c63 26 129 39 203 39c129 0 240 -73 221 -200z" />
    <glyph glyph-name="four.osf" horiz-adv-x="626" 
d="M364 520h182l-66 -420h90l-24 -150h-90l-17 -110h-175l17 110h-315l23 150zM305 100l30 184l-164 -184h134z" />
    <glyph glyph-name="five.osf" horiz-adv-x="555" 
d="M118 521h415l-25 -155l-251 1l-21 -99c17 4 37 5 56 5c113 0 221 -68 195 -227c-25 -162 -170 -221 -308 -221c-83 0 -152 14 -209 43l26 159c49 -28 108 -42 173 -42c71 0 128 28 136 77c7 47 -29 76 -106 76c-47 0 -110 -8 -168 -30z" />
    <glyph glyph-name="six.osf" horiz-adv-x="633" 
d="M261 427c41 15 82 22 128 22c116 0 225 -86 200 -240c-24 -155 -157 -224 -291 -224c-200 0 -285 140 -250 362c40 252 224 348 382 348c63 0 124 -16 171 -43l-24 -147c-36 26 -75 40 -125 40c-68 0 -146 -25 -191 -118zM306 134c46 0 92 31 101 87c10 66 -38 82 -74 82
c-42 0 -77 -11 -109 -30c-7 -108 31 -139 82 -139z" />
    <glyph glyph-name="seven.osf" horiz-adv-x="535" 
d="M57 521h500l-19 -125l-344 -556h-202l325 526h-285z" />
    <glyph glyph-name="eight.osf" horiz-adv-x="634" 
d="M97 511c14 88 103 184 276 184c171 0 246 -106 231 -206c-10 -62 -47 -102 -106 -143c53 -27 96 -78 81 -167c-15 -98 -109 -194 -302 -194c-201 0 -271 106 -255 213c11 69 64 127 127 163c-37 29 -64 75 -52 150zM330 274c-25 8 -52 18 -75 25c-28 -24 -45 -55 -49 -87
c-4 -40 21 -83 85 -83c63 0 101 28 107 70c7 41 -21 60 -68 75zM430 498c3 30 -26 57 -69 57c-56 0 -88 -31 -93 -68c-5 -27 11 -57 50 -69c17 -5 38 -13 58 -17c31 28 50 62 54 97z" />
    <glyph glyph-name="nine.osf" horiz-adv-x="620" 
d="M26 311c25 155 158 224 292 224c190 0 285 -140 250 -362c-40 -252 -225 -348 -373 -348c-73 0 -131 17 -179 45l22 143c36 -25 88 -38 141 -38c60 0 133 25 176 116c-37 -14 -75 -20 -119 -20c-131 0 -234 86 -210 240zM305 382c-46 0 -88 -21 -97 -80
c-10 -63 37 -89 73 -89c42 0 78 11 110 30c7 108 -35 139 -86 139z" />
    <glyph glyph-name="zero.sinf" horiz-adv-x="428" 
d="M372 93c-18 -110 -79 -202 -213 -202c-132 0 -181 102 -162 224c18 110 79 202 213 202c127 0 181 -102 162 -224zM105 103c-12 -73 10 -116 59 -116c55 0 87 37 100 118c12 73 -10 116 -59 116c-55 0 -87 -37 -100 -118z" />
    <glyph glyph-name="one.sinf" horiz-adv-x="318" 
d="M151 308h80l-50 -315h78l-15 -93h-276l15 93h90l32 205l-92 -27l16 99z" />
    <glyph glyph-name="two.sinf" horiz-adv-x="368" 
d="M38 275c47 27 98 42 149 42c76 0 151 -41 135 -138c-11 -67 -60 -88 -122 -124c-50 -29 -81 -50 -84 -62h176l-14 -93h-313l8 54c15 98 89 138 154 174c58 32 83 45 87 67c3 17 -14 26 -41 26c-45 0 -99 -19 -152 -54z" />
    <glyph glyph-name="three.sinf" horiz-adv-x="362" 
d="M306 193c-6 -37 -30 -64 -76 -80c39 -12 72 -48 62 -112c-13 -84 -88 -110 -180 -110c-53 0 -97 9 -141 30l16 99c36 -23 82 -32 117 -32c42 0 82 12 87 39c4 22 -11 36 -44 36h-76l16 93h52c32 0 58 6 62 31c3 21 -17 34 -51 34c-40 0 -85 -8 -133 -34l16 99
c40 18 84 31 131 31c80 0 155 -40 142 -124z" />
    <glyph glyph-name="four.sinf" horiz-adv-x="403" 
d="M221 308h109l-40 -252h54l-14 -90h-54l-11 -66h-105l10 66h-206l14 90zM184 56l19 114l-109 -114h90z" />
    <glyph glyph-name="five.sinf" horiz-adv-x="362" 
d="M57 309h266l-14 -93h-169l-12 -59c12 2 26 3 36 3c88 0 148 -43 132 -141c-15 -95 -105 -128 -193 -128c-51 0 -97 11 -134 29l15 96c29 -19 70 -29 106 -29c51 0 94 12 99 50c3 21 -16 42 -75 42c-30 0 -67 -6 -108 -19z" />
    <glyph glyph-name="six.sinf" horiz-adv-x="398" 
d="M118 152c30 12 58 17 89 17c75 0 144 -50 129 -145c-15 -91 -93 -133 -175 -133c-132 0 -186 86 -163 228c22 142 122 198 221 198c44 0 84 -11 123 -29l-14 -89c-23 18 -56 28 -89 28c-47 0 -95 -17 -121 -75zM159 -22c30 0 62 11 68 53c5 31 -19 48 -55 48
c-24 0 -50 -8 -74 -21c-2 -68 28 -80 61 -80z" />
    <glyph glyph-name="seven.sinf" horiz-adv-x="346" 
d="M112 -100h-122l202 316h-189l15 93h319l-12 -75z" />
    <glyph glyph-name="eight.sinf" horiz-adv-x="401" 
d="M24 211c8 50 60 106 167 106s164 -66 154 -128c-6 -35 -26 -58 -63 -84c31 -16 59 -46 50 -102c-8 -56 -60 -112 -183 -112c-121 0 -177 66 -167 134c6 42 33 71 73 94c-21 16 -38 45 -31 92zM176 60c-18 5 -38 11 -55 18c-20 -15 -31 -31 -32 -51c-1 -22 14 -52 67 -52
c32 0 62 9 67 38c4 23 -19 39 -47 47zM242 194c1 16 -12 39 -55 39c-31 0 -57 -11 -61 -35c-4 -23 13 -40 44 -50c11 -4 25 -8 39 -13c20 20 30 37 33 59z" />
    <glyph glyph-name="nine.sinf" horiz-adv-x="397" 
d="M2 184c15 91 93 133 174 133c133 0 187 -86 164 -228c-22 -142 -122 -198 -221 -198c-45 0 -87 10 -123 29l14 90c23 -16 60 -29 99 -29c49 0 92 18 114 76c-32 -13 -60 -18 -92 -18c-70 0 -144 50 -129 145zM177 230c-30 0 -62 -13 -67 -51c-3 -29 20 -50 54 -50
c25 0 51 8 75 21c1 69 -29 80 -62 80z" />
    <glyph glyph-name="zero.sups" horiz-adv-x="429" 
d="M448 571c-18 -110 -79 -202 -213 -202c-132 0 -181 102 -162 224c18 110 79 202 213 202c127 0 181 -102 162 -224zM181 581c-12 -73 10 -116 59 -116c55 0 87 37 100 118c12 73 -10 116 -59 116c-55 0 -87 -37 -100 -118z" />
    <glyph glyph-name="one.sups" horiz-adv-x="319" 
d="M226 780h80l-50 -315h78l-15 -93h-276l15 93h90l32 205l-92 -27l16 99z" />
    <glyph glyph-name="two.sups" horiz-adv-x="368" 
d="M113 753c47 27 98 42 149 42c76 0 151 -41 135 -138c-11 -67 -60 -88 -122 -124c-50 -29 -81 -50 -84 -62h176l-14 -93h-313l8 54c15 98 89 138 154 174c58 32 83 45 87 67c3 17 -14 26 -41 26c-45 0 -99 -19 -152 -54z" />
    <glyph glyph-name="three.sups" horiz-adv-x="363" 
d="M382 671c-6 -37 -30 -64 -76 -80c39 -12 72 -48 62 -112c-13 -84 -88 -110 -180 -110c-53 0 -97 9 -141 30l16 99c36 -23 82 -32 117 -32c42 0 82 12 87 39c4 22 -11 36 -44 36h-76l16 93h52c32 0 58 6 62 31c3 21 -17 34 -51 34c-40 0 -85 -8 -133 -34l16 99
c40 18 84 31 131 31c80 0 155 -40 142 -124z" />
    <glyph glyph-name="four.sups" horiz-adv-x="404" 
d="M296 780h109l-40 -252h54l-14 -90h-54l-11 -66h-105l10 66h-206l14 90zM259 528l19 114l-109 -114h90z" />
    <glyph glyph-name="five.sups" horiz-adv-x="361" 
d="M131 780h266l-14 -93h-169l-12 -59c12 2 26 3 36 3c88 0 148 -43 132 -141c-15 -95 -105 -128 -193 -128c-51 0 -97 11 -134 29l15 96c29 -19 70 -29 106 -29c51 0 94 12 99 50c3 21 -16 42 -75 42c-30 0 -67 -6 -108 -19z" />
    <glyph glyph-name="six.sups" horiz-adv-x="398" 
d="M194 630c30 12 58 17 89 17c75 0 144 -50 129 -145c-15 -91 -93 -133 -175 -133c-132 0 -186 86 -163 228c22 142 122 198 221 198c44 0 84 -11 123 -29l-14 -89c-23 18 -56 28 -89 28c-47 0 -95 -17 -121 -75zM235 456c30 0 62 11 68 53c5 31 -19 48 -55 48
c-24 0 -50 -8 -74 -21c-2 -68 28 -80 61 -80z" />
    <glyph glyph-name="seven.sups" horiz-adv-x="346" 
d="M186 371h-122l202 316h-189l15 93h319l-12 -75z" />
    <glyph glyph-name="eight.sups" horiz-adv-x="402" 
d="M100 689c8 50 60 106 167 106s164 -66 154 -128c-6 -35 -26 -58 -63 -84c31 -16 59 -46 50 -102c-8 -56 -60 -112 -183 -112c-121 0 -177 66 -167 134c6 42 33 71 73 94c-21 16 -38 45 -31 92zM252 538c-18 5 -38 11 -55 18c-20 -15 -31 -31 -32 -51
c-1 -22 14 -52 67 -52c32 0 62 9 67 38c4 23 -19 39 -47 47zM318 672c1 16 -12 39 -55 39c-31 0 -57 -11 -61 -35c-4 -23 13 -40 44 -50c11 -4 25 -8 39 -13c20 20 30 37 33 59z" />
    <glyph glyph-name="nine.sups" horiz-adv-x="399" 
d="M79 662c15 91 93 133 174 133c133 0 187 -86 164 -228c-22 -142 -122 -198 -221 -198c-45 0 -87 10 -123 29l14 90c23 -16 60 -29 99 -29c49 0 92 18 114 76c-32 -13 -60 -18 -92 -18c-70 0 -144 50 -129 145zM254 708c-30 0 -62 -13 -67 -51c-3 -29 20 -50 54 -50
c25 0 51 8 75 21c1 69 -29 80 -62 80z" />
    <glyph glyph-name="zero.tf" 
d="M30 351c30 188 143 344 351 344c206 0 287 -166 255 -366c-30 -188 -143 -344 -351 -344c-206 0 -287 166 -255 366zM455 341c20 125 -8 194 -83 194c-83 0 -139 -59 -161 -196c-20 -125 8 -194 83 -194c83 0 139 59 161 196z" />
    <glyph glyph-name="one.tf" 
d="M358 680h135l-83 -525h190l-25 -155h-570l25 155h200l54 342l-176 -64l26 165z" />
    <glyph glyph-name="two.tf" 
d="M127 621c94 53 173 74 254 74c140 0 265 -65 240 -222c-17 -109 -98 -156 -195 -208c-111 -59 -171 -85 -176 -110h326l-25 -155h-547l14 86c26 164 156 229 270 286c86 43 143 65 150 113c5 33 -25 50 -83 50c-72 0 -162 -30 -255 -88z" />
    <glyph glyph-name="three.tf" 
d="M602 495c-11 -65 -52 -112 -127 -136c68 -22 120 -80 104 -184c-23 -143 -158 -190 -317 -190c-96 0 -164 15 -242 48l25 164c67 -38 134 -53 211 -52c80 1 146 21 155 76c5 35 -16 51 -82 51h-140l26 155h100c63 0 104 10 110 49c6 36 -23 59 -99 59
c-70 0 -152 -24 -226 -69l28 176c66 35 149 53 232 53c147 0 263 -63 242 -200z" />
    <glyph glyph-name="four.tf" 
d="M415 680h181l-67 -420h90l-23 -150h-90l-18 -110h-175l18 110h-345l23 150zM354 260l30 187l-180 -187h150z" />
    <glyph glyph-name="five.tf" 
d="M165 680h465l-25 -154l-304 1l-21 -99c26 4 61 5 80 5c128 0 250 -68 225 -227c-26 -162 -180 -221 -338 -221c-93 0 -169 19 -226 48l25 162c48 -32 118 -50 190 -50c101 0 160 26 168 80c5 37 -18 73 -120 73c-67 0 -138 -8 -205 -30z" />
    <glyph glyph-name="six.tf" 
d="M244 418c53 21 101 31 156 31c121 0 235 -81 211 -235c-25 -155 -148 -229 -297 -229c-225 0 -305 140 -268 372c38 242 202 338 375 338c81 0 144 -17 199 -45l-24 -153c-38 28 -92 48 -153 48c-79 0 -158 -28 -199 -127zM311 130c54 0 107 21 117 87
c8 54 -35 82 -91 82c-38 0 -81 -13 -122 -34c-4 -113 43 -135 96 -135z" />
    <glyph glyph-name="seven.tf" 
d="M103 681h570l-19 -125l-364 -556h-202l345 526h-355z" />
    <glyph glyph-name="eight.tf" 
d="M603 179c-15 -98 -109 -194 -317 -194c-196 0 -286 106 -269 216c10 66 62 124 125 160c-36 35 -63 82 -51 150c16 88 98 184 291 184c166 0 261 -106 246 -206c-10 -63 -47 -102 -106 -143c58 -38 96 -78 81 -167zM201 212c-4 -40 23 -87 105 -87c61 0 108 30 114 63
c9 49 -32 63 -90 81c-24 8 -52 17 -81 30c-28 -31 -44 -55 -48 -87zM335 419c19 -7 41 -14 65 -24c30 32 50 65 54 97c3 30 -27 63 -87 63c-55 0 -98 -22 -104 -61c-6 -37 24 -59 72 -75z" />
    <glyph glyph-name="nine.tf" 
d="M55 466c25 155 150 229 297 229c225 0 305 -140 268 -372c-38 -242 -197 -338 -375 -338c-71 0 -144 15 -202 43l24 153c43 -30 101 -46 156 -46c88 0 161 28 200 128c-53 -22 -102 -32 -157 -32c-121 0 -235 87 -211 235zM350 550c-56 0 -102 -28 -111 -83
c-10 -60 37 -86 93 -86c38 0 79 12 119 33c2 114 -47 136 -101 136z" />
    <glyph glyph-name="zero.tosf" 
d="M624 249c-21 -128 -134 -264 -337 -264c-211 0 -292 146 -270 286c20 128 134 264 337 264c211 0 292 -146 270 -286zM199 256c-9 -55 22 -111 97 -111c83 0 135 53 146 120c9 55 -22 110 -97 110c-83 0 -136 -52 -146 -119z" />
    <glyph glyph-name="one.tosf" 
d="M329 520h135l-57 -365h190l-25 -155h-570l25 155h200l29 182l-177 -64l27 165z" />
    <glyph glyph-name="two.tosf" 
d="M549 0h-545l12 76c20 124 148 164 248 194c84 25 143 37 148 71c5 29 -34 34 -72 34c-82 0 -184 -32 -268 -83l28 176c81 44 163 67 256 67c154 0 264 -64 241 -202c-10 -63 -54 -106 -116 -132c-47 -20 -103 -35 -166 -46h259z" />
    <glyph glyph-name="three.tosf" 
d="M577 335c-11 -65 -52 -112 -127 -136c68 -22 120 -80 104 -184c-23 -143 -158 -190 -317 -190c-96 0 -164 15 -242 48l25 164c67 -38 134 -53 211 -52c80 1 146 21 155 76c5 35 -16 51 -72 51h-150l26 155h110c53 0 94 10 100 49c6 36 -23 59 -99 59
c-70 0 -152 -24 -226 -69l28 176c66 35 149 53 232 53c147 0 263 -63 242 -200z" />
    <glyph glyph-name="four.tosf" 
d="M392 520h181l-67 -420h90l-23 -150h-90l-18 -110h-175l18 110h-345l23 150zM331 100l30 187l-180 -187h150z" />
    <glyph glyph-name="five.tosf" 
d="M139 520h465l-25 -154l-304 1l-21 -99c26 4 61 5 80 5c138 0 250 -68 225 -227c-26 -162 -170 -221 -338 -221c-93 0 -169 19 -226 48l25 162c48 -32 118 -50 190 -50c101 0 159 21 168 80c6 37 -18 71 -120 73c-67 1 -138 -8 -205 -30z" />
    <glyph glyph-name="six.tosf" 
d="M244 418c53 21 101 31 156 31c111 0 235 -81 211 -235c-25 -155 -148 -229 -297 -229c-215 0 -305 140 -268 372c38 242 202 338 375 338c81 0 144 -17 199 -45l-24 -153c-38 28 -92 48 -153 48c-79 0 -158 -28 -199 -127zM311 130c54 0 107 21 117 87
c8 54 -35 82 -91 82c-38 0 -81 -13 -122 -34c-4 -113 43 -135 96 -135z" />
    <glyph glyph-name="seven.tosf" 
d="M78 521h570l-19 -125l-374 -556h-202l354 526h-354z" />
    <glyph glyph-name="eight.tosf" 
d="M603 179c-15 -98 -109 -194 -317 -194c-196 0 -286 106 -269 216c10 66 62 124 125 160c-36 35 -63 82 -51 150c16 88 98 184 291 184c166 0 261 -106 246 -206c-10 -63 -47 -102 -106 -143c58 -38 96 -78 81 -167zM201 212c-4 -40 23 -87 105 -87c61 0 108 30 114 63
c9 49 -32 63 -90 81c-24 8 -52 17 -81 30c-28 -31 -44 -55 -48 -87zM335 419c19 -7 41 -14 65 -24c30 32 50 65 54 97c3 30 -27 63 -87 63c-55 0 -98 -22 -104 -61c-6 -37 24 -59 72 -75z" />
    <glyph glyph-name="nine.tosf" 
d="M28 306c26 155 150 229 297 229c215 0 305 -140 268 -372c-38 -242 -197 -338 -375 -338c-71 0 -144 15 -202 43l24 153c43 -30 101 -46 156 -46c87 0 160 28 199 127c-48 -20 -92 -29 -146 -29c-121 0 -247 77 -221 233zM319 388c-54 0 -98 -28 -107 -83
c-10 -60 37 -86 93 -86c38 0 79 12 119 33c2 114 -50 136 -105 136z" />
    <glyph glyph-name="fraction" unicode="&#x2044;" horiz-adv-x="187" 
d="M-156 -15h-52l573 730h52z" />
    <glyph glyph-name="onehalf" unicode="&#xbd;" horiz-adv-x="901" 
d="M211 -15h-52l573 730h52zM583 375c47 27 98 42 149 42c76 0 151 -41 135 -138c-11 -67 -60 -88 -122 -124c-50 -29 -81 -50 -84 -62h176l-14 -93h-313l8 54c15 98 89 138 154 174c58 32 83 45 87 67c3 17 -14 26 -41 26c-45 0 -99 -19 -152 -54zM219 680h80l-50 -315h78
l-15 -93h-276l15 93h90l32 205l-92 -27l16 99z" />
    <glyph glyph-name="onequarter" unicode="&#xbc;" horiz-adv-x="936" 
d="M762 408h109l-40 -252h54l-14 -90h-54l-11 -66h-105l10 66h-206l14 90zM725 156l19 114l-109 -114h90zM215 -15h-52l573 730h52zM223 680h80l-50 -315h78l-15 -93h-276l15 93h90l32 205l-92 -27l16 99z" />
    <glyph glyph-name="threequarters" unicode="&#xbe;" horiz-adv-x="988" 
d="M267 -15h-52l573 730h52zM814 408h109l-40 -252h54l-14 -90h-54l-11 -66h-105l10 66h-206l14 90zM777 156l19 114l-109 -114h90zM376 571c-6 -37 -30 -64 -76 -80c39 -12 72 -48 62 -112c-13 -84 -88 -110 -180 -110c-53 0 -97 9 -141 30l16 99c36 -23 82 -32 117 -32
c42 0 82 12 87 39c4 22 -11 36 -44 36h-76l16 93h52c32 0 58 6 62 31c3 21 -17 34 -51 34c-40 0 -85 -8 -133 -34l16 99c40 18 84 31 131 31c80 0 155 -40 142 -124z" />
    <glyph glyph-name="oneeighth" unicode="&#x215b;" horiz-adv-x="935" 
d="M568 311c8 50 60 106 167 106s164 -66 154 -128c-6 -35 -26 -58 -63 -84c31 -16 59 -46 50 -102c-8 -56 -60 -112 -183 -112c-121 0 -177 66 -167 134c6 42 33 71 73 94c-21 16 -38 45 -31 92zM720 160c-18 5 -38 11 -55 18c-20 -15 -31 -31 -32 -51
c-1 -22 14 -52 67 -52c32 0 62 9 67 38c4 23 -19 39 -47 47zM786 294c1 16 -12 39 -55 39c-31 0 -57 -11 -61 -35c-4 -23 13 -40 44 -50c11 -4 25 -8 39 -13c20 20 30 37 33 59zM215 -15h-52l573 730h52zM223 680h80l-50 -315h78l-15 -93h-276l15 93h90l32 205l-92 -27
l16 99z" />
    <glyph glyph-name="threeeighths" unicode="&#x215c;" horiz-adv-x="927" 
d="M560 311c8 50 60 106 167 106s164 -66 154 -128c-6 -35 -26 -58 -63 -84c31 -16 59 -46 50 -102c-8 -56 -60 -112 -183 -112c-121 0 -177 66 -167 134c6 42 33 71 73 94c-21 16 -38 45 -31 92zM712 160c-18 5 -38 11 -55 18c-20 -15 -31 -31 -32 -51
c-1 -22 14 -52 67 -52c32 0 62 9 67 38c4 23 -19 39 -47 47zM778 294c1 16 -12 39 -55 39c-31 0 -57 -11 -61 -35c-4 -23 13 -40 44 -50c11 -4 25 -8 39 -13c20 20 30 37 33 59zM217 -15h-52l573 730h52zM375 571c-6 -37 -30 -64 -76 -80c39 -12 72 -48 62 -112
c-13 -84 -88 -110 -180 -110c-53 0 -97 9 -141 30l16 99c36 -23 82 -32 117 -32c42 0 82 12 87 39c4 22 -11 36 -44 36h-76l16 93h52c32 0 58 6 62 31c3 21 -17 34 -51 34c-40 0 -85 -8 -133 -34l16 99c40 18 84 31 131 31c80 0 155 -40 142 -124z" />
    <glyph glyph-name="fiveeighths" unicode="&#x215d;" horiz-adv-x="935" 
d="M568 311c8 50 60 106 167 106s164 -66 154 -128c-6 -35 -26 -58 -63 -84c31 -16 59 -46 50 -102c-8 -56 -60 -112 -183 -112c-121 0 -177 66 -167 134c6 42 33 71 73 94c-21 16 -38 45 -31 92zM720 160c-18 5 -38 11 -55 18c-20 -15 -31 -31 -32 -51
c-1 -22 14 -52 67 -52c32 0 62 9 67 38c4 23 -19 39 -47 47zM786 294c1 16 -12 39 -55 39c-31 0 -57 -11 -61 -35c-4 -23 13 -40 44 -50c11 -4 25 -8 39 -13c20 20 30 37 33 59zM225 -15h-52l573 730h52zM125 680h266l-14 -93h-169l-12 -59c12 2 26 3 36 3
c88 0 148 -43 132 -141c-15 -95 -105 -128 -193 -128c-51 0 -97 11 -134 29l15 96c29 -19 70 -29 106 -29c51 0 94 12 99 50c3 21 -16 42 -75 42c-30 0 -67 -6 -108 -19z" />
    <glyph glyph-name="seveneighths" unicode="&#x215e;" horiz-adv-x="867" 
d="M142 -15h-52l573 730h52zM500 311c8 50 60 106 167 106s164 -66 154 -128c-6 -35 -26 -58 -63 -84c31 -16 59 -46 50 -102c-8 -56 -60 -112 -183 -112c-121 0 -177 66 -167 134c6 42 33 71 73 94c-21 16 -38 45 -31 92zM652 160c-18 5 -38 11 -55 18
c-20 -15 -31 -31 -32 -51c-1 -22 14 -52 67 -52c32 0 62 9 67 38c4 23 -19 39 -47 47zM718 294c1 16 -12 39 -55 39c-31 0 -57 -11 -61 -35c-4 -23 13 -40 44 -50c11 -4 25 -8 39 -13c20 20 30 37 33 59zM187 271h-122l202 316h-189l15 93h319l-12 -75z" />
    <glyph glyph-name="zero.dnom" horiz-adv-x="429" 
d="M388 193c-18 -110 -79 -202 -213 -202c-132 0 -181 102 -162 224c18 110 79 202 213 202c127 0 181 -102 162 -224zM121 203c-12 -73 10 -116 59 -116c55 0 87 37 100 118c12 73 -10 116 -59 116c-55 0 -87 -37 -100 -118z" />
    <glyph glyph-name="one.dnom" horiz-adv-x="319" 
d="M167 408h80l-50 -315h78l-15 -93h-276l15 93h90l32 205l-92 -27l16 99z" />
    <glyph glyph-name="two.dnom" horiz-adv-x="369" 
d="M54 375c47 27 98 42 149 42c76 0 151 -41 135 -138c-11 -67 -60 -88 -122 -124c-50 -29 -81 -50 -84 -62h176l-14 -93h-313l8 54c15 98 89 138 154 174c58 32 83 45 87 67c3 17 -14 26 -41 26c-45 0 -99 -19 -152 -54z" />
    <glyph glyph-name="three.dnom" horiz-adv-x="363" 
d="M322 293c-6 -37 -30 -64 -76 -80c39 -12 72 -48 62 -112c-13 -84 -88 -110 -180 -110c-53 0 -97 9 -141 30l16 99c36 -23 82 -32 117 -32c42 0 82 12 87 39c4 22 -11 36 -44 36h-76l16 93h52c32 0 58 6 62 31c3 21 -17 34 -51 34c-40 0 -85 -8 -133 -34l16 99
c40 18 84 31 131 31c80 0 155 -40 142 -124z" />
    <glyph glyph-name="four.dnom" horiz-adv-x="404" 
d="M237 408h109l-40 -252h54l-14 -90h-54l-11 -66h-105l10 66h-206l14 90zM200 156l19 114l-109 -114h90z" />
    <glyph glyph-name="five.dnom" horiz-adv-x="362" 
d="M73 409h266l-14 -93h-169l-12 -59c12 2 26 3 36 3c88 0 148 -43 132 -141c-15 -95 -105 -128 -193 -128c-51 0 -97 11 -134 29l15 96c29 -19 70 -29 106 -29c51 0 94 12 99 50c3 21 -16 42 -75 42c-30 0 -67 -6 -108 -19z" />
    <glyph glyph-name="six.dnom" horiz-adv-x="398" 
d="M134 252c30 12 58 17 89 17c75 0 144 -50 129 -145c-15 -91 -93 -133 -175 -133c-132 0 -186 86 -163 228c22 142 122 198 221 198c44 0 84 -11 123 -29l-14 -89c-23 18 -56 28 -89 28c-47 0 -95 -17 -121 -75zM175 78c30 0 62 11 68 53c5 31 -19 48 -55 48
c-24 0 -50 -8 -74 -21c-2 -68 28 -80 61 -80z" />
    <glyph glyph-name="seven.dnom" horiz-adv-x="346" 
d="M128 0h-122l202 316h-189l15 93h319l-12 -75z" />
    <glyph glyph-name="eight.dnom" horiz-adv-x="402" 
d="M40 311c8 50 60 106 167 106s164 -66 154 -128c-6 -35 -26 -58 -63 -84c31 -16 59 -46 50 -102c-8 -56 -60 -112 -183 -112c-121 0 -177 66 -167 134c6 42 33 71 73 94c-21 16 -38 45 -31 92zM192 160c-18 5 -38 11 -55 18c-20 -15 -31 -31 -32 -51c-1 -22 14 -52 67 -52
c32 0 62 9 67 38c4 23 -19 39 -47 47zM258 294c1 16 -12 39 -55 39c-31 0 -57 -11 -61 -35c-4 -23 13 -40 44 -50c11 -4 25 -8 39 -13c20 20 30 37 33 59z" />
    <glyph glyph-name="nine.dnom" horiz-adv-x="398" 
d="M18 284c15 91 93 133 174 133c133 0 187 -86 164 -228c-22 -142 -122 -198 -221 -198c-45 0 -87 10 -123 29l14 90c23 -16 60 -29 99 -29c49 0 92 18 114 76c-32 -13 -60 -18 -92 -18c-70 0 -144 50 -129 145zM193 330c-30 0 -62 -13 -67 -51c-3 -29 20 -50 54 -50
c25 0 51 8 75 21c1 69 -29 80 -62 80z" />
    <glyph glyph-name="zero.numr" horiz-adv-x="429" 
d="M432 471c-18 -110 -79 -202 -213 -202c-132 0 -181 102 -162 224c18 110 79 202 213 202c127 0 181 -102 162 -224zM165 481c-12 -73 10 -116 59 -116c55 0 87 37 100 118c12 73 -10 116 -59 116c-55 0 -87 -37 -100 -118z" />
    <glyph glyph-name="one.numr" horiz-adv-x="319" 
d="M210 680h80l-50 -315h78l-15 -93h-276l15 93h90l32 205l-92 -27l16 99z" />
    <glyph glyph-name="two.numr" horiz-adv-x="368" 
d="M97 653c47 27 98 42 149 42c76 0 151 -41 135 -138c-11 -67 -60 -88 -122 -124c-50 -29 -81 -50 -84 -62h176l-14 -93h-313l8 54c15 98 89 138 154 174c58 32 83 45 87 67c3 17 -14 26 -41 26c-45 0 -99 -19 -152 -54z" />
    <glyph glyph-name="three.numr" horiz-adv-x="363" 
d="M366 571c-6 -37 -30 -64 -76 -80c39 -12 72 -48 62 -112c-13 -84 -88 -110 -180 -110c-53 0 -97 9 -141 30l16 99c36 -23 82 -32 117 -32c42 0 82 12 87 39c4 22 -11 36 -44 36h-76l16 93h52c32 0 58 6 62 31c3 21 -17 34 -51 34c-40 0 -85 -8 -133 -34l16 99
c40 18 84 31 131 31c80 0 155 -40 142 -124z" />
    <glyph glyph-name="four.numr" horiz-adv-x="404" 
d="M280 680h109l-40 -252h54l-14 -90h-54l-11 -66h-105l10 66h-206l14 90zM243 428l19 114l-109 -114h90z" />
    <glyph glyph-name="five.numr" horiz-adv-x="361" 
d="M115 680h266l-14 -93h-169l-12 -59c12 2 26 3 36 3c88 0 148 -43 132 -141c-15 -95 -105 -128 -193 -128c-51 0 -97 11 -134 29l15 96c29 -19 70 -29 106 -29c51 0 94 12 99 50c3 21 -16 42 -75 42c-30 0 -67 -6 -108 -19z" />
    <glyph glyph-name="six.numr" horiz-adv-x="398" 
d="M178 530c30 12 58 17 89 17c75 0 144 -50 129 -145c-15 -91 -93 -133 -175 -133c-132 0 -186 86 -163 228c22 142 122 198 221 198c44 0 84 -11 123 -29l-14 -89c-23 18 -56 28 -89 28c-47 0 -95 -17 -121 -75zM219 356c30 0 62 11 68 53c5 31 -19 48 -55 48
c-24 0 -50 -8 -74 -21c-2 -68 28 -80 61 -80z" />
    <glyph glyph-name="seven.numr" horiz-adv-x="345" 
d="M170 271h-122l202 316h-189l15 93h319l-12 -75z" />
    <glyph glyph-name="eight.numr" horiz-adv-x="402" 
d="M84 589c8 50 60 106 167 106s164 -66 154 -128c-6 -35 -26 -58 -63 -84c31 -16 59 -46 50 -102c-8 -56 -60 -112 -183 -112c-121 0 -177 66 -167 134c6 42 33 71 73 94c-21 16 -38 45 -31 92zM236 438c-18 5 -38 11 -55 18c-20 -15 -31 -31 -32 -51c-1 -22 14 -52 67 -52
c32 0 62 9 67 38c4 23 -19 39 -47 47zM302 572c1 16 -12 39 -55 39c-31 0 -57 -11 -61 -35c-4 -23 13 -40 44 -50c11 -4 25 -8 39 -13c20 20 30 37 33 59z" />
    <glyph glyph-name="nine.numr" horiz-adv-x="399" 
d="M63 562c15 91 93 133 174 133c133 0 187 -86 164 -228c-22 -142 -122 -198 -221 -198c-45 0 -87 10 -123 29l14 90c23 -16 60 -29 99 -29c49 0 92 18 114 76c-32 -13 -60 -18 -92 -18c-70 0 -144 50 -129 145zM238 608c-30 0 -62 -13 -67 -51c-3 -29 20 -50 54 -50
c25 0 51 8 75 21c1 69 -29 80 -62 80z" />
    <glyph glyph-name="asterisk" unicode="*" horiz-adv-x="503" 
d="M279 421l-79 -124l-123 92l102 81l-118 21l76 148l101 -61v122h160l-40 -122l115 61l32 -148l-124 -21l76 -81l-139 -92z" />
    <glyph glyph-name="backslash" unicode="\" horiz-adv-x="472" 
d="M395 -60h-120l-180 820h120z" />
    <glyph glyph-name="periodcentered" unicode="&#xb7;" horiz-adv-x="280" 
d="M231 228c-10 -63 -57 -88 -108 -88c-58 0 -104 35 -92 110c10 62 58 87 108 87c59 0 104 -35 92 -109z" />
    <glyph glyph-name="bullet" unicode="&#x2022;" horiz-adv-x="416" 
d="M68 361c15 94 88 133 163 133c85 0 151 -49 134 -155c-15 -95 -86 -134 -163 -134c-83 0 -151 49 -134 156z" />
    <glyph glyph-name="colon" unicode=":" horiz-adv-x="296" 
d="M259 353c-10 -63 -57 -88 -108 -88c-58 0 -104 35 -92 110c9 62 57 87 107 87c59 0 105 -35 93 -109zM215 73c-10 -63 -57 -88 -108 -88c-58 0 -105 35 -93 110c10 62 58 87 108 87c59 0 104 -35 93 -109z" />
    <glyph glyph-name="comma" unicode="," horiz-adv-x="285" 
d="M72 -143h-140l114 290h182z" />
    <glyph glyph-name="ellipsis" unicode="&#x2026;" horiz-adv-x="825" 
d="M757 73c-10 -63 -57 -88 -108 -88c-58 0 -105 35 -93 110c10 62 58 87 108 87c59 0 104 -35 93 -109zM205 73c-10 -63 -57 -88 -108 -88c-58 0 -105 35 -93 110c10 62 58 87 108 87c59 0 104 -35 93 -109zM481 73c-10 -63 -57 -88 -108 -88c-58 0 -105 35 -93 110
c10 62 58 87 108 87c59 0 104 -35 93 -109z" />
    <glyph glyph-name="exclam" unicode="!" horiz-adv-x="294" 
d="M221 260h-160l60 440h180zM214 73c-10 -63 -57 -88 -108 -88c-58 0 -105 35 -93 110c10 62 58 87 108 87c59 0 104 -35 93 -109z" />
    <glyph glyph-name="exclamdown" unicode="&#xa1;" horiz-adv-x="284" 
d="M151 -220h-180l80 440h160zM259 385c-10 -62 -57 -87 -108 -87c-58 0 -104 35 -92 109c10 63 58 88 108 88c59 0 104 -35 92 -110z" />
    <glyph glyph-name="numbersign" unicode="#" horiz-adv-x="707" 
d="M178 0h-162l55 140h-62l19 120h91l63 161h-78l19 120h107l55 140h162l-55 -140h98l55 140h162l-55 -140h61l-19 -120h-90l-63 -161h77l-19 -120h-106l-55 -140h-162l55 140h-98zM344 421l-63 -161h98l63 161h-98z" />
    <glyph glyph-name="period" unicode="." horiz-adv-x="273" 
d="M205 73c-10 -63 -57 -88 -108 -88c-58 0 -105 35 -93 110c10 62 58 87 108 87c59 0 104 -35 93 -109z" />
    <glyph glyph-name="question" unicode="?" horiz-adv-x="503" 
d="M296 242h-159c20 129 176 198 186 261c6 42 -28 52 -76 52c-62 0 -129 -25 -178 -50l26 164c57 28 123 46 192 46c120 0 247 -49 224 -189c-20 -131 -202 -206 -215 -284zM293 73c-10 -63 -57 -88 -108 -88c-58 0 -105 35 -93 110c10 62 58 87 108 87
c59 0 104 -35 93 -109z" />
    <glyph glyph-name="questiondown" unicode="&#xbf;" horiz-adv-x="496" 
d="M388 -190c-57 -27 -122 -45 -192 -45c-120 0 -246 49 -224 189c21 131 202 206 216 284h158c-20 -129 -176 -198 -186 -261c-6 -42 28 -52 76 -52c62 0 131 25 178 50zM391 385c-10 -62 -58 -87 -108 -87c-59 0 -104 35 -92 109c10 63 57 88 108 88c58 0 104 -35 92 -110
z" />
    <glyph glyph-name="quotedbl" unicode="&#x22;" horiz-adv-x="454" 
d="M416 460h-120l38 240h150zM196 460h-120l38 240h150z" />
    <glyph glyph-name="quotesingle" unicode="'" horiz-adv-x="235" 
d="M196 460h-120l38 240h150z" />
    <glyph glyph-name="semicolon" unicode=";" horiz-adv-x="306" 
d="M79 -143h-140l114 290h182zM272 376c-10 -63 -57 -88 -108 -88c-58 0 -105 35 -93 110c10 62 58 87 108 87c59 0 104 -35 93 -109z" />
    <glyph glyph-name="slash" unicode="/" horiz-adv-x="482" 
d="M93 -60h-125l440 820h125z" />
    <glyph glyph-name="underscore" unicode="_" horiz-adv-x="500" 
d="M425 -186h-500l22 140h500z" />
    <glyph glyph-name="braceleft" unicode="{" horiz-adv-x="382" 
d="M306 41l-24 -153c-163 -36 -241 47 -223 162l27 170c9 54 -26 55 -63 55l24 150c48 -5 73 9 82 65l27 170c21 135 121 185 272 149l-24 -148c-59 11 -83 -26 -92 -86l-19 -120c-13 -84 -66 -105 -116 -105c42 0 94 -31 81 -115l-19 -120c-10 -60 5 -85 67 -74z" />
    <glyph glyph-name="braceright" unicode="}" horiz-adv-x="382" 
d="M245 40c-22 -135 -118 -185 -273 -149l23 148c59 -11 83 16 94 86l19 120c12 74 67 105 117 105c-42 0 -94 41 -82 115l19 120c10 60 -2 85 -68 75l24 152c162 36 242 -47 224 -162l-27 -171c-9 -56 29 -54 63 -54l-24 -151c-40 5 -72 -10 -81 -64z" />
    <glyph glyph-name="bracketleft" unicode="[" horiz-adv-x="356" 
d="M264 -110h-270l145 920h270l-23 -150h-100l-99 -620h100z" />
    <glyph glyph-name="bracketright" unicode="]" horiz-adv-x="357" 
d="M236 -110h-270l23 150h100l99 620h-100l23 150h270z" />
    <glyph glyph-name="parenleft" unicode="(" horiz-adv-x="330" 
d="M266 811h133c-86 -133 -162 -280 -189 -452c-26 -160 -7 -347 39 -471h-125c-72 132 -107 305 -81 473c25 156 111 327 223 450z" />
    <glyph glyph-name="parenright" unicode=")" horiz-adv-x="333" 
d="M101 812h125c72 -132 107 -315 81 -483c-25 -156 -111 -317 -223 -440h-133c87 133 162 290 189 462c26 160 7 337 -39 461z" />
    <glyph glyph-name="emdash" unicode="&#x2014;" horiz-adv-x="785" 
d="M713 171h-680l23 140h680z" />
    <glyph glyph-name="endash" unicode="&#x2013;" horiz-adv-x="585" 
d="M513 171h-480l23 140h480z" />
    <glyph glyph-name="hyphen" unicode="-" horiz-adv-x="485" 
d="M56 311h380l-23 -140h-380z" />
    <glyph glyph-name="emdash.case" horiz-adv-x="791" 
d="M733 280h-680l23 140h680z" />
    <glyph glyph-name="endash.case" horiz-adv-x="591" 
d="M533 280h-480l23 140h480z" />
    <glyph glyph-name="hyphen.case" horiz-adv-x="491" 
d="M76 420h380l-23 -140h-380z" />
    <glyph glyph-name="guillemotleft" unicode="&#xab;" horiz-adv-x="605" 
d="M535 40h-166l-102 185l5 33l157 182h174l-175 -200zM285 40h-166l-102 185l5 33l157 182h174l-175 -200z" />
    <glyph glyph-name="guillemotright" unicode="&#xbb;" horiz-adv-x="606" 
d="M410 40h-174l175 200l-107 200h166l103 -185l-5 -33zM160 40h-174l175 200l-107 200h166l103 -185l-5 -33z" />
    <glyph glyph-name="guilsinglleft" unicode="&#x2039;" horiz-adv-x="355" 
d="M285 40h-166l-102 185l5 33l157 182h174l-175 -200z" />
    <glyph glyph-name="guilsinglright" unicode="&#x203a;" horiz-adv-x="356" 
d="M160 40h-174l175 200l-107 200h166l103 -185l-5 -33z" />
    <glyph glyph-name="quotedblbase" unicode="&#x201e;" horiz-adv-x="505" 
d="M292 -143h-140l114 290h182zM72 -143h-140l114 290h182z" />
    <glyph glyph-name="quotedblleft" unicode="&#x201c;" horiz-adv-x="516" 
d="M444 410h-182l156 290h140zM224 410h-182l156 290h140z" />
    <glyph glyph-name="quotedblright" unicode="&#x201d;" horiz-adv-x="511" 
d="M410 410h-140l114 290h182zM190 410h-140l114 290h182z" />
    <glyph glyph-name="quoteleft" unicode="&#x2018;" horiz-adv-x="296" 
d="M224 410h-182l156 290h140z" />
    <glyph glyph-name="quoteright" unicode="&#x2019;" horiz-adv-x="291" 
d="M190 410h-140l114 290h182z" />
    <glyph glyph-name="quotesinglbase" unicode="&#x201a;" horiz-adv-x="285" 
d="M72 -143h-140l114 290h182z" />
    <glyph glyph-name="guillemotleft.case" horiz-adv-x="636" 
d="M563 150h-166l-102 185l5 33l157 182h174l-175 -200zM313 150h-166l-102 185l5 33l157 182h174l-175 -200z" />
    <glyph glyph-name="guillemotright.case" horiz-adv-x="638" 
d="M448 150h-174l175 200l-107 200h166l103 -185l-5 -33zM198 150h-174l175 200l-107 200h166l103 -185l-5 -33z" />
    <glyph glyph-name="guilsinglleft.case" horiz-adv-x="386" 
d="M313 150h-166l-102 185l5 33l157 182h174l-175 -200z" />
    <glyph glyph-name="guilsinglright.case" horiz-adv-x="388" 
d="M198 150h-174l175 200l-107 200h166l103 -185l-5 -33z" />
    <glyph glyph-name="space" unicode=" " horiz-adv-x="210" 
 />
    <glyph glyph-name="cent" unicode="&#xa2;" horiz-adv-x="515" 
d="M489 457l-22 -136c-21 13 -46 22 -73 27l-34 -213c31 5 60 14 87 27l-23 -147c-28 -12 -56 -20 -87 -25l-17 -110h-100l17 106c-129 9 -239 90 -212 260c28 174 172 243 292 250l17 104h100l-18 -113c27 -7 51 -17 73 -30zM293 342c-47 -15 -86 -49 -95 -108
c-8 -56 20 -87 62 -98z" />
    <glyph glyph-name="currency" unicode="&#xa4;" horiz-adv-x="567" 
d="M170 172l-73 -63l-71 81l67 61c-13 29 -18 63 -11 110c6 37 21 72 44 101l-46 52l81 74l52 -59c32 14 71 21 103 21c41 0 75 -10 101 -24l75 66l69 -80l-69 -62c11 -27 18 -64 11 -111c-6 -36 -19 -71 -46 -102l48 -52l-83 -74l-51 59c-33 -15 -69 -20 -102 -20
c-41 0 -73 8 -99 22zM220 339c-2 -29 14 -61 61 -61c55 0 82 42 84 83c2 29 -14 61 -61 61c-55 0 -82 -42 -84 -83z" />
    <glyph glyph-name="dollar" unicode="$" horiz-adv-x="618" 
d="M306 -130h-130l19 119c-74 9 -140 32 -193 62l27 170c71 -57 159 -76 235 -76c73 0 115 17 120 48c16 105 -340 84 -304 317c17 108 114 168 225 182l19 118h130l-19 -121c64 -9 123 -28 164 -53l-26 -163c-61 45 -135 63 -202 62c-63 -1 -102 -12 -106 -40
c-13 -93 344 -73 306 -317c-20 -130 -128 -180 -246 -191z" />
    <glyph glyph-name="Euro" unicode="&#x20ac;" horiz-adv-x="729" 
d="M708 482c-43 33 -105 51 -165 51c-72 0 -141 -22 -187 -73h214l-16 -100h-249c-3 -11 -6 -29 -6 -40h249l-16 -100h-212c31 -49 89 -72 154 -72c71 0 142 26 190 60l-28 -181c-62 -29 -133 -42 -198 -42c-147 0 -294 73 -324 235h-92l16 100h72c1 16 3 28 6 40h-72
l16 100h86c71 163 232 235 384 235c75 0 144 -17 204 -49z" />
    <glyph glyph-name="sterling" unicode="&#xa3;" horiz-adv-x="605" 
d="M523 0h-530l23 145h16c49 0 81 41 89 91l5 34h-77l20 130h77l9 54c28 174 148 241 282 241c60 0 119 -14 168 -39l-21 -135c-37 29 -83 39 -123 39c-73 0 -125 -38 -138 -119l-7 -41h178l-20 -130h-178l-7 -44c-7 -44 -22 -68 -54 -81h311z" />
    <glyph glyph-name="yen" unicode="&#xa5;" horiz-adv-x="739" 
d="M568 680h205l-240 -320h95l-17 -110h-158l-8 -50h158l-18 -110h-157l-15 -90h-184l15 90h-159l18 110h158l8 50h-158l17 110h96l-137 320h191l99 -284z" />
    <glyph glyph-name="cent.tf" 
d="M555 457l-22 -136c-21 13 -46 22 -74 27l-34 -214c31 6 60 15 88 28l-23 -147c-28 -12 -57 -20 -88 -25l-17 -110h-100l17 106c-128 10 -238 90 -211 260c28 174 172 243 291 249l17 105h100l-18 -113c27 -7 52 -17 74 -30zM358 342c-47 -15 -86 -50 -94 -108
c-8 -55 20 -86 62 -98z" />
    <glyph glyph-name="currency.tf" 
d="M211 172l-73 -63l-71 81l67 61c-13 29 -18 63 -11 110c6 37 21 72 44 101l-46 52l81 74l52 -59c32 14 71 21 103 21c41 0 75 -10 101 -24l75 66l69 -80l-69 -62c11 -27 18 -64 11 -111c-6 -36 -19 -71 -46 -102l48 -52l-83 -74l-51 59c-33 -15 -69 -20 -102 -20
c-41 0 -73 8 -99 22zM261 339c-2 -29 14 -61 61 -61c55 0 82 42 84 83c2 29 -14 61 -61 61c-55 0 -82 -42 -84 -83z" />
    <glyph glyph-name="dollar.tf" 
d="M322 -130h-130l19 119c-74 9 -140 32 -193 62l27 170c71 -57 159 -76 235 -76c73 0 115 17 120 48c16 105 -340 84 -304 317c17 108 114 168 225 182l19 118h130l-19 -121c64 -9 123 -28 164 -53l-26 -163c-61 45 -135 63 -202 62c-63 -1 -102 -12 -106 -40
c-13 -93 344 -73 306 -317c-20 -130 -128 -180 -246 -191z" />
    <glyph glyph-name="Euro.tf" 
d="M646 514c-31 14 -65 19 -100 19c-76 0 -149 -22 -199 -73h201l-16 -100h-239c-4 -14 -6 -29 -6 -40h239l-16 -100h-201c31 -49 92 -72 163 -72c44 0 88 9 125 24l-27 -167c-47 -14 -90 -20 -134 -20c-150 0 -302 72 -333 235h-93l16 100h73c0 13 2 27 5 40h-72l16 100h86
c71 162 231 235 389 235c53 0 104 -9 148 -23z" />
    <glyph glyph-name="sterling.tf" 
d="M562 0h-560l23 145h16c49 0 81 41 89 91l5 34h-77l20 130h77l9 54c28 174 148 241 292 241c70 0 129 -14 178 -39l-21 -135c-44 27 -83 39 -133 39c-83 0 -135 -38 -148 -119l-7 -41h178l-20 -130h-178l-7 -44c-7 -44 -22 -68 -54 -81h341z" />
    <glyph glyph-name="yen.tf" 
d="M494 680h206l-222 -320h106l-17 -110h-157l-8 -50h157l-18 -110h-157l-15 -90h-184l15 90h-159l18 110h159l8 50h-159l17 110h108l-120 320h190l75 -271z" />
    <glyph glyph-name="approxequal" unicode="&#x2248;" horiz-adv-x="622" 
d="M602 560c-1 -132 -71 -188 -159 -188c-79 0 -156 55 -190 52c-23 0 -39 -18 -39 -49h-140c2 136 76 188 155 188c87 0 151 -52 193 -52c23 0 39 16 39 49h141zM570 345c-1 -132 -71 -188 -159 -188c-79 0 -156 55 -190 52c-23 0 -39 -18 -39 -49h-140
c2 136 76 188 155 188c87 0 151 -52 193 -52c23 0 39 16 39 49h141z" />
    <glyph glyph-name="asciitilde" unicode="~" horiz-adv-x="606" 
d="M575 425c-1 -132 -71 -188 -159 -188c-79 0 -156 55 -190 52c-23 0 -39 -18 -39 -49h-140c2 136 76 188 155 188c87 0 151 -52 193 -52c23 0 39 16 39 49h141z" />
    <glyph glyph-name="divide" unicode="&#xf7;" horiz-adv-x="544" 
d="M510 280h-480l23 140h480zM347 116c-10 -63 -57 -88 -108 -88c-58 0 -105 35 -93 110c10 62 58 87 108 87c59 0 104 -35 93 -109zM417 563c-10 -63 -57 -88 -108 -88c-58 0 -104 35 -92 110c10 62 58 87 108 87c59 0 104 -35 92 -109z" />
    <glyph glyph-name="emptyset" unicode="&#x2205;" horiz-adv-x="808" 
d="M777 339c-31 -196 -216 -354 -413 -354c-76 0 -145 25 -200 68l-54 -53h-104l107 105c-53 67 -79 157 -63 256c31 196 215 354 413 354c76 0 145 -25 200 -69l54 54h104l-107 -105c53 -67 79 -157 63 -256zM132 339c-8 -66 8 -126 42 -173l427 419c-40 29 -90 45 -145 45
c-159 0 -304 -130 -324 -291zM226 114c40 -28 89 -44 145 -44c158 0 304 130 324 291c8 66 -9 126 -43 173z" />
    <glyph glyph-name="equal" unicode="=" horiz-adv-x="590" 
d="M550 384h-480l22 140h480zM517 176h-480l22 140h480z" />
    <glyph glyph-name="greater" unicode="&#x3e;" horiz-adv-x="510" 
d="M470 265l-433 -143l24 153l280 80l-256 70l24 150l388 -140z" />
    <glyph glyph-name="greaterequal" unicode="&#x2265;" horiz-adv-x="523" 
d="M477 320l-433 -143l24 153l280 80l-256 70l24 150l388 -140zM426 0h-410l22 140h410z" />
    <glyph glyph-name="infinity" unicode="&#x221e;" horiz-adv-x="884" 
d="M464 461c61 62 127 107 211 107c105 0 197 -82 175 -221c-20 -127 -118 -199 -225 -199c-92 0 -146 54 -183 107c-61 -62 -127 -107 -211 -107c-105 0 -197 82 -175 221c20 127 118 199 225 199c82 0 146 -54 183 -107zM378 367c-24 41 -52 61 -85 61
c-35 0 -74 -20 -81 -71c-6 -41 17 -69 51 -69c41 0 76 29 115 79zM694 359c6 42 -18 69 -50 69c-46 0 -79 -29 -117 -79c25 -41 53 -61 86 -61c35 0 72 17 81 71z" />
    <glyph glyph-name="integral" unicode="&#x222b;" horiz-adv-x="481" 
d="M205 606c24 152 131 189 224 189c47 0 87 -9 120 -21l-22 -144c-15 8 -39 15 -63 15c-42 0 -85 -15 -95 -76l-97 -614c-22 -142 -131 -190 -225 -190c-47 0 -91 10 -119 22l23 143c14 -8 38 -15 64 -15c42 0 84 22 93 77z" />
    <glyph glyph-name="less" unicode="&#x3c;" horiz-adv-x="511" 
d="M445 275l-24 -150l-388 140l27 170l432 140l-24 -153l-278 -76z" />
    <glyph glyph-name="lessequal" unicode="&#x2264;" horiz-adv-x="523" 
d="M467 320l-24 -150l-388 140l27 170l432 140l-24 -153l-278 -76zM416 0h-410l22 140h410z" />
    <glyph glyph-name="logicalnot" unicode="&#xac;" horiz-adv-x="577" 
d="M509 220h-140l19 120h-340l22 140h480z" />
    <glyph glyph-name="minus" unicode="&#x2212;" horiz-adv-x="521" 
d="M463 280h-410l23 140h410z" />
    <glyph glyph-name="multiply" unicode="&#xd7;" horiz-adv-x="516" 
d="M256 258l-144 -124l-80 92l144 124l-105 124l104 92l104 -124l144 124l80 -92l-143 -124l104 -124l-104 -92z" />
    <glyph glyph-name="notequal" unicode="&#x2260;" horiz-adv-x="590" 
d="M172 76h-122l70 100h-83l22 140h160l48 68h-197l22 140h274l71 100h122l-70 -100h83l-22 -140h-160l-48 -68h197l-22 -140h-274z" />
    <glyph glyph-name="partialdiff" unicode="&#x2202;" horiz-adv-x="581" 
d="M547 289c-31 -198 -144 -304 -310 -304c-142 0 -240 100 -219 246c19 134 116 214 226 214c66 0 120 -29 140 -66c5 13 6 27 5 44c-6 94 -89 152 -242 142l15 150c260 0 431 -137 385 -426zM189 204c-2 -28 -2 -89 69 -89c79 0 100 71 104 111c2 28 1 89 -70 89
c-79 0 -99 -71 -103 -111z" />
    <glyph glyph-name="percent" unicode="%" horiz-adv-x="936" 
d="M265 -60h-112l539 820h112zM444 524c-18 -114 -111 -169 -209 -169c-102 0 -188 65 -168 191c18 114 110 169 209 169c100 0 188 -65 168 -191zM196 524c-1 -24 9 -49 48 -49c46 0 69 35 71 71c0 24 -10 49 -48 49c-47 0 -69 -35 -71 -71zM886 154
c-19 -114 -111 -169 -209 -169c-102 0 -189 65 -169 191c18 114 111 169 210 169c100 0 187 -65 168 -191zM638 154c-1 -24 9 -49 48 -49c46 0 68 35 70 71c1 24 -9 49 -47 49c-47 0 -70 -35 -71 -71z" />
    <glyph glyph-name="perthousand" unicode="&#x2030;" horiz-adv-x="1355" 
d="M265 -60h-112l539 820h112zM444 524c-18 -114 -111 -169 -209 -169c-102 0 -188 65 -168 191c18 114 110 169 209 169c100 0 188 -65 168 -191zM196 524c-1 -24 9 -49 48 -49c46 0 69 35 71 71c0 24 -10 49 -48 49c-47 0 -69 -35 -71 -71zM886 154
c-19 -114 -111 -169 -209 -169c-102 0 -189 65 -169 191c18 114 111 169 210 169c100 0 187 -65 168 -191zM638 154c-1 -24 9 -49 48 -49c46 0 68 35 70 71c1 24 -9 49 -47 49c-47 0 -70 -35 -71 -71zM1306 154c-19 -114 -111 -169 -209 -169c-102 0 -189 65 -169 191
c18 114 111 169 210 169c100 0 187 -65 168 -191zM1058 154c-1 -24 9 -49 48 -49c46 0 68 35 70 71c1 24 -9 49 -47 49c-47 0 -70 -35 -71 -71z" />
    <glyph glyph-name="plus" unicode="+" horiz-adv-x="546" 
d="M364 420h170l-23 -140h-169l-27 -170h-140l27 170h-171l23 140h170l27 170h140z" />
    <glyph glyph-name="plusminus" unicode="&#xb1;" horiz-adv-x="580" 
d="M421 670l-27 -170h170l-22 -140h-170l-27 -170h-140l27 170h-170l22 140h170l27 170h140zM485 0h-480l22 140h480z" />
    <glyph glyph-name="product" unicode="&#x220f;" horiz-adv-x="804" 
d="M221 -220h-185l123 775h-85l23 145h740l-23 -145h-85l-123 -775h-185l123 775h-200z" />
    <glyph glyph-name="radical" unicode="&#x221a;" horiz-adv-x="789" 
d="M377 0h-151l-94 315h-109l26 165h217l64 -271l352 571h195z" />
    <glyph glyph-name="summation" unicode="&#x2211;" horiz-adv-x="590" 
d="M500 0h-510l17 106l260 251l-181 250l15 93h504l-26 -165h-235l122 -168l-6 -38l-170 -164h236z" />
    <glyph glyph-name="lozenge" unicode="&#x25ca;" horiz-adv-x="610" 
d="M354 0h-190l-125 350l234 350h190l126 -350zM210 329l61 -173l142 215l-60 173z" />
    <glyph glyph-name="bar" unicode="|" horiz-adv-x="285" 
d="M166 -100h-170l144 910h170z" />
    <glyph glyph-name="brokenbar" unicode="&#xa6;" horiz-adv-x="295" 
d="M255 430h-170l60 380h170zM171 -100h-170l60 380h170z" />
    <glyph glyph-name="at" unicode="@" horiz-adv-x="1046" 
d="M26 251c38 238 242 464 563 464c319 0 447 -246 416 -446c-29 -181 -120 -264 -265 -264c-85 0 -146 45 -159 100c-31 -45 -75 -73 -143 -73c-130 0 -174 115 -157 217c14 91 80 196 211 196c61 0 107 -35 128 -71l10 59h122l-39 -245c-6 -40 5 -63 41 -63
c64 0 90 69 104 156c21 131 -55 299 -274 299c-227 0 -383 -158 -412 -341c-36 -231 136 -337 333 -337c74 0 150 14 224 37l-14 -139c-77 -26 -153 -34 -221 -34c-280 0 -519 164 -468 485zM590 283c-7 29 -29 49 -63 49c-63 0 -100 -48 -108 -100c-6 -39 7 -87 62 -87
c42 0 80 28 96 57z" />
    <glyph glyph-name="ampersand" unicode="&#x26;" horiz-adv-x="733" 
d="M534 350h164c-7 -77 -48 -158 -112 -224l110 -126h-178l-39 44c-65 -37 -141 -59 -223 -59c-155 0 -254 83 -235 205c15 92 85 143 165 183c-33 42 -61 96 -51 157c19 113 125 185 265 185c128 0 222 -86 203 -191c-18 -99 -108 -150 -198 -192l86 -98
c23 33 39 72 43 116zM385 585c-55 0 -88 -32 -94 -74c-4 -25 9 -53 29 -80c64 25 115 46 124 93c5 25 -10 61 -59 61zM195 193c-6 -41 25 -71 88 -71c35 0 71 9 104 24l-114 127c-41 -19 -72 -41 -78 -80z" />
    <glyph glyph-name="paragraph" unicode="&#xb6;" horiz-adv-x="782" 
d="M354 -220h-175l76 479c-142 1 -220 88 -197 232c21 132 117 209 263 209h454l-146 -920h-175l120 755h-100z" />
    <glyph glyph-name="copyright" unicode="&#xa9;" horiz-adv-x="844" 
d="M816 339c-38 -237 -242 -354 -434 -354c-190 0 -374 127 -335 376c38 237 242 354 434 354c190 0 374 -127 335 -376zM562 175c-44 -22 -83 -30 -142 -30c-86 0 -209 63 -186 208s153 202 247 202c50 0 100 -14 135 -38l-15 -96c-28 16 -62 25 -95 25
c-55 0 -122 -24 -134 -97c-11 -70 40 -95 87 -95s87 12 120 31zM104 339c-25 -200 121 -299 281 -299c168 0 348 109 374 321c25 200 -121 299 -281 299c-168 0 -348 -109 -374 -321z" />
    <glyph glyph-name="registered" unicode="&#xae;" horiz-adv-x="844" 
d="M816 339c-38 -237 -242 -354 -434 -354c-190 0 -374 127 -335 376c38 237 242 354 434 354c190 0 374 -127 335 -376zM104 339c-25 -200 121 -299 281 -299c168 0 348 109 374 321c25 200 -121 299 -281 299c-168 0 -348 -109 -374 -321zM354 162h-115l62 390h185
c79 0 166 -48 149 -152c-9 -58 -50 -97 -101 -112l82 -126h-124l-73 118h-6h-41zM399 448l-12 -76h65c26 0 55 3 61 39c4 24 -16 37 -41 37h-73z" />
    <glyph glyph-name="section" unicode="&#xa7;" horiz-adv-x="531" 
d="M453 109c-18 -114 -136 -144 -243 -144c-71 0 -130 17 -183 46l19 124c47 -28 108 -44 159 -44c45 0 71 4 75 25s-32 35 -94 56c-74 25 -150 66 -138 161c7 59 41 95 86 124c-27 21 -47 58 -38 116c17 111 125 142 227 142c74 0 134 -20 182 -44l-19 -124
c-35 24 -102 43 -154 43c-29 0 -61 -3 -64 -25c-3 -25 46 -37 103 -61c72 -30 143 -67 130 -155c-6 -44 -34 -87 -83 -119c25 -23 45 -61 35 -121zM252 309c18 -6 37 -11 55 -16c17 12 27 23 29 43c2 26 -16 37 -41 46c-16 5 -36 10 -55 17c-20 -12 -31 -23 -34 -43
c-4 -25 18 -38 46 -47z" />
    <glyph glyph-name="trademark" unicode="&#x2122;" horiz-adv-x="688" 
d="M419 440h-94l41 260h87l55 -116l83 116h101l-41 -260h-94l17 107l-41 -57h-71l-26 55zM223 440h-94l28 176h-72l13 84h238l-13 -84h-72z" />
    <glyph glyph-name="degree" unicode="&#xb0;" horiz-adv-x="428" 
d="M439 528c-18 -112 -109 -169 -207 -169c-99 0 -185 67 -166 191c17 106 110 165 206 165c101 0 185 -69 167 -187zM189 528c-2 -34 18 -54 53 -54c43 0 71 30 72 76c1 31 -17 50 -52 50c-43 0 -71 -29 -73 -72z" />
    <glyph glyph-name="asciicircum" unicode="^" horiz-adv-x="631" 
d="M226 340h-186l267 360h150l153 -360h-174l-72 195z" />
    <glyph glyph-name="dagger" unicode="&#x2020;" horiz-adv-x="557" 
d="M290 -220h-185l85 535h-158l26 165h158l35 220h185l-35 -220h157l-26 -165h-157z" />
    <glyph glyph-name="daggerdbl" unicode="&#x2021;" horiz-adv-x="607" 
d="M316 -220h-185l35 220h-165l25 160h165l26 160h-165l25 160h165l35 220h185l-35 -220h165l-25 -160h-165l-26 -160h165l-25 -160h-165z" />
    <glyph glyph-name="acute" unicode="&#xb4;" horiz-adv-x="270" 
d="M272 760h-173l113 150h193z" />
    <glyph glyph-name="breve" unicode="&#x2d8;" horiz-adv-x="370" 
d="M454 780c-47 -29 -92 -46 -166 -46s-125 17 -164 46l20 126c49 -33 97 -42 154 -42s117 9 176 42z" />
    <glyph glyph-name="caron" unicode="&#x2c7;" horiz-adv-x="390" 
d="M526 920l-155 -160h-150l-105 160h150l39 -65l62 65h159z" />
    <glyph glyph-name="cedilla" unicode="&#xb8;" horiz-adv-x="225" 
d="M25 0h112l-20 -44c61 -10 83 -46 74 -102c-11 -68 -95 -89 -156 -89c-39 0 -77 5 -110 18l15 97c18 -10 48 -16 75 -16s56 6 59 26c4 23 -33 31 -79 25z" />
    <glyph glyph-name="circumflex" unicode="&#x2c6;" horiz-adv-x="390" 
d="M241 910h150l95 -160h-149l-31 55l-49 -55h-161z" />
    <glyph glyph-name="dieresis" unicode="&#xa8;" horiz-adv-x="370" 
d="M489 820c-6 -41 -46 -74 -89 -74c-51 0 -86 43 -78 96c7 41 46 74 89 74c51 0 86 -43 78 -96zM269 820c-6 -41 -46 -74 -89 -74c-51 0 -86 43 -78 96c7 41 46 74 89 74c51 0 86 -43 78 -96z" />
    <glyph glyph-name="dotaccent" unicode="&#x2d9;" horiz-adv-x="180" 
d="M292 835c-9 -57 -52 -79 -98 -79c-54 0 -96 32 -85 101c9 56 52 79 98 79c54 0 96 -33 85 -101z" />
    <glyph glyph-name="grave" unicode="`" horiz-adv-x="290" 
d="M379 760h-167l-87 150h187z" />
    <glyph glyph-name="hungarumlaut" unicode="&#x2dd;" horiz-adv-x="460" 
d="M487 770h-152l99 157h162zM292 770h-152l99 157h162z" />
    <glyph glyph-name="macron" unicode="&#xaf;" horiz-adv-x="360" 
d="M130 898h340l-21 -130h-340z" />
    <glyph glyph-name="ogonek" unicode="&#x2db;" horiz-adv-x="230" 
d="M55 0h138c-44 -26 -77 -65 -77 -89c0 -13 8 -21 28 -21c10 0 22 3 33 8l-18 -115c-27 -13 -53 -18 -85 -18c-83 0 -122 53 -111 117c7 37 36 81 92 118z" />
    <glyph glyph-name="ring" unicode="&#x2da;" horiz-adv-x="260" 
d="M373 845c-12 -75 -74 -115 -140 -115c-63 0 -130 50 -117 137c12 72 75 113 140 113c64 0 130 -51 117 -135zM209 858c-3 -25 12 -38 32 -38c19 0 36 11 39 32c4 24 -12 38 -32 38c-18 0 -36 -11 -39 -32z" />
    <glyph glyph-name="tilde" unicode="&#x2dc;" horiz-adv-x="359" 
d="M484 904c10 -93 -41 -157 -115 -157c-61 0 -109 42 -137 42c-24 0 -28 -31 -26 -36h-116c-10 93 41 157 115 157c61 0 109 -42 137 -42c24 0 28 31 26 36h116z" />
    <glyph glyph-name="uni0326" unicode="&#x326;" horiz-adv-x="168" 
d="M103 -260h-137l60 200h157z" />
    <glyph glyph-name="A" unicode="A" horiz-adv-x="751" 
d="M704 0h-186l-23 110h-290l-57 -110h-194l386 700h200zM387 458l-103 -198h180l-38 196c-4 19 -7 43 -8 77c-11 -33 -20 -55 -31 -75z" />
    </font>
</defs>
</svg>
