<?xml version="1.0" encoding="UTF-8" standalone="no"?>
<!-- Created with Inkscape (http://www.inkscape.org/) -->

<svg
   xmlns:dc="http://purl.org/dc/elements/1.1/"
   xmlns:cc="http://creativecommons.org/ns#"
   xmlns:rdf="http://www.w3.org/1999/02/22-rdf-syntax-ns#"
   xmlns:svg="http://www.w3.org/2000/svg"
   xmlns="http://www.w3.org/2000/svg"
   xmlns:sodipodi="http://sodipodi.sourceforge.net/DTD/sodipodi-0.dtd"
   xmlns:inkscape="http://www.inkscape.org/namespaces/inkscape"
   width="380"
   height="90"
   viewBox="0 0 380 90.000001"
   id="svg2"
   version="1.1"
   inkscape:version="0.91 r13725"
   sodipodi:docname="cleanTime.svg">
  <defs
     id="defs4" />
  <sodipodi:namedview
     id="base"
     pagecolor="#ffffff"
     bordercolor="#666666"
     borderopacity="1.0"
     inkscape:pageopacity="0.0"
     inkscape:pageshadow="2"
     inkscape:zoom="1.5601699"
     inkscape:cx="196.85831"
     inkscape:cy="67.492561"
     inkscape:document-units="px"
     inkscape:current-layer="layer1"
     showgrid="false"
     units="px"
     showborder="true"
     inkscape:showpageshadow="false"
     inkscape:window-width="1920"
     inkscape:window-height="1135"
     inkscape:window-x="0"
     inkscape:window-y="0"
     inkscape:window-maximized="1" />
  <metadata
     id="metadata7">
    <rdf:RDF>
      <cc:Work
         rdf:about="">
        <dc:format>image/svg+xml</dc:format>
        <dc:type
           rdf:resource="http://purl.org/dc/dcmitype/StillImage" />
        <dc:title></dc:title>
      </cc:Work>
    </rdf:RDF>
  </metadata>
  <g
     inkscape:label="Layer 1"
     inkscape:groupmode="layer"
     id="layer1"
     transform="translate(0,-962.36216)">
    <g
       style="font-style:normal;font-variant:normal;font-weight:normal;font-stretch:normal;font-size:40px;line-height:125%;font-family:Carlito;-inkscape-font-specification:Carlito;letter-spacing:0px;word-spacing:0px;fill:#000000;fill-opacity:1;stroke:none;stroke-width:1px;stroke-linecap:butt;stroke-linejoin:miter;stroke-opacity:1"
       id="text8068">
      <path
         d="m 44.19309,1006.9325 q -1.054688,9.0234 -6.679688,13.9453 -5.585937,4.8828 -14.882812,4.8828 -10.078125,0 -16.171875,-7.2265 -6.05468754,-7.2266 -6.05468754,-19.33598 l 0,-5.46875 q 0,-7.92969 2.81250004,-13.94531 2.8515625,-6.01563 8.0468745,-9.21875 5.195313,-3.24219 12.03125,-3.24219 9.0625,0 14.53125,5.07813 5.46875,5.03906 6.367188,13.98437 l -7.539063,0 q -0.976562,-6.79687 -4.257812,-9.84375 -3.242188,-3.04687 -9.101563,-3.04687 -7.1875,0 -11.289062,5.3125 -4.0625,5.3125 -4.0625,15.11718 l 0,5.50782 q 0,9.2578 3.867187,14.7266 3.867188,5.4687 10.820313,5.4687 6.25,0 9.570312,-2.8125 3.359375,-2.8516 4.453125,-9.8828 l 7.539063,0 z"
         style="font-style:normal;font-variant:normal;font-weight:normal;font-stretch:normal;font-family:Roboto;-inkscape-font-specification:Roboto;fill:#4fafe3"
         id="path8220" />
      <path
         d="m 90.638402,1025.7606 q -8.59375,0 -13.984375,-5.625 -5.390625,-5.664 -5.390625,-15.1172 l 0,-1.3281 q 0,-6.28905 2.382813,-11.21093 2.421875,-4.96094 6.71875,-7.73437 4.335937,-2.8125 9.375,-2.8125 8.242187,0 12.812495,5.42968 4.57032,5.42969 4.57032,15.54692 l 0,3.0078 -28.632815,0 q 0.15625,6.25 3.632812,10.1172 3.515625,3.8281 8.90625,3.8281 3.828125,0 6.484375,-1.5625 2.656248,-1.5625 4.648438,-4.1406 l 4.41406,3.4375 q -5.3125,8.164 -15.937498,8.164 z M 89.739965,987.87 q -4.375,0 -7.34375,3.20312 -2.96875,3.16406 -3.671875,8.90625 l 21.171875,0 0,-0.54687 q -0.3125,-5.50782 -2.96875,-8.51563 -2.65625,-3.04687 -7.1875,-3.04687 z"
         style="font-style:normal;font-variant:normal;font-weight:normal;font-stretch:normal;font-family:Roboto;-inkscape-font-specification:Roboto;fill:#4fafe3"
         id="path8222" />
      <path
         d="m 141.53684,1024.9794 q -0.625,-1.25 -1.01563,-4.4532 -5.03906,5.2344 -12.03125,5.2344 -6.25,0 -10.27343,-3.5156 -3.98438,-3.5547 -3.98438,-8.9844 0,-6.6015 5,-10.2344 5.03906,-3.67183 14.14063,-3.67183 l 7.03125,0 0,-3.32031 q 0,-3.78906 -2.26563,-6.01563 -2.26562,-2.26562 -6.67969,-2.26562 -3.86718,0 -6.48437,1.95312 -2.61719,1.95313 -2.61719,4.72657 l -7.26562,0 q 0,-3.16407 2.22656,-6.09375 2.26562,-2.96875 6.09375,-4.6875 3.86719,-1.71875 8.47656,-1.71875 7.30469,0 11.44531,3.67187 4.14063,3.63281 4.29688,10.03906 l 0,19.45317 q 0,5.8203 1.48437,9.2578 l 0,0.625 -7.57812,0 z m -11.99219,-5.5078 q 3.39844,0 6.44531,-1.7579 3.04688,-1.7578 4.41407,-4.5703 l 0,-8.6718 -5.66407,0 q -13.28125,0 -13.28125,7.7734 0,3.3984 2.26563,5.3125 2.26562,1.9141 5.82031,1.9141 z"
         style="font-style:normal;font-variant:normal;font-weight:normal;font-stretch:normal;font-family:Roboto;-inkscape-font-specification:Roboto;fill:#4fafe3"
         id="path8224" />
      <path
         d="m 165.87278,982.71375 0.23437,5.3125 q 4.84375,-6.09375 12.65625,-6.09375 13.39844,0 13.51563,15.11718 l 0,27.92972 -7.22657,0 0,-27.96878 q -0.0391,-4.57031 -2.10937,-6.75781 -2.03125,-2.1875 -6.36719,-2.1875 -3.51562,0 -6.17187,1.875 -2.65625,1.875 -4.14063,4.92187 l 0,30.11722 -7.22656,0 0,-42.26565 6.83594,0 z"
         style="font-style:normal;font-variant:normal;font-weight:normal;font-stretch:normal;font-family:Roboto;-inkscape-font-specification:Roboto;fill:#4fafe3"
         id="path8226" />
      <path
         d="m 243.68528,974.27625 -18.28125,0 0,50.70315 -7.46094,0 0,-50.70315 -18.24219,0 0,-6.17188 43.98438,0 0,6.17188 z"
         style="font-style:normal;font-variant:normal;font-weight:normal;font-stretch:normal;font-family:Roboto;-inkscape-font-specification:Roboto;fill:#fff"
         id="path8228" />
      <path
         style="font-style:normal;font-variant:normal;font-weight:normal;font-stretch:normal;font-family:Roboto;-inkscape-font-specification:Roboto;fill:#fff"
         d="m 258.91965,1024.9794 -7.22656,0 0,-42.26565 7.22656,0 0,42.26565 z"
         id="path8250" />
      <path
         style="font-style:normal;font-variant:normal;font-weight:normal;font-stretch:normal;font-family:Roboto;-inkscape-font-specification:Roboto;fill:#4fafe3;fill-opacity:1"
         d="m 251.10715,971.50281 q 0,-1.75781 1.05469,-2.96875 1.09375,-1.21094 3.20312,-1.21094 2.10938,0 3.20313,1.21094 1.09375,1.21094 1.09375,2.96875 0,1.75781 -1.09375,2.92969 -1.09375,1.17187 -3.20313,1.17187 -2.10937,0 -3.20312,-1.17187 -1.05469,-1.17188 -1.05469,-2.92969 z"
         id="path8230" />
      <path
         d="m 277.23996,982.71375 0.19532,4.6875 q 4.64843,-5.46875 12.53906,-5.46875 8.86719,0 12.07031,6.79687 2.10938,-3.04687 5.46875,-4.92187 3.39844,-1.875 8.00781,-1.875 13.90625,0 14.14063,14.72656 l 0,28.32034 -7.22656,0 0,-27.89065 q 0,-4.53125 -2.07032,-6.75782 -2.07031,-2.26562 -6.95312,-2.26562 -4.02344,0 -6.67969,2.42187 -2.65625,2.38282 -3.08594,6.44532 l 0,28.0469 -7.26562,0 0,-27.69534 q 0,-9.21875 -9.02344,-9.21875 -7.10937,0 -9.72656,6.05469 l 0,30.8594 -7.22656,0 0,-42.26565 6.83593,0 z"
         style="font-style:normal;font-variant:normal;font-weight:normal;font-stretch:normal;font-family:Roboto;-inkscape-font-specification:Roboto;fill:#fff"
         id="path8232" />
      <path
         d="m 358.1384,1025.7606 q -8.59375,0 -13.98437,-5.625 -5.39063,-5.664 -5.39063,-15.1172 l 0,-1.3281 q 0,-6.28905 2.38281,-11.21093 2.42188,-4.96094 6.71875,-7.73437 4.33594,-2.8125 9.375,-2.8125 8.24219,0 12.8125,5.42968 4.57032,5.42969 4.57032,15.54692 l 0,3.0078 -28.63282,0 q 0.15625,6.25 3.63282,10.1172 3.51562,3.8281 8.90625,3.8281 3.82812,0 6.48437,-1.5625 2.65625,-1.5625 4.64844,-4.1406 l 4.41406,3.4375 q -5.3125,8.164 -15.9375,8.164 z M 357.23996,987.87 q -4.375,0 -7.34375,3.20312 -2.96875,3.16406 -3.67187,8.90625 l 21.17187,0 0,-0.54687 q -0.3125,-5.50782 -2.96875,-8.51563 -2.65625,-3.04687 -7.1875,-3.04687 z"
         style="font-style:normal;font-variant:normal;font-weight:normal;font-stretch:normal;font-family:Roboto;-inkscape-font-specification:Roboto;fill:#fff"
         id="path8234" />
    </g>
    <g
       id="g8142"
       transform="matrix(0.1308529,-0.06673139,0.06673139,0.1308529,-32.836299,1014.0343)"
       inkscape:transform-center-x="-15.497459"
       inkscape:transform-center-y="25.359235"
       style="fill:#4fafe3;fill-opacity:1">
      <g
         id="g8092"
         style="fill:#4fafe3;fill-opacity:1">
        <g
           id="g8094"
           style="fill:#4fafe3;fill-opacity:1">
          <path
             id="path8096"
             d="M 662.688,13.546 491.347,345.754 c 0.983,0.276 1.964,0.569 2.938,0.883 7.235,2.33 14.028,5.17 20.353,8.499 7.646,4.025 14.597,8.771 20.807,14.198 L 707.126,36.466 c 6.329,-12.271 1.513,-27.35 -10.759,-33.679 -12.272,-6.33 -27.349,-1.513 -33.679,10.759 z"
             inkscape:connector-curvature="0"
             style="fill:#4fafe3;fill-opacity:1" />
          <path
             id="path8098"
             d="m 542.75164,516.8404 c -11.75348,-0.0281 -24.30078,-2.14188 -37.29265,-6.28361 -21.94054,-6.99338 -37.49898,-17.28649 -38.15052,-17.72083 -0.0181,-0.012 -0.0361,-0.0246 -0.0537,-0.0365 -0.20354,-0.13948 -0.39683,-0.29216 -0.57941,-0.45762 -0.0442,-0.0401 -0.0874,-0.0806 -0.13034,-0.12197 -15.85124,-15.33574 -23.65248,-32.31271 -23.1863,-50.45888 0.61304,-23.86577 14.71411,-47.80722 31.23256,-64.40627 4.72976,-4.75213 11.08766,-8.21604 17.83219,-8.68626 0.50255,-0.0349 1.00663,-0.0573 1.51289,-0.0586 2.22102,-0.004 4.42204,0.30325 6.56624,0.84879 1.85844,0.47295 3.67418,1.12471 5.42118,1.91482 0.72549,0.32793 1.41142,0.70046 2.06393,1.10843 0.90574,0.5661 1.74462,1.20264 2.5177,1.9032 5.72729,5.19013 7.9558,13.76543 8.818,21.24264 0.88986,7.72154 1.53584,15.84343 3.49142,23.51887 2.14312,8.41187 6.40896,15.53584 10.95759,22.8378 5.87494,9.43096 12.71126,18.24911 20.05605,26.5763 6.53055,7.40338 13.4679,14.55402 20.814,21.21112 2.91563,2.64219 5.89455,5.20549 8.93929,7.67754 0.17648,0.14355 0.35238,0.28776 0.53102,0.42847 0.0993,0.0784 0.19617,0.16002 0.28924,0.24436 1.24794,1.13089 1.90768,2.78297 1.76844,4.47594 -0.14936,1.81915 -1.20031,3.44222 -2.79936,4.32211 -12.02533,6.61823 -25.69155,9.95584 -40.61941,9.9202 z m 26.21768,-17.5751 c -0.002,-0.002 -0.005,-0.004 -0.007,-0.007 -0.41027,-0.36704 -0.8337,-0.74772 -1.26677,-1.14017 -5.93814,-5.3812 -13.97439,-13.14241 -22.29951,-22.61093 -17.61471,-20.03333 -29.29394,-39.32203 -34.86825,-57.53009 -0.15838,-0.51713 -0.45221,-0.97019 -0.83969,-1.32134 -0.36588,-0.33156 -0.81462,-0.57217 -1.3111,-0.69041 -10.55388,-2.51227 -26.70116,-6.69541 -37.03167,-10.98395 -1.27852,-0.53075 -2.75359,-0.10453 -3.56024,1.02039 -6.4498,8.99117 -13.20036,21.75458 -13.54938,36.10398 -0.3571,14.69663 6.09709,28.69473 19.18864,41.62083 0.0402,0.0409 0.0824,0.0799 0.12493,0.11838 0.17663,0.16009 0.36678,0.30386 0.56905,0.43137 1.59226,1.00143 5.56996,3.41692 11.24713,6.28367 -0.77686,-1.74566 -1.49529,-3.64552 -2.15632,-5.63735 -0.59158,-1.78359 -1.1381,-3.63793 -1.64063,-5.51597 -1.55569,-5.80869 -2.6966,-11.83696 -3.47285,-16.65005 -0.17998,-1.11311 1.35625,-1.57774 1.83411,-0.55617 3.82243,8.17633 10.1337,17.04707 16.15288,24.5734 1.8919,2.36567 3.75404,4.5967 5.5016,6.63352 2.04403,2.38246 3.92939,4.4953 5.51986,6.23928 0.63511,0.21102 1.2742,0.42002 1.92056,0.62437 5.5523,1.7582 10.9967,3.10726 16.30462,4.05245 -1.35336,-1.47549 -2.68363,-3.12725 -3.96778,-4.87428 -1.16648,-1.58723 -2.29388,-3.25053 -3.36723,-4.92765 -3.16087,-4.93826 -5.84478,-9.98913 -7.61228,-13.51941 -0.33635,-0.67192 0.55025,-1.27857 1.05648,-0.72293 4.53105,4.97608 11.37649,11.25949 17.33454,16.50132 1.95164,1.71713 3.80747,3.32193 5.45594,4.73277 2.16804,1.8553 3.97517,3.37403 5.16832,4.36878 1.18599,0.0469 2.36445,0.0749 3.53182,0.0755 1.51037,0.001 3.00368,-0.0407 4.48231,-0.11777 -1.08384,-1.20271 -2.15085,-2.51558 -3.19106,-3.89669 -0.97255,-1.29164 -1.92056,-2.64092 -2.83456,-4.01474 -3.61124,-5.42423 -6.69479,-11.20221 -8.65368,-15.11393 -0.33615,-0.67216 0.55045,-1.27881 1.05667,-0.7232 4.25364,4.67194 10.54721,10.49546 16.23138,15.52801 1.40217,1.24125 2.76635,2.43426 4.05437,3.55002 1.43328,1.24176 2.77157,2.38794 3.95957,3.39792 3.6032,-0.69131 7.09109,-1.6376 10.45311,-2.84151 1.03704,-0.37088 1.29766,-1.72208 0.48257,-2.46073 z"
             inkscape:connector-curvature="0"
             style="fill:#4fafe3;fill-opacity:1" />
          <path
             style="fill:#4fafe3;fill-opacity:1"
             d="m 682.31316,528.85815 a 12.466295,12.466295 0 0 1 -12.4663,12.4663 12.466295,12.466295 0 0 1 -12.46629,-12.4663 12.466295,12.466295 0 0 1 12.46629,-12.46629 12.466295,12.466295 0 0 1 12.4663,12.46629 z"
             id="circle8100" />
          <path
             style="fill:#4fafe3;fill-opacity:1"
             d="m 774.33515,586.00368 a 24.7386,24.7386 0 0 1 -24.7386,24.7386 24.7386,24.7386 0 0 1 -24.7386,-24.7386 24.7386,24.7386 0 0 1 24.7386,-24.73859 24.7386,24.7386 0 0 1 24.7386,24.73859 z"
             id="circle8102"
             inkscape:connector-curvature="0" />
          <path
             style="fill:#4fafe3;fill-opacity:1"
             d="m 645.73177,579.71613 a 16.384422,16.384422 0 0 1 -16.38442,16.38442 16.384422,16.384422 0 0 1 -16.38442,-16.38442 16.384422,16.384422 0 0 1 16.38442,-16.38443 16.384422,16.384422 0 0 1 16.38442,16.38443 z"
             id="circle8104" />
        </g>
      </g>
      <g
         id="g8106"
         style="fill:#4fafe3;fill-opacity:1" />
      <g
         id="g8108"
         style="fill:#4fafe3;fill-opacity:1" />
      <g
         id="g8110"
         style="fill:#4fafe3;fill-opacity:1" />
      <g
         id="g8112"
         style="fill:#4fafe3;fill-opacity:1" />
      <g
         id="g8114"
         style="fill:#4fafe3;fill-opacity:1" />
      <g
         id="g8116"
         style="fill:#4fafe3;fill-opacity:1" />
      <g
         id="g8118"
         style="fill:#4fafe3;fill-opacity:1" />
      <g
         id="g8120"
         style="fill:#4fafe3;fill-opacity:1" />
      <g
         id="g8122"
         style="fill:#4fafe3;fill-opacity:1" />
      <g
         id="g8124"
         style="fill:#4fafe3;fill-opacity:1" />
      <g
         id="g8126"
         style="fill:#4fafe3;fill-opacity:1" />
      <g
         id="g8128"
         style="fill:#4fafe3;fill-opacity:1" />
      <g
         id="g8130"
         style="fill:#4fafe3;fill-opacity:1" />
      <g
         id="g8132"
         style="fill:#4fafe3;fill-opacity:1" />
      <g
         id="g8134"
         style="fill:#4fafe3;fill-opacity:1" />
    </g>
    <path
       style="opacity:0.03999999;fill:#2a7fff;fill-opacity:1;stroke:none"
       d="m 86.985737,1025.3227 c -7.305575,-1.2231 -12.842389,-6.359 -14.835406,-13.7614 -0.800816,-2.9744 -0.788514,-11.79681 0.02056,-14.74199 2.440286,-8.88313 9.540865,-14.76196 17.798976,-14.73642 2.472846,0.008 5.931992,0.786 8.008765,1.80207 2.498908,1.22261 5.207168,4.0688 6.572308,6.90705 1.55311,3.22905 2.10774,5.77896 2.33914,10.75439 l 0.19749,4.2463 -14.309262,0 -14.309269,0 0,1.2146 c 0,1.6458 0.787142,4.5518 1.744911,6.4419 1.061147,2.0941 3.31765,4.2859 5.523441,5.3651 2.379052,1.1639 6.428247,1.4281 9.267757,0.6047 2.035993,-0.5905 5.439432,-2.8158 6.469842,-4.2303 l 0.63469,-0.8713 2.10584,1.5864 c 1.15821,0.8725 2.11242,1.7108 2.12047,1.8629 0.008,0.1521 -1.03093,1.3178 -2.30884,2.5904 -1.53451,1.5281 -3.03081,2.6592 -4.406568,3.3309 -3.478477,1.6985 -8.42853,2.3389 -12.634841,1.6347 z"
       id="path8238" />
    <path
       style="opacity:0;fill:#e3e2db;fill-opacity:1;stroke:none"
       d="m 86.985737,1025.3227 c -7.305575,-1.2231 -12.842389,-6.359 -14.835406,-13.7614 -0.800816,-2.9744 -0.788514,-11.79681 0.02056,-14.74199 1.988029,-7.23682 7.290583,-12.73747 13.745969,-14.25948 3.805372,-0.89721 8.594982,-0.37101 12.061772,1.32513 2.498912,1.22261 5.207172,4.0688 6.572312,6.90705 1.55311,3.22905 2.10774,5.77896 2.33914,10.75439 l 0.19749,4.2463 -14.309266,0 -14.309269,0 0,1.2146 c 0,1.6458 0.787142,4.5518 1.744911,6.4419 1.061147,2.0941 3.31765,4.2859 5.523441,5.3651 2.379052,1.1639 6.428247,1.4281 9.267757,0.6047 2.035993,-0.5905 5.439436,-2.8158 6.469846,-4.2303 l 0.63469,-0.8713 2.10584,1.5864 c 1.15821,0.8725 2.11242,1.7108 2.12047,1.8629 0.008,0.1521 -1.03093,1.3191 -2.30884,2.5934 -1.61416,1.6095 -2.98286,2.6303 -4.483441,3.3436 -3.593082,1.7081 -8.357144,2.3223 -12.557972,1.619 z"
       id="path8242" />
    <path
       style="opacity:0.03999999;fill:#2a7fff;fill-opacity:1;stroke:none"
       d="m 218.19741,999.38314 0,-25.31776 -9.13362,0 -9.13362,0 0,-2.8843 0,-2.8843 21.7925,0 21.79249,0 0,2.8843 0,2.8843 -9.13362,0 -9.13362,0 0,25.31776 0,25.31776 -3.52525,0 -3.52526,0 0,-25.31776 z"
       id="path8208" />
    <path
       style="opacity:0.03999999;fill:#4fafe3;fill-opacity:1;stroke:none"
       d="m 218.11923,999.46325 -0.0821,-25.23763 -9.0535,-0.0851 -9.0535,-0.0851 0,-2.87931 0,-2.87931 21.7925,0 21.79249,0 0,2.8843 0,2.8843 -9.13362,0 -9.13362,0 0,25.31776 0,25.31776 -3.52331,0 -3.52332,0 -0.0821,-25.23764 z"
       id="path8210" />
    <path
       style="opacity:0;fill:#4fafe3;fill-opacity:1;stroke:none"
       d="m 126.45349,56.532666 c -2.39392,-0.765145 -4.0539,-2.41856 -4.62028,-4.60201 -0.87177,-3.360779 0.36513,-6.355057 3.28073,-7.941923 2.29146,-1.247167 4.16845,-1.565081 9.95505,-1.686127 l 5.26873,-0.110214 0,4.287607 0,4.287607 -0.6394,1.007468 c -2.52912,3.984964 -8.71273,6.206141 -13.24483,4.757592 z"
       id="path8252"
       inkscape:connector-curvature="0"
       transform="translate(0,962.36216)" />
    <path
       style="opacity:0.03999999;fill:#4fafe3;fill-opacity:1;stroke:none"
       d="m 198.12381,933.18225 c 0,-0.98309 0.7419,-3.50389 1.50538,-5.11493 1.05914,-2.23492 3.05964,-4.35183 5.0285,-5.3211 1.45258,-0.7151 1.59345,-0.7391 4.33874,-0.7391 2.47093,0 2.98143,0.0664 3.95242,0.51421 3.3488,1.54437 5.52042,5.0455 5.94181,9.57951 l 0.14655,1.57681 -10.4567,0 -10.4567,0 0,-0.4954 z"
       id="path8254"
       inkscape:connector-curvature="0" />
    <path
       style="opacity:0.03999999;fill:#4fafe3;fill-opacity:1;stroke:none"
       d="m 133.76597,932.2758 c 0,-0.27247 0.16497,-1.16476 0.3666,-1.98286 1.26228,-5.12173 4.78572,-8.77545 8.9245,-9.25449 5.39809,-0.62479 9.17107,1.77702 10.78748,6.86712 0.29751,0.93686 0.60705,2.41489 0.68787,3.2845 l 0.14695,1.58113 -10.4567,0 -10.4567,0 0,-0.4954 z"
       id="path8256"
       inkscape:connector-curvature="0" />
  </g>
</svg>
