<?xml version="1.0" encoding="UTF-8" standalone="no"?>
<!DOCTYPE svg  PUBLIC '-//W3C//DTD SVG 1.1//EN'  'http://www.w3.org/Graphics/SVG/1.1/DTD/svg11.dtd'>
<svg version="1.1" xmlns="http://www.w3.org/2000/svg">
<defs>
<font id="DecorCTT" horiz-adv-x="518">
<font-face x-height="388" underline-thickness="56" underline-position="-365" panose-1="0 0 0 0 0 0 0 0 0 0" descent="-200" unicode-range="U+0020-00BB" font-weight="400" cap-height="700" font-family="DecorCTT" ascent="800" units-per-em="1000" bbox="-221 -280 1177 773"/>
<missing-glyph/>
<glyph glyph-name="space" horiz-adv-x="351" unicode=" "/>
<glyph glyph-name="exclam" horiz-adv-x="228" unicode="!" d="M270 675q0 -16 -3 -31.5t-19 -62.5l-144 -430h-20l110 433q12 48 21 69q19 47 41 47q7 0 10 -5t4 -9v-11zM92 55q0 -23 -10.5 -42.5t-23.5 -19.5q-7 2 -10 5q-6 7 -6 16l1 20q4 18 13.5 29.5t19.5 11.5t13 -7.5t3 -12.5z"/>
<glyph glyph-name="quotedbl" horiz-adv-x="360" unicode='&quot;' d="M403 705l-2 -18l-25 -146h-20l-25 146l-2 18q0 18 11.5 24t25.5 6q15 0 26 -5.5t11 -24.5zM277 705l-2 -18l-25 -146h-20l-25 146l-2 18q0 18 11.5 24t25.5 6q15 0 26 -5.5t11 -24.5z"/>
<glyph glyph-name="numbersign" horiz-adv-x="700" unicode="#" d="M632 484l-13 -60h-131l-37 -178h130l-12 -60h-131l-28 -131h-28l28 131h-182l-28 -131h-28l28 131h-131l12 60h132l37 178h-131l13 60h131l28 131h28l-28 -131h182l28 131h28l-28 -131h131zM460 424h-182l-37 -178h182z"/>
<glyph glyph-name="dollar" horiz-adv-x="590" unicode="$" d="M562 574q0 -28 -7.5 -43t-20.5 -15q-14 0 -23 11q-12 14 -12 42q0 18 3 30.5t17 28.5q-19 24 -53 36t-69 12l-73 -281q90 -64 128 -122q34 -52 34 -114q0 -75 -67 -124t-169 -49l-31 2l-19 -70h-22l19 72q-79 8 -126 56q-43 44 -43 99q0 33 12.5 51t27.5 18 q13 0 24.5 -16t11.5 -45q0 -21 -3 -31q-6 -22 -25 -37q16 -29 45.5 -47.5t81.5 -24.5l87 336q-68 52 -98 90q-35 45 -35 90q0 70 38 111q55 60 186 60l18 69h22l-19 -71q59 0 103 -26q57 -34 57 -98zM375 677h-9q-72 0 -118 -37t-46 -90q0 -43 31 -80q24 -28 73 -61z M441 141q0 56 -39 106q-27 35 -94 88l-84 -325l23 -1q87 0 140.5 37t53.5 95z"/>
<glyph glyph-name="percent" horiz-adv-x="715" unicode="%" d="M673 213q-26 -52 -58 -77q-37 -29 -88 -29q-19 0 -29 2q-20 -50 -52 -82q-41 -41 -90 -41q-41 0 -62 30.5t-21 74.5q0 37 17 72q-58 0 -122 -32q-85 -43 -180 -141l-16 13l529 548l-3 4q-34 -23 -72 -34t-66 -11l-33 3q-13 -42 -52 -81q-44 -44 -87 -44q-41 0 -63.5 32 t-22.5 75q0 54 35 113q41 70 104 91v-10q-23 -10 -40.5 -32.5t-37.5 -70.5q-11 -28 -21 -66.5t-10 -60.5q0 -23 16 -39t43 -16q33 0 70.5 35.5t49.5 74.5q-45 10 -69.5 41t-24.5 70q0 29 18 52t47 23q30 0 48.5 -24t18.5 -57q0 -28 -2.5 -45.5t-13.5 -47.5l28 -1 q71 0 145 46q52 32 87 72l40 45l16 -11l-540 -560v-8q55 33 89 47q46 19 97 25q18 38 46 68q34 37 70 46v-10q-24 -12 -42 -35.5t-36 -67.5q-12 -32 -21 -66t-9 -61q0 -33 23 -46q13 -7 33 -7q37 0 73.5 33.5t48.5 74.5q-43 11 -68.5 42t-25.5 70q0 26 19 50t47 24t45 -19 q22 -25 22 -61q0 -21 -5 -47t-12 -47q9 -2 26 -2q34 0 64 19q39 25 65 79zM333 619q0 32 -16 50.5t-34 18.5q-17 0 -29 -9q-20 -15 -20 -51q0 -29 11 -50q19 -36 71 -50q8 19 12.5 45t4.5 46zM503 216q0 29 -13.5 48.5t-36.5 19.5q-21 0 -35 -17t-14 -43q0 -27 14 -52 q21 -38 69 -48q7 20 11.5 45t4.5 47z"/>
<glyph glyph-name="ampersand" horiz-adv-x="774" unicode="&amp;" d="M746 313q0 -20 -7.5 -32t-21.5 -12q-15 0 -24 12t-9 29q0 10 4.5 20.5t15.5 18.5q-2 8 -11 12.5t-20 4.5q-45 0 -95 -82q-78 -128 -120 -173q34 -67 79 -90q25 -13 60 -13q30 0 56 9v-17q-12 -5 -29.5 -9.5t-32.5 -4.5q-63 0 -102.5 22t-66.5 71q-56 -52 -107 -74 q-44 -19 -90 -19q-103 0 -151 75q-32 50 -32 111q0 97 82 166q69 58 178 86q0 134 80 212q66 64 144 64q44 0 70 -30q23 -27 23 -61q0 -46 -45 -89q-70 -68 -228 -100q15 -72 38.5 -139.5t63.5 -149.5q41 41 120 168q51 81 103 81q39 0 59 -23q16 -19 16 -44zM566 613 q0 37 -18 51.5t-45 14.5q-62 0 -111 -64t-49 -136l1 -40q127 44 170 75q52 38 52 99zM412 97q-43 72 -74 155q-34 92 -34 152q-86 -23 -142 -89q-60 -70 -60 -159q0 -61 28 -101q33 -47 95 -47q34 0 68 12q60 21 119 77z"/>
<glyph glyph-name="quotesingle" horiz-adv-x="234" unicode="&apos;" d="M277 705l-2 -18l-25 -146h-20l-25 146l-2 18q0 18 11.5 24t25.5 6q15 0 26 -5.5t11 -24.5z"/>
<glyph glyph-name="parenleft" horiz-adv-x="350" unicode="(" d="M420 699q-112 -62 -203 -311q-84 -230 -84 -418q0 -101 21 -163q14 -42 40 -69l-8 -15q-40 40 -61 99q-27 76 -27 196q0 190 80 389q92 228 235 304z"/>
<glyph glyph-name="parenright" horiz-adv-x="350" unicode=")" d="M252 416q0 -119 -35 -253q-39 -148 -106 -261q-77 -129 -174 -179l-7 12q81 41 152 191q61 128 100 294q35 149 35 243q0 99 -23 165q-15 42 -38 68l8 15q37 -39 59 -99q29 -80 29 -196z"/>
<glyph glyph-name="asterisk" horiz-adv-x="415" unicode="*" d="M308 608q0 -24 -19 -52q-6 -9 -24 -30q-3 11 -4 27.5t-1 17.5v24t1 24q0 21 13 42q10 16 31 39q3 -10 4 -25t1 -16q0 -8 -1 -25t-1 -26zM450 564q10 -1 10 -7q0 -13 -69.5 -36t-102.5 -23q-13 0 -13 5q0 4 5 9q55 56 128 56q23 0 42 -4zM405 370q2 -6 1 -9.5t-5 -3.5 q-20 0 -79.5 56.5t-59.5 74.5q0 7 13 4q99 -25 130 -122zM245 520q2 -6 1 -9.5t-5 -3.5q-19 0 -79.5 56.5t-60.5 74.5q0 7 13 4q98 -25 131 -122zM259 394q0 -21 -13 -43q-9 -15 -31 -39q-3 10 -4 25t-1 16q0 8 1 25t1 26q0 24 19 52q6 9 24 30q3 -11 4 -27t1 -17 q0 -12 -0.5 -24t-0.5 -24zM240 500q10 -1 10 -7q0 -13 -69.5 -36t-102.5 -23q-13 0 -13 5q0 4 5 9q55 56 128 56q23 0 42 -4z"/>
<glyph glyph-name="plus" horiz-adv-x="756" unicode="+" d="M700 336h-308v-308h-28v308h-308v28h308v308h28v-308h308v-28z"/>
<glyph glyph-name="comma" horiz-adv-x="168" unicode="," d="M84 43q0 -24 -12.5 -55.5t-35.5 -63.5q-14 -21 -26 -35q-23 -27 -49 -47l-10 11q34 24 59.5 67.5t25.5 80.5v24l-2 26q0 24 23 24q16 0 23 -14q4 -8 4 -18z"/>
<glyph glyph-name="hyphen" horiz-adv-x="312" unicode="-" d="M256 185h-200v41h200v-41z"/>
<glyph glyph-name="period" horiz-adv-x="162" unicode="." d="M78 55q0 -23 -10.5 -42.5t-23.5 -19.5q-7 2 -10 5q-6 7 -6 16l1 20q4 18 13.5 29.5t19.5 11.5t13 -7.5t3 -12.5z"/>
<glyph glyph-name="slash" horiz-adv-x="413" unicode="/" d="M497 721l-564 -1001h-31l564 1001h31z"/>
<glyph glyph-name="zero" horiz-adv-x="519" unicode="0" d="M508 519q0 -75 -25 -164t-76 -178q-43 -75 -102 -127q-73 -64 -144 -64q-72 0 -107.5 63t-35.5 178q0 80 33 175t87 168q39 53 83 85t83 36v-10q-34 -4 -65 -33q-49 -45 -92 -149t-68 -208q-21 -88 -21 -137q0 -73 31 -112q28 -35 73 -35q67 0 125 72q45 56 91 164 q39 93 61 188.5t22 155.5q0 39 -21.5 65.5t-55.5 26.5q-58 0 -116 -71q-50 -61 -80 -150q-22 -65 -29.5 -134.5t-13.5 -131.5h-14v22q0 79 16 158q12 59 37 124q33 84 87 142q58 62 114 62q50 0 84 -43q39 -49 39 -138z"/>
<glyph glyph-name="one" unicode="1" d="M479 681l-205 -681h-53l176 502l-7 2q-15 -31 -35 -61q-29 -44 -81 -107q-43 -51 -67 -75q-35 -33 -88 -69l-10 11q44 28 87 70q67 64 131 156q35 50 72.5 123t57.5 134z"/>
<glyph glyph-name="two" horiz-adv-x="519" unicode="2" d="M488 562q0 -81 -68 -162q-56 -67 -143 -121q-136 -84 -142 -88q-88 -65 -130 -151h8q38 52 110 52q52 0 101.5 -42.5t105.5 -42.5q26 0 41.5 15.5t15.5 40.5q0 23 -12 32.5t-25 9.5q-4 0 -7.5 -0.5t-15.5 -4.5v13q9 5 22 5q30 0 44 -21q10 -15 10 -32q0 -29 -21 -51 q-27 -28 -78 -28q-52 0 -93.5 38.5t-129.5 38.5q-31 0 -48 -22q-7 -10 -28 -55h-30q11 61 48 113q31 43 90 91q30 25 115 86q96 70 152 153q64 95 64 179q0 34 -26.5 52.5t-70.5 18.5q-36 0 -60 -10q-40 -17 -75 -64q-23 -30 -42.5 -74.5t-22.5 -73.5v-28q3 -24 18.5 -36 t41.5 -12q28 0 57 17q43 26 83 87q17 26 30 58.5t22 66.5l13 -4q-3 -20 -16.5 -57t-23.5 -57q-29 -56 -76 -94t-87 -38q-36 0 -64 24q-31 27 -31 71q0 46 21 96.5t54 84.5q61 64 153 64q55 0 94 -28q52 -37 52 -110z"/>
<glyph glyph-name="three" horiz-adv-x="519" unicode="3" d="M493 573q0 -61 -45 -114t-116 -70v-6q64 -30 88 -79q15 -31 15 -75q0 -104 -77.5 -173.5t-189.5 -69.5q-87 0 -138 49q-46 44 -46 107q0 60 46 96q41 32 94 32q57 0 102 -41q42 -38 58 -93l-9 -4q-36 73 -79 101q-32 21 -76 21q-58 0 -91 -37q-26 -30 -26 -67 q0 -56 39 -95q47 -48 137 -48q78 0 141 74q60 70 60 148q0 62 -16 97t-49 52q-25 -6 -44.5 -9t-43.5 -3q-35 0 -54 7.5t-19 18.5t15 15.5t36 6.5h22q21 0 40.5 -3.5t47.5 -13.5q60 20 91 67.5t31 109.5q0 66 -43 91q-24 14 -61 14q-49 0 -83 -22.5t-34 -68.5q0 -38 22 -54 q14 -10 33 -10q12 0 21 3q28 9 28 41v11h12l1 -13q0 -21 -11 -34q-16 -19 -51 -19q-34 0 -53.5 20.5t-19.5 51.5q0 42 32 74q40 41 114 41q56 0 95 -24q54 -33 54 -103zM287 389q-29 9 -57 9q-25 0 -49 -9q27 -10 49 -10q30 0 57 10z"/>
<glyph glyph-name="four" unicode="4" d="M491 681l-179 -576h133v-21h-139l-30 -98h-55l30 98h-293v29q37 17 74 41q63 40 121 93q78 71 153 167q65 82 110 166q27 50 49 106zM399 505l-7 1q-29 -49 -66 -99q-50 -66 -121 -137q-58 -58 -111 -98.5t-102 -63.5l265 -3z"/>
<glyph glyph-name="five" horiz-adv-x="519" unicode="5" d="M524 657q0 -30 -15 -50q-21 -28 -65 -28q-58 0 -106 36l-98 80q-11 0 -23 -11t-15 -53q-9 -105 -61 -192l4 -1q25 30 63 46.5t74 16.5q79 0 123.5 -55.5t44.5 -154.5q0 -110 -80 -203q-87 -102 -211 -102q-69 0 -123.5 44.5t-54.5 106.5q0 58 41.5 92.5t107.5 34.5 q51 0 90.5 -24.5t83.5 -86.5l-14 -9q-47 65 -91 89q-30 16 -69 16q-72 0 -106 -42q-25 -31 -25 -71q0 -45 41 -84q48 -45 118 -45q52 0 92 23q45 26 84 87q23 37 44.5 104t21.5 114q0 79 -39 116q-31 29 -81 29q-55 0 -98 -32q-38 -29 -77 -94l-21 6q34 63 36 67 q22 43 41 99q10 30 22.5 78t18.5 94q11 2 22 2h18q69 0 143 -68q36 -33 73 -33q21 0 36 14t15 34q0 23 -12.5 31.5t-26.5 8.5q-10 0 -18.5 -1.5t-15.5 -6.5l-8 6q13 10 20.5 12.5t21.5 2.5q26 0 40 -10.5t14 -32.5z"/>
<glyph glyph-name="six" unicode="6" d="M512 632q0 -22 -13 -39q-17 -22 -46 -22q-28 0 -44 16t-16 39h15q0 -17 11.5 -29.5t33.5 -12.5q21 0 31.5 12.5t10.5 32.5q0 10 -3 17q-14 33 -69 33q-54 0 -99 -25q-75 -42 -135 -151q-50 -92 -78 -212q-22 -94 -22 -157q0 -58 28.5 -92.5t74.5 -34.5q35 0 66 18 q47 27 84 91q28 46 44 106t16 116q0 43 -23 66t-56 23q-51 0 -96 -47q-32 -34 -53 -83.5t-28.5 -90t-7.5 -107.5h-18q0 61 7.5 106.5t29.5 99.5q29 69 77.5 105.5t100.5 36.5q56 0 87 -49q28 -44 28 -116q0 -114 -90 -208q-84 -88 -170 -88q-55 0 -96 49q-47 56 -47 151 q0 109 44 222q37 95 92 165q49 62 113 94.5t131 32.5q45 0 68 -24q17 -18 17 -44z"/>
<glyph glyph-name="seven" unicode="7" d="M546 662q-3 -29 -14 -61q-20 -58 -58 -114q-50 -75 -136 -157q-60 -57 -120 -113q-73 -73 -110 -135q-48 -80 -48 -160q0 -67 28 -101q23 -28 54 -28q21 0 38 14q21 17 21 47q0 18 -6.5 28t-19.5 16l7 14q37 -19 37 -57q0 -32 -24 -55t-57 -23q-47 0 -75 41t-28 108 q0 97 63.5 207t175.5 212q69 58 139 116q69 63 102 142l-6 6q-44 -41 -81 -41q-42 0 -84 18q-27 11 -48 27q-32 25 -47 34q-23 14 -39 14q-27 0 -49 -28l-3 -21q-15 -86 -37 -128q-17 -32 -33 -32q-13 0 -13 22q0 49 21 93q14 28 45 66q2 11 2 22.5v18.5q0 8 -2 19.5 t-4 20.5h17q3 -16 5 -31t2 -30q33 24 73 24q33 0 61 -10q18 -6 46 -24q42 -26 66.5 -35t42.5 -9q27 0 47 18q26 23 32 69h17v-24zM138 605q-9 -11 -17 -21q-15 -37 -26 -81v-27q20 31 31.5 63.5t11.5 65.5z"/>
<glyph glyph-name="eight" unicode="8" d="M484 585q0 -60 -37 -107q-42 -54 -134 -87q51 -52 75 -92t24 -78q0 -88 -43 -151q-57 -84 -172 -84q-90 0 -136 60q-41 53 -41 140q0 99 89 149q10 6 118 56q-24 30 -39 63q-18 40 -18 77q0 50 24 87q29 45 103 79l6 -10q-52 -28 -69 -46q-24 -26 -24 -68q0 -49 21 -87 q18 -32 66 -80q78 14 118 81q29 49 29 97q0 44 -18 69.5t-56 25.5q-43 0 -66.5 -27t-23.5 -61q0 -21 4.5 -42t18.5 -45l-12 -6q-13 18 -20 44.5t-7 48.5q0 38 25 70q31 39 83 39q53 0 84 -37q28 -33 28 -78zM370 172q0 63 -39 118q-28 39 -89 87q-103 -28 -150 -109 q-36 -62 -36 -144q0 -44 39.5 -80.5t102.5 -36.5q78 0 125 46t47 119z"/>
<glyph glyph-name="nine" horiz-adv-x="517" unicode="9" d="M477 500q0 -110 -43 -221q-37 -95 -93 -165q-45 -58 -112 -93t-133 -35q-37 0 -60.5 18.5t-23.5 49.5q0 27 16.5 44.5t42.5 17.5q24 0 41.5 -15.5t17.5 -40.5h-14q0 14 -9 26q-12 16 -36 16q-21 0 -31.5 -13t-10.5 -32q0 -26 23 -38t49 -12q65 0 125 44t107.5 133 t74.5 190t27 179q0 45 -21 80q-28 46 -82 46q-43 0 -82.5 -28.5t-68.5 -79.5q-24 -42 -42 -107.5t-18 -115.5q0 -37 22 -63t58 -26q42 0 80 33q43 37 68 95q16 37 23 67q14 58 14 134h17q0 -68 -7 -110t-29 -96q-33 -81 -91 -117q-42 -26 -87 -26q-52 0 -83.5 45.5 t-31.5 119.5q0 123 94 215q83 81 166 81q61 0 102 -58t41 -142z"/>
<glyph glyph-name="colon" horiz-adv-x="162" unicode=":" d="M141 322q0 -21 -10.5 -41t-23.5 -20q-10 0 -13 7.5t-3 12.5q0 17 2.5 27t12 22.5t19.5 12.5t13 -7.5t3 -13.5zM78 55q0 -23 -10.5 -42.5t-23.5 -19.5q-7 2 -10 5q-6 7 -6 16l1 20q4 17 13 29t20 12q10 0 13 -7.5t3 -12.5z"/>
<glyph glyph-name="semicolon" horiz-adv-x="168" unicode=";" d="M147 322q0 -28 -10.5 -44.5t-23.5 -16.5q-10 0 -13 7.5t-3 12.5q0 17 2.5 27t12 22.5t19.5 12.5q9 0 12.5 -7t3.5 -14zM84 43q0 -24 -12.5 -55.5t-35.5 -63.5q-14 -21 -26 -35q-23 -27 -49 -47l-10 11q34 24 59.5 67.5t25.5 80.5v24l-2 26q0 24 23 24q16 0 23 -14 q4 -8 4 -18z"/>
<glyph glyph-name="less" horiz-adv-x="559" unicode="&lt;" d="M503 112l-14 -24l-433 250v24l433 250l14 -24l-412 -238z"/>
<glyph glyph-name="equal" horiz-adv-x="756" unicode="=" d="M700 406h-644v28h644v-28zM700 266h-644v28h644v-28z"/>
<glyph glyph-name="greater" horiz-adv-x="559" unicode="&gt;" d="M503 338l-433 -250l-14 24l412 238l-412 238l14 24l433 -250v-24z"/>
<glyph glyph-name="question" horiz-adv-x="337" unicode="?" d="M393 616q0 -78 -58 -144q-28 -32 -113 -96q-66 -50 -91.5 -85.5t-25.5 -69.5q0 -28 16 -39q9 -6 21 -6q34 0 60 31q17 20 31 55l16 -5q-25 -62 -59 -86q-21 -15 -46 -15q-27 0 -43.5 18.5t-16.5 47.5q0 47 45 102q16 20 86 87q61 59 100 111q55 73 55 121q0 19 -14.5 29 t-37.5 10q-66 0 -139.5 -73.5t-73.5 -123.5q0 -30 40 -30q48 0 102 58q50 54 71 118l12 -5q-32 -82 -83 -133t-105 -51q-58 0 -58 50q0 64 62 131q71 77 161 77q48 0 70 -29q16 -21 16 -55zM140 55q0 -22 -11 -42t-23 -20q-17 0 -17 21l2 20q5 21 14 31t18 10q17 0 17 -20z "/>
<glyph glyph-name="at" horiz-adv-x="823" unicode="@" d="M767 399q0 -107 -53.5 -178.5t-137.5 -71.5q-41 0 -62 15q-31 22 -42 85h-4q-43 -53 -85 -76q-35 -19 -73 -19q-49 0 -74 45q-21 38 -21 95q0 98 82 181q78 79 164 79q22 0 45 -10t31 -29l11 31h61l-78 -273q-4 -12 -5 -21t-1 -19q0 -33 24 -47q14 -8 35 -8q69 0 114 72 q41 66 41 149q0 128 -87.5 205.5t-221.5 77.5q-132 0 -227 -86q-108 -98 -108 -264q0 -138 89 -226t226 -88q52 0 96 7t89 29l12 -27q-51 -21 -100 -29t-97 -8q-163 0 -263 107q-91 98 -91 235q0 154 103 264q107 114 270 114q145 0 239 -83q99 -87 99 -228zM521 447 q0 37 -13 59q-16 27 -46 27q-55 0 -115 -68q-64 -73 -64 -156q0 -56 21 -83q17 -22 49 -22q66 0 120 90q48 80 48 153z"/>
<glyph glyph-name="A" horiz-adv-x="745" unicode="A" d="M843 690l-6 -16q-5 2 -14 5t-19 3q-18 0 -27 -10q-13 -14 -23.5 -51.5t-15.5 -55.5q-12 -45 -21 -88q-4 -19 -16 -80q-7 -37 -13 -57h66v-20h-69q-23 -111 -50 -180q-17 -43 -36 -72q-4 -7 -17 -23q-9 -11 -9 -16q0 -11 17 -11h125v-18h-243v18h37q29 0 42 19 q8 11 18.5 47.5t26.5 100.5q25 98 33 135h-180q-61 -155 -134 -239q-83 -95 -178 -95q-73 0 -121 53q-44 48 -44 109q0 60 32 96q36 41 105 41q23 0 46.5 -6.5t53.5 -24.5q15 -9 30 -22l-10 -14q-37 23 -45 27q-41 22 -83 22q-57 0 -86 -37q-22 -28 -22 -65q0 -75 47 -121 q41 -40 98 -40q88 0 167 98q62 77 120 218h-156v20h163q89 201 196 291q81 69 164 69q22 0 51 -10zM753 674h-6q-83 -14 -172 -127q-74 -94 -119 -207h178q9 44 19 89q6 27 23 85.5t33.5 92.5t43.5 67z"/>
<glyph glyph-name="B" horiz-adv-x="698" unicode="B" d="M670 230q0 -100 -70 -172t-165 -72q-62 0 -99 45q-33 40 -33 97q0 67 38 121q34 48 99 88l8 -15q-65 -42 -96 -87.5t-31 -106.5q0 -46 28 -81q32 -40 85 -40q74 0 129.5 64.5t55.5 160.5q0 72 -29 117q-25 39 -68 51q-14 -5 -35.5 -10t-39.5 -5q-20 0 -43.5 6t-23.5 18 q0 13 23 18.5t44 5.5q24 0 46 -7q8 -3 29 -12q55 14 80 73q17 40 17 86q0 52 -33.5 80.5t-81.5 28.5q-23 0 -35.5 -1t-29.5 -6q-46 -42 -89 -198q-36 -139 -71 -278q-21 -74 -56 -127q-57 -86 -133 -86q-44 0 -67 23t-23 56q0 22 7 39l20 -6q-6 -15 -6 -35t13 -35 q18 -21 53 -21q56 0 87.5 50.5t65.5 201.5q42 189 84 284q34 76 83 121l-2 4q-105 -40 -183.5 -111.5t-133.5 -173.5l-17 9q83 151 212 234q115 74 231 74q68 0 110.5 -36.5t42.5 -95.5t-36 -102.5t-91 -58.5q53 -19 87 -57q43 -49 43 -120zM503 409q-27 10 -51 10 q-28 0 -49 -10q23 -10 49 -10q24 0 51 10z"/>
<glyph glyph-name="C" horiz-adv-x="540" unicode="C" d="M610 703q-24 -76 -34 -118q-13 -57 -19 -124h-18q0 60 -5 90t-25 61q-23 35 -48 51t-67 16q-59 0 -107 -29q-59 -35 -102 -114q-37 -68 -60 -153.5t-23 -159.5q0 -121 52 -175q39 -41 104 -41q71 0 140.5 71.5t113.5 187.5l19 -7q-58 -149 -141 -219q-64 -54 -130 -54 q-84 0 -143 59q-75 75 -75 219q0 64 23 135q35 110 117 200q46 51 102 76t110 25q52 0 95.5 -25t67.5 -66h7q5 26 29 98z"/>
<glyph glyph-name="D" horiz-adv-x="760" unicode="D" d="M760 425q0 -186 -107 -309q-113 -130 -297 -130q-92 0 -134 7t-113 7h-88v18h102q23 0 34 8.5t17 30.5l16 52l16 60q-63 34 -101 98.5t-38 141.5q0 126 85 204q95 87 271 87q143 0 228 -58q65 -44 92 -119q17 -47 17 -98zM701 428q0 149 -95 209q-66 42 -183 42l-31 -1 q-17 -21 -43 -120q-2 -9 -52 -238q-19 -86 -39 -155q45 -20 83.5 -28t69.5 -8l-2 -19q-41 0 -80 9t-78 27q-15 -49 -43 -72q-22 -18 -22 -46q0 -5 5.5 -8t21.5 -3q38 -5 81 -9t85 -4q128 0 209 87q62 67 92 182q21 81 21 155zM370 676q-147 -14 -223 -105q-60 -73 -60 -166 q0 -61 36 -124.5t88 -89.5q32 135 64 271q40 159 95 214z"/>
<glyph glyph-name="E" horiz-adv-x="535" unicode="E" d="M577 713q-16 -59 -24 -96.5t-15 -94.5h-16l2 22q0 60 -41 99t-101 39t-97 -36q-45 -44 -45 -135q0 -40 6.5 -60t22.5 -33q15 2 40 5t40 3q44 0 63 -9q13 -6 13 -15t-21 -16t-53 -7q-42 0 -93 21q-92 -33 -132 -115q-28 -57 -28 -129q0 -34 8 -58q36 96 112.5 151.5 t162.5 55.5q54 0 90.5 -33.5t36.5 -86.5q0 -74 -66 -134q-72 -65 -176 -65q-48 0 -82 11.5t-69 41.5l-1 -21l-2 -29q0 -24 6 -58t22 -68l-15 -10q-19 49 -24.5 78t-5.5 74l3 47q-35 34 -48 78q-8 27 -8 67q0 80 57.5 139.5t140.5 72.5v6q-24 19 -37.5 53t-13.5 69 q0 72 54.5 117.5t140.5 45.5q35 0 62 -8q53 -16 92 -57h4l21 81zM393 401q-10 6 -22.5 8t-26.5 2q-25 0 -52 -7q12 -6 25.5 -8t27.5 -2q28 0 48 7zM487 189q0 37 -27 64q-31 31 -82 31q-83 0 -159.5 -60t-98.5 -151q25 -37 71 -53q37 -13 92 -13q94 0 154 66q50 55 50 116z "/>
<glyph glyph-name="F" horiz-adv-x="501" unicode="F" d="M687 726q-25 -39 -58 -54.5t-86 -15.5q-18 0 -38.5 0.5t-42.5 5.5q-29 -25 -48 -75q-24 -62 -43 -177h137l-4 -20h-138q-4 -31 -11 -60t-18 -89q72 -40 143 -59l-6 -16q-40 12 -75 27q-12 5 -65 30q-26 -137 -88 -194q-47 -43 -118 -43q-45 0 -72.5 30.5t-27.5 76.5 q0 47 28 80q33 39 92 39q16 0 38 -5v-21q-20 6 -38 6q-44 0 -71.5 -28.5t-27.5 -70.5q0 -38 22 -62t61 -24q41 0 68.5 21t46.5 63q10 22 17.5 55.5t19.5 99.5q-72 37 -121 102q-62 82 -62 181q0 70 58 119q62 52 158 52q50 0 71 -1.5t55 -6.5t65.5 -8.5t62.5 -3.5 q43 0 67.5 14t37.5 40zM439 661v5q-31 4 -46.5 8.5t-38.5 4.5h-37q-85 0 -136 -43q-60 -50 -60 -122q0 -66 28 -118q39 -73 137 -133l15 76l9 51h-80l4 20h81q12 67 33 119q34 83 91 132z"/>
<glyph glyph-name="G" horiz-adv-x="569" unicode="G" d="M555 593q0 -103 -104 -185q-109 -86 -257 -86l-29 1q0 -104 50 -146q33 -28 89 -28q66 0 134 59q58 51 102 128l10 -3q-14 -147 -43 -250q-23 -79 -56 -139q-70 -125 -161 -175q-59 -32 -125 -32q-68 0 -116.5 42t-48.5 112q0 64 46 105t107 41q45 0 90 -19.5t82 -56.5 l-15 -13q-30 31 -74 50.5t-81 19.5q-61 0 -100 -42q-35 -37 -35 -83q0 -52 35 -90q41 -45 113 -45q56 0 101 25q65 36 115 126q63 114 99 303l-9 4q-34 -41 -80.5 -65t-86.5 -24q-88 0 -143 57t-55 148q-53 9 -94 41l14 19q35 -29 80 -37q0 139 86.5 242t213.5 103 q73 0 113 -37q33 -30 33 -70zM532 589q0 33 -28 58q-35 31 -101 31q-120 0 -186 -124q-52 -97 -52 -213q165 0 272 84q95 75 95 164z"/>
<glyph glyph-name="H" horiz-adv-x="686" unicode="H" d="M756 690q0 -10 -9 -10l-7 2l-7 2q-14 0 -32 -54t-35 -130q-26 -119 -51.5 -237t-60.5 -179q-7 -12 -28 -41q-9 -12 -9 -15q0 -4 3 -6t7 -4h20h113v-18h-242v18h36q25 0 35.5 10.5t18.5 37.5q29 103 38 137q19 74 40 169h-285q-45 -212 -79 -285q-26 -57 -55.5 -79 t-66.5 -22q-39 0 -55.5 19t-16.5 47q0 17 7 28h18q-7 -13 -7 -28q0 -31 21 -42q12 -6 32 -6q58 0 86 106q8 33 44 204t65.5 249.5t69.5 115.5l-2 7h-14q-93 0 -176 -68q-93 -76 -93 -185q0 -24 8 -48q13 -39 46 -72l-11 -11q-31 28 -46 64t-15 67q0 115 98 195q88 72 191 72 h28q15 0 25 -3v-11l-5 -1q-12 -3 -18.5 -11.5t-15.5 -31.5t-32 -124q-19 -83 -27 -125h285q17 89 37 147q24 71 58 117q17 24 31 33.5t26 9.5q14 0 14 -10z"/>
<glyph glyph-name="I" horiz-adv-x="349" unicode="I" d="M409 686l-5 -1q-21 -5 -40 -60.5t-56.5 -227.5t-52.5 -221q-20 -66 -49 -109q-4 -7 -17 -23q-9 -11 -9 -16q0 -4 3 -6t7 -4h19h113v-18h-242v18h36h12q44 4 114 334q28 131 58 211t68 116v7h-14q-93 0 -176 -68q-93 -76 -93 -185q0 -24 8 -48q13 -39 46 -72l-11 -11 q-31 28 -46 64t-15 67q0 115 98 195q88 72 191 72h28q15 0 25 -3v-11z"/>
<glyph glyph-name="J" horiz-adv-x="352" unicode="J" d="M408 686l-5 -1q-24 -6 -50 -94.5t-55 -245.5q-25 -136 -56 -236q-50 -161 -122 -254q-92 -119 -214 -119q-63 0 -98 42q-29 35 -29 78q0 47 38.5 81.5t96.5 34.5q33 0 71 -18.5t68 -50.5l-15 -12q-26 26 -55 42q-36 20 -69 20q-49 0 -82 -29t-33 -66q0 -32 22 -61 q30 -40 88 -40q115 0 181 108q79 129 152 487q25 122 49 190q33 96 76 137v7h-13q-94 0 -177 -68q-93 -76 -93 -185q0 -24 8 -48q13 -39 46 -72l-11 -11q-28 27 -43 60q-18 38 -18 71q0 115 98 195q88 72 191 72h28q16 0 25 -3v-11z"/>
<glyph glyph-name="K" horiz-adv-x="677" unicode="K" d="M754 639q0 -29 -17 -45t-46 -16q-17 0 -27 8q-5 4 -19 23l14 11q4 -12 14 -18t23 -6q38 0 38 44q0 20 -14.5 30.5t-38.5 10.5q-38 0 -73 -22t-91 -87q-34 -40 -64 -85q-35 -53 -62 -110q75 -19 115 -85q26 -43 37 -103q8 -64 17 -127q14 -55 64 -55q15 0 27.5 6t22.5 18 l11 -11q-11 -16 -30.5 -25t-39.5 -9q-41 0 -71 27q-43 38 -55.5 112t-23.5 138q-23 70 -86 97l-89 -169q-21 -39 -36 -72q-22 -46 -42 -72t-41 -40q-31 -21 -71 -21q-39 0 -55.5 20t-16.5 46q0 17 7 28h18q-7 -12 -7 -28q0 -23 15 -34t38 -11q55 0 80 88q5 19 39 166l34 154 q23 99 44 153q29 76 66 111v7h-14q-41 0 -86.5 -16t-89.5 -51q-39 -31 -62 -71q-31 -53 -31 -115q0 -35 18 -70q13 -25 36 -50l-11 -11q-24 21 -42.5 58t-18.5 73q0 50 16 90q25 64 90 113q44 34 93 49t90 15h28q15 0 25 -3v-11l-5 -1q-14 0 -24 -15q-13 -19 -26.5 -68.5 t-46.5 -199t-45 -215.5h12l98 191q43 84 76 133q25 37 63 81q57 66 107 91q34 17 69 17q33 0 53 -15.5t20 -45.5z"/>
<glyph glyph-name="L" horiz-adv-x="601" unicode="L" d="M622 592q0 -105 -104.5 -188.5t-250.5 -83.5l-41 1q-14 -81 -30 -134q-21 -70 -55 -121q-8 -13 -20 -26q-7 -8 -7 -12q0 -8 10 -10h7l45 3q45 7 65 9q36 5 73 5q31 0 83 -5q21 -2 34 -2q68 0 104 59q27 44 27 97q0 13 -1 20t-4 24l20 4q5 -23 5 -42q0 -88 -50 -146 t-129 -58q-69 0 -102 4q-83 10 -136 10h-151v18h36q26 0 37 11t21 44t30 113t34 146q-33 6 -63 22q-38 20 -70 53l15 18q28 -29 58 -47t65 -24q48 208 145 291q65 55 157 55q65 0 104 -31t39 -77zM601 589q0 35 -28 60q-35 32 -101 32q-78 0 -131 -57q-77 -83 -111 -282h55 q126 0 221 77.5t95 169.5z"/>
<glyph glyph-name="M" horiz-adv-x="830" unicode="M" d="M900 690q0 -16 -8 -16q-14 0 -16 -1q-12 -5 -23.5 -27.5t-26.5 -82.5q-1 -6 -30 -130q-23 -107 -46.5 -208t-61.5 -158q-10 -16 -18.5 -26t-8.5 -13q0 -8 10 -10h20h112v-18h-242v18h37q21 0 30.5 6t18.5 24q2 4 7 23q10 34 21 72q40 138 78 321q22 107 54 163l-8 8 l-322 -395l1 -23q0 -87 -28.5 -152t-66.5 -65q-10 0 -16 7q-9 10 -9 31q0 33 13 71t51 102l-82 443l-86 -302q-35 -123 -57 -180q-27 -69 -59.5 -112.5t-64.5 -60.5q-25 -13 -56 -13q-18 0 -24.5 7.5t-6.5 15.5q0 18 29 36t73 18q13 0 20 -1q56 61 125 299l80 276 q1 4 3.5 11.5t2.5 12.5q0 15 -17 15q-15 0 -38.5 -15.5t-57.5 -48.5q-42 -40 -73 -80q-24 -31 -47 -61l-14 10q24 33 60.5 75.5t67.5 72.5q38 37 61 51q33 20 71 20q41 0 58 -32q8 -15 19 -71l63 -329l282 349q40 50 78 70q25 13 49 13q19 0 19 -10zM431 146l-3 38 q-19 -32 -33.5 -72t-14.5 -67q0 -19 10 -19q13 0 25 25q16 34 16 95z"/>
<glyph glyph-name="N" horiz-adv-x="799" unicode="N" d="M967 675q0 -15 -10 -21.5t-21 -6.5q-13 0 -19 1.5t-18 1.5q-34 0 -54 -24q-27 -32 -48 -121l-124 -519h-39l-187 650h-9l-102 -440q-22 -90 -44 -133q-55 -106 -149 -106q-53 0 -94 45q-49 54 -49 148q0 77 43 136t97 59q41 0 68.5 -40t27.5 -108q0 -41 -13 -82 q-9 -30 -25 -59l-18 7q21 37 28 68.5t7 63.5q0 60 -21.5 94.5t-55.5 34.5q-40 0 -68.5 -50.5t-28.5 -120.5q0 -90 29 -135q26 -40 69 -40q58 0 99 53.5t71 174.5l107 441q3 12 -4 16.5t-18 4.5q-58 0 -111 -33q-84 -52 -135 -176l-17 8q52 131 151 185q67 37 151 37 q33 0 48.5 -13.5t27.5 -57.5l152 -540h7l102 436q10 44 16 60q17 46 54 83q16 16 44 29.5t51 13.5q12 0 22 -5.5t10 -19.5z"/>
<glyph glyph-name="O" horiz-adv-x="564" unicode="O" d="M564 498q0 -71 -15 -144q-19 -94 -61 -172.5t-112 -133.5q-78 -62 -156 -62q-73 0 -123 63q-55 70 -55 192q0 158 87 298q100 161 251 161q82 0 133 -53t51 -149zM512 498q0 106 -48 152q-31 29 -75 29q-36 0 -67 -24t-63 -85q-27 -50 -46 -128t-19 -136q0 -57 11 -96 t39 -89l-9 -8q-34 40 -48 89.5t-14 104.5q0 88 25 173q38 130 122 196q-40 -13 -70 -43t-62 -88q-40 -72 -67 -183t-27 -193q0 -70 33 -116t93 -46q80 0 144 70q45 50 81 133q24 57 45.5 141.5t21.5 146.5z"/>
<glyph glyph-name="P" horiz-adv-x="609" unicode="P" d="M651 515q0 -89 -52 -157q-57 -75 -143 -75q-65 0 -103 42q-33 37 -33 88q0 55 23 109t69 102l16 -9q-54 -61 -73 -113q-14 -38 -14 -88q0 -48 29 -79t72 -31q70 0 115 79q39 69 39 148q0 63 -23 98q-34 51 -117 51h-31q-74 0 -106 -116q-8 -28 -52 -233 q-26 -123 -44 -178q-27 -83 -59 -122q-38 -45 -92 -45q-35 0 -53.5 18.5t-18.5 47.5q0 17 7 28h18q-7 -12 -7 -28q0 -20 7 -30q13 -18 46 -18q60 0 86 107.5t44 187.5q43 187 69 253q30 77 80 116l-2 7q-47 -8 -91 -35q-29 -18 -58 -46q-41 -40 -70.5 -89t-73.5 -152l-16 7 q35 89 79.5 159.5t88.5 105.5q52 41 104.5 58t127.5 17q102 0 157 -47t55 -138z"/>
<glyph glyph-name="Q" horiz-adv-x="594" unicode="Q" d="M594 441q0 -95 -35 -197q-45 -130 -131 -217q-108 -108 -267 -137l2 -6q13 2 31.5 3t34.5 1q33 0 56.5 -9.5t60.5 -38.5q31 -24 38 -28q21 -12 49 -12q41 0 76 24t55 69l19 -5q-21 -50 -61 -82.5t-90 -37.5q-5 -1 -16 -1q-17 1 -26 1q-42 4 -71 21q-13 8 -53 41 q-20 16 -39 25q-34 16 -68 16q-24 0 -32 -15.5t-51 -15.5q-23 0 -23 16q0 21 60 42q90 31 180 61q103 63 165 184q48 93 69 216q14 81 14 156q0 89 -55 132q-41 32 -99 32q-73 0 -134 -59q-54 -52 -92 -143q-27 -65 -46.5 -149t-19.5 -140q0 -79 18 -118q24 -53 84 -53 q79 0 146 100q72 108 72 262q0 56 -12.5 99.5t-40.5 86.5l10 9q65 -87 65 -196q0 -118 -56 -235q-70 -147 -182 -147q-62 0 -104 45q-53 56 -53 167q0 185 105 338.5t239 153.5q83 0 140 -59q68 -70 68 -200z"/>
<glyph glyph-name="R" horiz-adv-x="601" unicode="R" d="M615 18q-13 -15 -28.5 -23.5t-38.5 -8.5q-69 0 -98 65q-13 29 -22 103t-23 107q-22 52 -74 72l3 15l22 -1q76 0 127 42q67 55 67 168q0 64 -37 97q-32 28 -84 28q-48 0 -74 -35.5t-46.5 -126.5t-41.5 -190q-25 -117 -37 -158q-26 -88 -59 -132q-41 -54 -100 -54 q-34 0 -52.5 18t-18.5 48q0 17 7 28h18q-8 -13 -8 -28q0 -25 14.5 -36.5t39.5 -11.5q57 0 86 106q5 17 45.5 195t69 251t77.5 112l-2 7q-49 -9 -90 -34q-26 -16 -58 -47q-38 -37 -65 -78q-39 -61 -79 -163l-17 7q50 119 97 187q33 48 71 77q53 42 105 59t128 17 q80 0 125 -40t45 -114q0 -77 -45 -133q-57 -71 -175 -83l-2 -8q61 -30 85 -86q14 -33 21 -106.5t9 -81.5q12 -44 49 -44q13 0 28.5 6.5t25.5 20.5z"/>
<glyph glyph-name="S" horiz-adv-x="491" unicode="S" d="M575 689q-22 -36 -39.5 -106t-17.5 -121l-19 3v15v25q0 80 -44 127t-114 47q-72 0 -113 -42q-35 -36 -35 -84q0 -49 60 -102q54 -44 109 -87q68 -61 91 -120q14 -35 14 -85q0 -83 -81 -132q-68 -41 -146 -41q-52 -51 -129 -82l-10 19q26 9 48 20q34 17 62 43h-38 q-73 0 -127 45q-60 50 -60 126q0 71 56 112q48 35 114 35q72 0 119 -46t47 -116q0 -68 -65 -135q66 6 113 52t47 103q0 49 -35 94q-27 35 -97 93.5t-94 87.5q-43 52 -43 105q0 63 52 108q57 50 148 50q48 0 88 -19q52 -24 79 -76l5 -1q8 37 14 52.5t23 43.5zM302 148 q0 58 -43.5 96.5t-100.5 38.5q-60 0 -99 -37t-39 -90q0 -56 44 -101q50 -51 128 -51l37 1q73 66 73 143z"/>
<glyph glyph-name="T" horiz-adv-x="501" unicode="T" d="M687 726q-25 -39 -59 -54.5t-85 -15.5q-18 0 -38.5 0.5t-42.5 5.5q-35 -36 -54 -90q-12 -35 -30 -131q-23 -124 -41 -200q72 -40 143 -59l-6 -16q-40 12 -75 27q-12 5 -65 30q-26 -137 -88 -194q-47 -43 -118 -43q-45 0 -72.5 30.5t-27.5 76.5q0 47 28 80q33 39 92 39 q16 0 38 -5v-21q-20 6 -38 6q-44 0 -71.5 -28.5t-27.5 -70.5q0 -38 22 -62t61 -24q41 0 68.5 21t46.5 63q10 22 17.5 55.5t19.5 99.5q-104 53 -151 134q-33 57 -33 111q0 75 42 131q58 78 174 78q50 0 72 -1.5t57 -6.5t65 -8.5t61 -3.5q43 0 67.5 14t37.5 40zM439 661v5 q-31 4 -46.5 8.5t-38.5 4.5h-37q-85 0 -136 -43q-60 -50 -60 -122q0 -66 28 -118q39 -73 137 -133q21 123 27 149q19 87 43 138q31 66 83 111z"/>
<glyph glyph-name="U" horiz-adv-x="786" unicode="U" d="M856 690q0 -6 -19.5 -13t-31 -29t-25.5 -78q-5 -20 -36.5 -166t-57 -219.5t-54.5 -118.5q-10 -15 -21 -27q-7 -8 -7 -11q0 -7 10 -10h20h113v-18h-243v18h37q21 0 30.5 6t18.5 24q5 10 34 119.5t47 182.5l41 162l-8 4q-38 -78 -123 -198q-97 -137 -187 -225 q-109 -107 -175 -107q-37 0 -51 28q-9 18 -9 52q0 25 10 60q4 13 14 46l75 238q41 130 67 182q17 33 58 84v6l-13 1q-86 0 -172 -55q-110 -70 -110 -183q0 -32 12.5 -64.5t34.5 -58.5l-11 -11q-24 26 -39 60t-15 74q0 118 104 191q91 64 203 64q13 0 26 -1.5t28 -5.5l-1 -13 q-9 4 -17 -5q-4 -5 -8 -14q-12 -28 -22 -59q-16 -49 -61 -192l-78 -247q-5 -16 -18 -59t-13 -63q0 -13 6 -20t18 -7q23 0 57 23q42 28 104 92q96 98 168 202q51 74 102 170q63 119 72 134q23 38 45.5 51.5t50.5 13.5q20 0 20 -10z"/>
<glyph glyph-name="V" horiz-adv-x="720" unicode="V" d="M888 655q0 -13 -8.5 -18.5t-18.5 -5.5q-12 0 -24 6q-7 2 -11 3t-13 1q-36 0 -74 -42q-25 -27 -69 -100l-248 -405q-32 -54 -49 -70q-39 -38 -95 -38q-25 0 -38 3l4 20h10q45 0 64 30.5t19 89.5q0 39 -10 197t-10 219q0 35 5 55q9 33 34 56l-1 8q-106 0 -190.5 -67.5 t-84.5 -156.5q0 -38 16 -77t42 -70l-18 -15q-26 28 -45 75.5t-19 85.5q0 93 83 165q95 82 244 82h43v-19q-51 -7 -57 -45q-1 -5 -1 -13q1 -15 1 -22l13 -170q7 -72 8.5 -95.5t1.5 -79.5v-18q0 -44 -2.5 -71.5t-13.5 -70.5l12 -5l260 438q64 107 115 145q35 26 79 26 q17 0 31.5 -5.5t14.5 -25.5z"/>
<glyph glyph-name="W" horiz-adv-x="1009" unicode="W" d="M1177 658q0 -13 -10.5 -20.5t-24.5 -7.5l-25 4l-24 3q-39 0 -85 -63q-20 -27 -69 -117l-175 -318q-34 -61 -50 -84q-25 -35 -63 -69l-12 14q16 26 23 50.5t7 47.5v40q0 105 -11 175q-25 159 -25 183h-11l-183 -360q-37 -73 -77 -109q-45 -41 -102 -41l-20 3l3 20l12 -1 q33 0 51 17q30 28 30 103v54l-5 93q0 27 -6.5 127.5t-6.5 138.5q0 39 6.5 65.5t31.5 49.5l-2 7q-111 0 -193 -66t-82 -157q4 -43 13 -69q15 -41 46 -78l-19 -15q-63 79 -63 161q0 88 72 158q92 89 255 89h42v-19q-29 -4 -41 -13t-15 -32v-35q0 -35 2.5 -60t6.5 -72 q0 -47 7 -141t7 -132q0 -43 -16 -84l12 -5l193 378q43 97 60 133q29 61 75 96l14 -19q-27 -32 -36 -53q-12 -28 -12 -71q0 -20 7.5 -69t14.5 -93q13 -89 17.5 -135t4.5 -84q0 -13 -1 -22t-7 -29l6 -6l194 354q60 109 86 142q58 73 124 73q18 0 33.5 -8t15.5 -22z"/>
<glyph glyph-name="X" horiz-adv-x="621" unicode="X" d="M649 684q0 -15 -17 -28q-27 -20 -85 -26l-174 -235l24 -276q0 -46 11.5 -79t35.5 -33q30 0 85 99q42 75 66 140l15 -5q-31 -93 -76 -165q-56 -90 -103 -90q-37 0 -59 34t-28 103l-18 209l-191 -258q-32 -43 -71 -67q-34 -21 -60 -21q-18 0 -18 11q0 17 18 31q28 21 94 32 l226 303l-15 172q-6 72 -8 83q-10 58 -31 58q-28 0 -96 -98q-49 -70 -80 -128l-14 8q82 145 136 203q36 39 60 39q29 0 49 -28q28 -39 35 -126l10 -120l143 192q23 31 52 54q36 29 65 29q19 0 19 -17z"/>
<glyph glyph-name="Y" horiz-adv-x="549" unicode="Y" d="M675 688q-60 -65 -89.5 -102.5t-57.5 -86.5l-73 -125q9 1 25 1.5t30 1.5h19q14 0 27 -1.5t27 -2.5l-6 -18q-9 2 -22.5 3.5t-29.5 1.5q-20 0 -37.5 -0.5t-40.5 -4.5l-118 -210q-37 -65 -65 -96q-57 -63 -120 -63q-43 0 -72.5 27.5t-29.5 73.5q0 73 57 132q49 51 152 100 l-6 196l-2 65q0 18 -2 29t-4 24t-6 23q-8 21 -21 21q-16 0 -37 -33q-15 -25 -22 -36q-16 -27 -32 -63q-22 -50 -44 -105l-15 7q32 76 41 98q13 31 39 76.5t48 64.5q16 14 30 14q20 0 36.5 -16t25.5 -39.5t14 -58.5t5 -71l4 -177q21 7 56.5 16.5t66.5 14.5l83 154 q47 87 82 126t75 51zM418 351q-21 -3 -42 -8q-33 -9 -74 -25v-173h9zM252 133v168q-99 -42 -142 -107q-31 -47 -31 -104q0 -38 18.5 -60.5t52.5 -22.5q27 0 52 15t38 34q8 11 10 25.5t2 51.5z"/>
<glyph glyph-name="Z" horiz-adv-x="519" unicode="Z" d="M568 686q0 -87 -69 -187q-56 -81 -141 -148q-101 -78 -201 -156q-91 -78 -119 -150l9 -7q31 23 59.5 34.5t65.5 11.5q31 0 61 -11q20 -7 41.5 -19.5t41 -19t48.5 -6.5q61 0 94 61q26 48 26 110q0 8 -1.5 17t-5.5 21l20 5q3 -10 5.5 -24.5t2.5 -22.5q0 -96 -63 -157 q-54 -52 -113 -52q-89 0 -122 29t-80 29q-27 0 -61 -15q-22 -10 -60 -32l-13 15q42 107 115 192q58 68 148 135q78 57 157 114q82 68 114 143l-8 8q-28 -25 -57 -35q-21 -7 -48 -7q-56 0 -83.5 33.5t-101.5 33.5q-40 0 -76 -46q-25 -31 -58 -100h-27q43 78 67 136 q18 43 26 81h22l-22 -74l10 -3q42 55 91 55q26 0 63 -22q28 -18 44 -28t33 -17q27 -11 51 -11q46 0 71 33q17 23 22 53h22z"/>
<glyph glyph-name="bracketleft" horiz-adv-x="350" unicode="[" d="M378 679h-82l-213 -924h89v-21h-137l213 966h130v-21z"/>
<glyph glyph-name="backslash" horiz-adv-x="431" unicode="\" d="M381 -280h-31l-300 1001h31z"/>
<glyph glyph-name="bracketright" horiz-adv-x="350" unicode="]" d="M322 700l-213 -966h-130v21h81l214 924h-89v21h137z"/>
<glyph glyph-name="asciicircum" horiz-adv-x="528" unicode="^" d="M492 430h-32l-176 235l-176 -235h-32l208 280z"/>
<glyph glyph-name="underscore" horiz-adv-x="580" unicode="_" d="M600 -280h-620v28h620v-28z"/>
<glyph glyph-name="grave" horiz-adv-x="168" unicode="`" d="M222 453l-17 -4l-42 70q-2 4 -6 12.5t-4 12.5q0 10 6.5 18t19.5 8q12 0 18 -9t10 -27z"/>
<glyph glyph-name="a" horiz-adv-x="348" unicode="a" d="M341 162l-44 -79q-30 -55 -49 -74t-37 -19q-20 0 -28 14t-8 33q0 14 1 20.5t7 24.5l40 109h-4q-37 -61 -73 -107q-73 -94 -116 -94q-20 0 -32 20.5t-12 55.5q0 54 51.5 133t118.5 133q27 23 51 37q32 19 56 19q18 0 31 -9.5t13 -31.5q0 -14 -5.5 -30.5l-6.5 -19.5 l-72 -215q-5 -14 -11 -36t-6 -29q0 -6 8 -12q10 0 27.5 20.5t43.5 64.5l44 77zM277 359q0 14 -17 14q-16 0 -47 -24q-41 -32 -85 -92.5t-80 -130t-36 -96.5q0 -13 5 -19t14 -6q16 0 45 24q23 19 44 44q44 53 79 112q22 37 41 79t28 65q6 15 9 30z"/>
<glyph glyph-name="b" horiz-adv-x="319" unicode="b" d="M326 306q0 -56 -49 -135q-43 -70 -102 -125q-34 -32 -58.5 -44t-42.5 -12q-44 0 -44 43q0 14 5.5 30.5l6.5 19.5l138 432h-4l-149 -248l-13 6l162 269q20 32 31 62l15 45l27 86h21l-145 -493h4q24 51 62 93q47 53 83 53q52 0 52 -82zM293 332q0 18 -3 26q-6 15 -24 15 q-38 0 -96 -90q-47 -73 -75 -149q-19 -49 -25 -71.5t-6 -32.5q0 -15 5 -20t11 -5q8 0 16 4q33 18 82 84q40 55 73 118q42 80 42 121z"/>
<glyph glyph-name="c" horiz-adv-x="274" unicode="c" d="M281 360q0 -14 -6 -22.5t-20 -8.5t-19.5 6.5t-6.5 14.5v10q2 11 6 14l-9 1q-30 -3 -61 -34q-27 -27 -49 -70.5t-41 -101.5q-22 -67 -22 -105q0 -27 15 -43t39 -16q42 0 89 70q37 56 57 116h16q-21 -74 -63 -130q-53 -71 -112 -71q-46 0 -68 38q-15 26 -15 62 q0 54 17.5 103.5t59.5 103.5q31 38 58 58q45 33 93 33q18 0 30 -6.5t12 -21.5z"/>
<glyph glyph-name="d" horiz-adv-x="347" unicode="d" d="M438 735l-216 -653q-5 -15 -10.5 -36t-5.5 -29q0 -12 8 -12q16 0 45 43q14 20 26 42l43 77l12 -5l-44 -79q-31 -56 -53 -77q-17 -16 -33 -16q-17 0 -26.5 13.5t-9.5 33.5q0 14 2 23.5t6 21.5l40 109h-4q-60 -99 -108.5 -150t-80.5 -51q-21 0 -32 19.5t-11 56.5 q0 102 112 217q102 105 165 105q10 0 16.5 -3.5t10.5 -8.5l128 359h20zM276 359q0 14 -17 14q-57 0 -154 -149q-41 -63 -67 -116.5t-26 -77.5q0 -15 4 -20t14 -5q22 0 62 38q15 14 28 30q41 48 78 112q23 39 41.5 80t27.5 64q6 15 9 30z"/>
<glyph glyph-name="e" horiz-adv-x="260" unicode="e" d="M260 336q0 -54 -50 -116q-59 -73 -154 -107q-6 -22 -7.5 -34.5t-1.5 -30.5t6.5 -30.5t25.5 -12.5q35 0 77.5 45.5t63.5 107.5l15 -6q-28 -75 -71.5 -118.5t-83.5 -43.5q-27 0 -45 17q-24 22 -24 63q0 99 67 208.5t134 109.5q23 0 35.5 -15.5t12.5 -36.5zM235 350 q0 10 -5.5 16.5t-14.5 6.5q-37 0 -85 -78t-72 -165q62 22 121 100q56 73 56 120z"/>
<glyph glyph-name="f" horiz-adv-x="149" unicode="f" d="M331 591q0 -17 -19 -17q-9 0 -15 3.5t-18 15.5q-12 10 -20.5 13.5t-15.5 3.5q-20 0 -35 -19q-23 -28 -38 -97l-26 -117h96l-5 -15h-96l-181 -642h-46l196 642h-91l4 15h91l36 130q16 57 41 88q30 36 74 36q31 0 49.5 -12.5t18.5 -27.5z"/>
<glyph glyph-name="g" horiz-adv-x="293" unicode="g" d="M307 347q0 -9 -5 -26t-7 -24l-94 -290q-53 -163 -134 -233q-57 -49 -119 -49q-48 0 -79 23q-37 27 -37 78q0 48 26 71.5t62 23.5q37 0 58 -21q18 -17 24 -45l-15 -7q-6 25 -21 40q-18 18 -46 18q-38 0 -55.5 -24t-17.5 -56q0 -42 28.5 -64t69.5 -22q67 0 116 64 q32 42 61 121l76 209l25 57h-5q-60 -99 -108.5 -150t-80.5 -51q-21 0 -32 19.5t-11 56.5q0 59 48.5 133.5t121.5 132.5q43 35 64.5 45.5t42.5 10.5q17 0 30.5 -10.5t13.5 -30.5zM277 359q0 14 -18 14q-16 0 -46 -24q-41 -33 -85 -94t-72 -110q-44 -77 -44 -115q0 -15 4 -20 t14 -5q12 0 28 10q24 16 62 58q22 26 49 66q40 61 70 125q12 26 21 48q17 41 17 47z"/>
<glyph glyph-name="h" horiz-adv-x="370" unicode="h" d="M363 163l-47 -78q-34 -57 -58 -79q-17 -16 -34 -16q-19 0 -28.5 16t-9.5 36q0 5 3.5 18.5t12.5 39.5l49 142q16 46 23 64q14 36 14 41q0 19 -16 19q-12 0 -43 -31q-17 -17 -44 -48q-39 -48 -61 -84q-28 -46 -48 -104l-8 -25l-26 -74h-42l187 515h-4l-149 -248l-13 6 l162 269q20 32 31 62l15 45l27 86h21l-156 -497l-1 -3l36 43q19 25 24 30q13 13 21 22q21 23 35 34q29 24 50 24q17 0 30 -10.5t13 -35.5q0 -20 -13.5 -52t-19.5 -48l-61 -174q-5 -12 -9 -23q-7 -19 -7 -29q0 -11 10 -11q4 0 11.5 4t16.5 15q22 26 44 61l51 84z"/>
<glyph glyph-name="i" horiz-adv-x="210" unicode="i" d="M231 518q0 -23 -10 -42.5t-24 -19.5q-10 0 -13 7.5t-3 12.5l1 21q4 18 13.5 29.5t19.5 11.5t13 -7.5t3 -12.5zM203 163l-47 -78q-36 -61 -62 -82q-16 -13 -31 -13q-19 0 -28.5 15t-9.5 32t9 43q6 19 14 34l87 196q9 21 12.5 32t3.5 18q0 13 -10 13q-13 0 -39 -33 q-14 -18 -32 -48l-52 -84l-11 6l48 79q27 44 49.5 69.5t41.5 25.5q16 0 26 -14.5t10 -33.5q0 -20 -8 -42q-3 -9 -13 -31l-88 -199q-16 -38 -16 -50q0 -13 11 -13q13 0 36 27q18 22 37 53l51 84z"/>
<glyph glyph-name="j" horiz-adv-x="170" unicode="j" d="M233 518q0 -29 -10.5 -45.5t-23.5 -16.5q-8 0 -12 6t-4 14l1 21q4 17 13 29t20 12q10 0 13 -7.5t3 -12.5zM184 336q0 -12 -2 -19.5t-14 -38.5l-154 -413q-52 -140 -109 -140q-23 0 -37.5 11.5t-14.5 24.5q0 18 20 18q10 0 14 -7q3 -11 5 -15q7 -17 21 -17q17 0 24 15 q18 52 44 125l154 430l16 44v7q-3 12 -9 12t-12.5 -4.5t-17 -16.5t-22.5 -29q-7 -10 -20 -31l-51 -84l-12 6l48 79q33 54 53.5 74.5t38.5 20.5q13 0 24 -11t13 -26v-15z"/>
<glyph glyph-name="k" horiz-adv-x="357" unicode="k" d="M385 358q0 -11 -6 -18t-16 -7t-16 5t-6 16q0 16 13 17l-6 2q-16 0 -47 -24q-18 -14 -37 -33q-35 -36 -56 -63l-30 -40q30 -19 42.5 -41.5t17.5 -70.5t8 -60q8 -36 43 -36q17 0 28 11t11 29q0 17 -7.5 22t-17.5 5h-7v11l9 1q17 0 27 -9t10 -29q0 -25 -14.5 -40.5 t-40.5 -15.5q-38 0 -59.5 29.5t-27 72t-9.5 83.5q-4 21 -20 28q-18 -24 -49 -77q-27 -45 -34 -61l-32 -65h-39l162 515l-152 -248l-13 6l162 269q11 18 25 51.5t21 55.5l27 86h20l-182 -633h6q25 48 62 101.5t76.5 97.5t69 65.5t50.5 21.5t29 -12q5 -7 5 -18z"/>
<glyph glyph-name="l" horiz-adv-x="206" unicode="l" d="M270 735l-211 -687l-5 -27q0 -16 10 -16q14 0 39 32q15 19 33 48l51 84l12 -6l-48 -78q-35 -58 -57 -78q-18 -17 -35 -17t-27.5 13.5t-10.5 33.5q0 13 2 23.5t10 32.5l147 422l-152 -248l-14 6l162 269q15 24 28 55q9 21 19 52l27 86h20z"/>
<glyph glyph-name="m" horiz-adv-x="574" unicode="m" d="M567 163l-48 -78q-33 -53 -52.5 -74t-39.5 -21q-18 0 -28.5 16t-10.5 36q0 7 2 16t14 42l79 221q8 22 8 27q0 18 -16 18q-18 0 -57 -43q-13 -15 -30 -36q-43 -56 -60 -84q-27 -44 -48 -102l-37 -101h-45l113 321l8 27q0 18 -16 18q-18 0 -57 -43q-13 -15 -30 -36 q-36 -45 -62.5 -90.5t-45.5 -95.5l-37 -101h-45l115 326l10 28v7q-3 12 -9 12t-14 -6q-24 -18 -58 -75l-51 -85l-12 7l48 79q30 50 52 72.5t40 22.5q15 0 26 -12t11 -35q0 -17 -5 -33q-7 -17 -11 -30l-15 -43l5 -2q27 39 46 62q8 10 32 35q30 33 50.5 45.5t34.5 12.5 q23 0 33 -17q7 -12 7 -29q0 -6 -1 -11.5t-7 -22.5l-27 -73l4 -2q27 39 46 62q8 10 32 35q28 31 49 44.5t37 13.5q17 0 28 -13t11 -33q0 -14 -8 -34l-86 -240q-5 -11 -10 -24.5t-6 -19.5v-8q1 -11 9 -11q4 0 11.5 4t17.5 15l43 61l51 84z"/>
<glyph glyph-name="n" horiz-adv-x="401" unicode="n" d="M394 163l-48 -78q-33 -53 -52.5 -74t-39.5 -21q-18 0 -28.5 16t-10.5 36q0 7 2 16t14 42l79 221q8 22 8 27q0 18 -16 18q-18 0 -57 -43q-13 -15 -30 -36q-43 -56 -60 -84q-27 -44 -48 -102l-37 -101h-45l116 326q7 19 8 24.5t2 10.5q0 12 -10 12q-9 0 -25 -16 q-21 -21 -47 -65l-51 -85l-11 7l47 79q35 58 59 80q17 15 33 15q17 0 27.5 -13.5t10.5 -33.5q0 -16 -6 -34t-10 -29l-15 -43l4 -2q27 39 46 62q8 10 32 35q28 31 49 44.5t37 13.5q17 0 28 -13t11 -33q0 -14 -8 -34l-86 -240q-5 -11 -10 -24.5t-6 -19.5v-8q1 -11 9 -11 q4 0 11.5 4t17.5 15l43 61l51 84z"/>
<glyph glyph-name="o" horiz-adv-x="285" unicode="o" d="M274 277q0 -29 -7 -59q-10 -44 -37 -96t-62 -87q-44 -45 -86 -45q-31 0 -49 24q-22 29 -22 85q0 81 54 178q62 111 138 111q43 0 60 -40q11 -26 11 -71zM238 327q0 19 -5 29q-8 17 -29 17q-25 0 -52 -33q-19 -24 -39 -63q-33 -63 -49.5 -121.5t-16.5 -98.5 q0 -25 9.5 -38.5t27.5 -13.5q24 0 45 25q29 35 66 128q16 39 29.5 86.5t13.5 82.5z"/>
<glyph glyph-name="p" horiz-adv-x="325" unicode="p" d="M325 327q0 -51 -30 -115t-73.5 -116t-76.5 -75q-44 -31 -92 -31l-80 -270h-43l85 269q-14 0 -23.5 2.5t-25.5 9.5l3 18q12 -6 21.5 -8.5t16.5 -3.5h14l159 508l-152 -248l-14 6l162 269q15 24 28 55q9 21 19 52l27 86h20l-144 -493h5q24 39 33 53q15 23 39 51 q17 20 34 31t34 11q26 0 40 -15.5t14 -45.5zM289 339q0 15 -5 24.5t-17 9.5q-14 0 -34 -17t-44 -52q-35 -51 -58 -93q-29 -54 -45 -107l-29 -98q45 7 89 49q36 34 65 85q25 43 51.5 107.5t26.5 91.5z"/>
<glyph glyph-name="q" horiz-adv-x="286" unicode="q" d="M300 347q0 -15 -5.5 -30.5t-6.5 -19.5l-179 -577h-42l156 471h-4q-37 -61 -73 -107q-73 -94 -116 -94q-20 0 -32 20.5t-12 55.5q0 54 51.5 133t118.5 133q28 22 51 36q33 20 57 20q16 0 26 -12t10 -29zM277 359q0 14 -17 14q-16 0 -44 -22q-40 -31 -88 -95 q-39 -51 -71 -110q-44 -80 -44 -116q0 -15 4 -20t14 -5q16 0 45 24q23 19 44 44q44 53 79 112q22 37 41 79t28 65q6 15 9 30z"/>
<glyph glyph-name="r" horiz-adv-x="324" unicode="r" d="M401 357q0 -17 -7 -25t-22 -8q-16 0 -23.5 8.5t-7.5 19.5q0 8 5 16l-1 3q-21 -4 -45 -24q-39 -32 -91 -102q-47 -63 -76 -115.5t-62 -129.5h-45l109 310l16 44v7q-3 12 -9 12q-5 0 -14 -7t-15 -13q-11 -13 -23 -30q-7 -10 -20 -31l-51 -84l-12 6l48 79q33 54 53.5 74.5 t38.5 20.5q13 0 24 -11t13 -26v-15q0 -11 -2 -18q-6 -17 -14 -40l-47 -134l6 -3q38 64 52 85q21 32 60.5 79t71.5 67q26 16 52 16q18 0 28 -8t10 -23z"/>
<glyph glyph-name="s" horiz-adv-x="298" unicode="s" d="M298 306q0 -34 -16.5 -55.5t-46.5 -21.5q-24 0 -39.5 11.5t-23.5 27.5l12 7q6 -14 18 -23.5t31 -9.5q24 0 37 16t13 41q0 35 -27 54.5t-60 19.5q-36 0 -62.5 -18t-26.5 -49q0 -28 36 -59q21 -18 43 -36q36 -31 52.5 -60t16.5 -65q0 -43 -46 -71q-42 -25 -96 -25 q-60 0 -93.5 26t-33.5 69q0 38 29.5 60t65.5 22q37 0 65 -25t28 -65q0 -7 -2 -15.5t-5 -18.5l-11 4q6 17 6 32q0 34 -26.5 53.5t-53.5 19.5q-32 0 -52 -19t-20 -49q0 -31 23 -53q28 -26 79 -26q48 0 80 24t32 58q0 30 -31 61q-31 29 -52 49q-36 34 -47 49q-19 26 -19 53 q0 37 33 63t88 26q39 0 67 -18q35 -23 35 -64z"/>
<glyph glyph-name="t" horiz-adv-x="192" unicode="t" d="M262 377l-5 -15h-97l-104 -294q-7 -19 -11.5 -34.5t-4.5 -17.5q0 -11 10 -11q8 0 28 19q7 7 18.5 23t25.5 38l51 84l12 -6l-48 -78q-33 -54 -53.5 -74.5t-38.5 -20.5q-13 0 -24 10.5t-14 25.5v16q2 10 4.5 21.5t11.5 36.5l92 262h-91l5 15h92l70 213h45l-70 -213h96z"/>
<glyph glyph-name="u" horiz-adv-x="401" unicode="u" d="M394 163l-48 -78q-31 -50 -39 -60q-28 -35 -53 -35q-15 0 -26 12.5t-11 34.5q0 18 5 34q8 20 11 29l15 42l-5 3q-10 -17 -33.5 -46t-44.5 -52q-27 -29 -44 -41q-22 -16 -41 -16q-20 0 -30 14t-10 31q0 7 3 17.5l5 17.5l93 256q7 19 8 24.5t2 10.5q0 12 -10 12 q-9 0 -25 -16q-21 -21 -47 -65l-51 -85l-11 7l47 79q31 52 56 76q20 19 36 19q15 0 27 -12t12 -35q0 -9 -3.5 -23t-12.5 -40l-79 -222l-7 -26v-8q3 -10 15 -10q17 0 56 42q10 11 31 36q40 51 61 86q27 45 47 101l37 100h45l-115 -325l-10 -28v-8q0 -11 9 -11q17 0 48 43 q10 14 24 37l51 85z"/>
<glyph glyph-name="v" horiz-adv-x="355" unicode="v" d="M355 293q0 -39 -17 -83q-25 -64 -83 -132q-44 -51 -84 -72q-29 -16 -58 -16q-35 0 -49.5 16.5t-14.5 43.5q0 14 10 44q2 7 20 57l56 159l16 44v7q-3 12 -9 12q-5 0 -14 -7t-15 -13q-11 -13 -23 -30q-7 -10 -20 -31l-51 -84l-12 6l48 79q33 54 53.5 74.5t38.5 20.5 q13 0 24 -11t13 -26v-15q0 -12 -2 -18q-6 -17 -14 -40l-50 -145q-8 -24 -11 -31q-14 -37 -14 -52v-11q2 -16 11 -21.5t20 -5.5q33 0 79 39q36 31 64 69.5t45 75.5q21 48 21 89q0 24 -6.5 32t-19.5 10t-23.5 11t-10.5 26q0 9 8.5 16.5t20.5 7.5q20 0 36.5 -24t16.5 -71z"/>
<glyph glyph-name="w" horiz-adv-x="533" unicode="w" d="M533 293q0 -58 -34 -122q-24 -45 -65 -93q-47 -53 -92 -75q-27 -13 -50 -13q-35 0 -49.5 16.5t-14.5 43.5q0 18 10 46q1 3 18 44l-3 1q-9 -13 -38.5 -47.5t-41.5 -46.5q-29 -29 -46 -41q-23 -16 -43 -16q-42 0 -42 45q0 19 10.5 46.5t21.5 54.5l61 174l16 44v7 q-3 12 -9 12q-10 0 -23 -13q-20 -20 -49 -68l-51 -84l-12 6l48 79q34 55 55 75t37 20q13 0 24 -11t13 -26v-15q0 -12 -2 -18q-6 -17 -14 -40l-49 -142q-5 -14 -27 -71q-9 -23 -9 -34q0 -19 16 -19q13 0 45 31q22 22 44 47q40 48 64 86q28 45 49 101l37 100h45l-86 -244 q-8 -22 -17 -52t-9 -42q0 -10 7.5 -18.5t23.5 -8.5q34 0 80 39q37 31 64.5 69.5t46.5 83t19 81.5q0 23 -6.5 31.5t-15.5 10t-13 3.5q-25 11 -25 34q0 13 8 18.5t21 5.5q20 0 36 -24t16 -71z"/>
<glyph glyph-name="x" horiz-adv-x="390" unicode="x" d="M397 362q0 -12 -7 -16.5t-14 -4.5q-12 0 -17 8t-5 11l1 5q-3 8 -5 8q-16 0 -41 -23q-35 -31 -61 -89q-20 -43 -36 -94q-20 -66 -20 -108q0 -27 10.5 -40.5t25.5 -13.5q41 0 92 75q18 26 45 76l15 -7q-51 -99 -99 -137q-28 -22 -56 -22q-32 0 -49 26q-12 18 -12 35v18.5 t1 23.5h-5q-30 -43 -64 -69q-44 -34 -89 -34q-35 0 -35 26q0 21 21 21t21 -20v-5q0 -4 5 -7q29 0 68 43q31 34 50 69q23 41 39 87q22 63 22 97v24q0 21 -8 34.5t-27 13.5q-29 0 -68 -42t-70 -109l-15 6q34 67 64 104q45 56 90 56q26 0 44 -22.5t18 -64.5l-1 -18h5 q31 57 72 84q31 21 60 21q15 0 25 -6.5t10 -19.5z"/>
<glyph glyph-name="y" horiz-adv-x="337" unicode="y" d="M372 377l-123 -370q-50 -152 -120 -222q-60 -60 -130 -60q-48 0 -79 23q-37 27 -37 78q0 48 26 71.5t62 23.5q37 0 58 -21q18 -17 24 -45l-15 -7q-4 18 -13 30q-19 28 -53 28q-40 0 -59 -26q-15 -20 -15 -54q0 -42 28.5 -64t68.5 -22q50 0 88 35q50 45 87 150l96 272h-5 q-67 -128 -112 -176q-29 -31 -53 -31q-23 0 -34.5 17t-11.5 38q0 22 6 43q9 24 11 31l68 191q7 16 11.5 29t4.5 22q0 6 -3 8.5t-7 3.5q-14 0 -40 -35q-11 -15 -31 -46l-51 -84l-12 6l48 79q29 48 46 67q25 28 46 28q13 0 24 -11t13 -26v-15v-14q-6 -17 -16 -44l-72 -200 q-13 -36 -13 -54q0 -10 5 -14.5t12 -4.5q26 0 88 94q41 62 73 125q23 46 41 92l24 61h46z"/>
<glyph glyph-name="z" horiz-adv-x="330" unicode="z" d="M379 377q-8 -36 -36.5 -69.5t-76.5 -64.5l-166 -100q-43 -31 -78 -76l4 -4q11 7 25 10.5t28 3.5q21 0 40 -13q10 -7 26 -24l16 -16q19 -16 44 -16q34 0 55 25.5t21 54.5q0 39 -36 50l6 14q20 -5 33 -22t13 -39q0 -40 -25 -68q-30 -33 -83 -33q-36 0 -57.5 6.5t-48.5 25.5 l-18 12q-21 14 -32 14q-12 0 -24.5 -14t-18.5 -34h-25q0 41 40 90q36 44 86 76t121 67q98 49 127 93l-3 3q-27 -23 -60 -27h-26q-49 6 -77 34t-54 28q-27 0 -44 -19t-17 -47q0 -19 10 -32t28 -16l-6 -16q-28 8 -38.5 28t-10.5 38q0 32 23 57q28 31 76 31q24 0 53.5 -7.5 t52.5 -20t26 -13.5q17 -7 34 -7q19 0 29 9q5 4 19 28h25z"/>
<glyph glyph-name="braceleft" horiz-adv-x="380" unicode="{" d="M420 711l-6 -28q-73 -14 -100 -64q-16 -30 -38 -141q-25 -130 -46 -171q-37 -71 -127 -88l-2 -5q46 -8 69 -36q19 -23 19 -53q0 -21 -5 -47q-16 -68 -27.5 -117t-19.5 -88.5t-8 -62.5q0 -34 38 -50q16 -7 33 -10l-7 -28q-58 11 -87 40q-32 32 -32 87q0 23 10 61.5 t21.5 81.5t18 72.5t6.5 43.5q0 45 -20 69t-50 24l6 31q74 0 108 72q16 34 35 139q23 127 53 175q46 74 158 93z"/>
<glyph glyph-name="bar" horiz-adv-x="428" unicode="|" d="M228 -280h-28v1053h28v-1053z"/>
<glyph glyph-name="braceright" horiz-adv-x="380" unicode="}" d="M280 232l-6 -31q-74 0 -108 -72q-16 -34 -35 -139q-23 -127 -53 -175q-46 -74 -158 -93l6 28q73 14 100 64q16 30 39.5 150.5t44.5 161.5q37 71 127 88l2 5q-46 8 -69 36q-19 23 -19 53q0 33 13 87q10 41 20.5 83.5t18.5 82t8 62.5q0 34 -38 50q-16 7 -33 10l7 28 q58 -11 88.5 -41.5t30.5 -85.5q0 -23 -10 -61.5t-21.5 -81.5t-18 -72.5t-6.5 -43.5q0 -45 20 -69t50 -24z"/>
<glyph glyph-name="asciitilde" horiz-adv-x="672" unicode="~" d="M616 402q-29 -56 -67.5 -86t-88.5 -30q-26 0 -59 10t-98 41q-26 12 -52 25q-22 9 -49 9q-40 0 -72 -24q-23 -18 -42 -49h-32q26 46 62 74q52 41 117 41q63 0 105.5 -41.5t146.5 -41.5q23 0 41 10q29 17 56 62h32z"/>
<glyph glyph-name="nonbreakingspace" horiz-adv-x="500" unicode=" "/>
<glyph glyph-name="currency" horiz-adv-x="760" unicode="¤" d="M620 350q0 -50 -16.5 -89t-44.5 -70l59 -59l-20 -19l-59 58q-38 -35 -86 -50q-35 -11 -73 -11q-50 0 -89 16.5t-70 44.5l-59 -58l-20 19l59 59q-35 38 -50 86q-11 35 -11 73q0 50 18 93q15 35 43 66l-59 59l20 20l59 -59q38 35 86 50q35 11 73 11q50 0 93 -18 q35 -15 66 -43l59 59l20 -20l-59 -59q35 -38 50 -86q11 -35 11 -73zM590 350q0 87 -61.5 148.5t-148.5 61.5t-148.5 -61.5t-61.5 -148.5t61.5 -148.5t148.5 -61.5t148.5 61.5t61.5 148.5z"/>
<glyph glyph-name="brokenbar" horiz-adv-x="162" unicode="¦" d="M141 322q0 -21 -10.5 -41t-23.5 -20q-10 0 -13 7.5t-3 12.5q0 17 2.5 27t12 22.5t19.5 12.5t13 -7.5t3 -13.5zM78 55q0 -23 -10.5 -42.5t-23.5 -19.5q-7 2 -10 5q-6 7 -6 16l1 20q4 17 13 29t20 12q10 0 13 -7.5t3 -12.5z"/>
<glyph glyph-name="section" horiz-adv-x="563" unicode="§" d="M563 586q0 -43 -5 -62q-12 -46 -50 -46q-24 0 -41 12t-27 32q-6 -39 -16.5 -67.5t-22.5 -49.5q15 -54 24 -99t13 -82q1 -8 1.5 -15.5t0.5 -17.5v-16q-2 -12 -2 -17q-5 -56 -33 -98q-33 -51 -87 -59q3 -22 5 -39t2 -26q0 -95 -26.5 -146t-77.5 -51q-63 0 -104.5 63 t-41.5 145q0 62 22.5 99t55.5 37q57 0 85 -86q19 -59 19 -126l-6 -48l-1 -13l-15 4q3 17 4 25t1 30q0 95 -25 147.5t-64 52.5q-27 0 -38 -23.5t-11 -63.5l1 -38q10 -110 54 -159q28 -31 62 -31q29 0 47 21q31 35 31 120q0 72 -19 128q-54 159 -66 259q-69 7 -112.5 49.5 t-43.5 97.5q0 42 23.5 73t58.5 31q24 0 40 -12q10 -8 14 -17l-9 -11q-7 17 -20 22t-26 5q-25 0 -44.5 -21.5t-19.5 -64.5q0 -74 52 -110q37 -26 85 -26l-1 23q0 69 33.5 117.5t87.5 57.5q-13 56 -13 70v47q0 61 32.5 101.5t82.5 40.5q63 0 101 -62q30 -50 30 -107zM541 549 q0 63 -29 123q-35 72 -86 72q-25 0 -44 -17q-24 -22 -30 -66q-1 -5 -1 -15q0 -13 2.5 -39t8 -54.5t34.5 -127.5q9 20 20 55.5t11 51.5q0 20 -4 46t-7 50h12q0 -62 24 -99t54 -37q35 0 35 57zM364 365l-31 116q-39 -5 -63 -30q-28 -29 -28 -75q0 -24 1.5 -40t6.5 -36 q35 4 67 24q26 16 47 41zM413 156q0 36 -17.5 98t-26.5 98q-32 -30 -53 -42q-28 -16 -64 -23q14 -72 35 -149.5t28 -119.5q45 7 71.5 44.5t26.5 93.5z"/>
<glyph glyph-name="copyright" horiz-adv-x="829" unicode="©" d="M801 344q0 -148 -105 -253t-254 -105q-148 0 -253 105t-105 253q0 149 105 254t253 105q147 0 253 -105t106 -254zM780 344q0 140 -99 239t-239 99q-139 0 -238 -99t-99 -239t98.5 -238.5t238.5 -98.5t239 99t99 238zM609 560q-16 -52 -21.5 -84t-5.5 -49h-19v12 q0 54 -23 87.5t-70 33.5q-32 0 -57 -14q-38 -21 -66 -75q-19 -36 -32 -81q-17 -59 -17 -115q0 -73 28 -106q21 -25 57 -25q51 0 98 51q39 42 65 107l19 -4q-25 -67 -60 -110q-52 -65 -118 -65q-70 0 -108 54q-34 48 -34 124q0 59 28 121q24 54 61 94q26 28 58 44 q39 20 78 20q37 0 67 -19q24 -16 38 -39h4q2 9 3.5 16.5t7.5 22.5z"/>
<glyph glyph-name="guillemotleft" horiz-adv-x="550" unicode="«" d="M522 377q11 3 14.5 2t3.5 -3q0 -19 -132 -109.5t-159 -90.5q-6 0 -4 4.5t7 11.5q52 67 119 114t151 71zM340 377q11 3 14.5 2t3.5 -3q0 -19 -132 -109.5t-159 -90.5q-6 0 -4 4.5t7 11.5q52 67 119 114t151 71zM466 0q5 -10 5 -13q-59 39 -117 78q-118 100 -118 121 q0 4 5 3t11 -3q140 -55 214 -186zM284 0q5 -10 5 -13q-59 39 -117 78q-118 100 -118 121q0 4 5 3t11 -3q140 -55 214 -186z"/>
<glyph glyph-name="logicalnot" horiz-adv-x="756" unicode="¬" d="M700 236h-30v160h-614v28h644v-188z"/>
<glyph glyph-name="minus" horiz-adv-x="312" unicode="­" d="M256 185h-200v41h200v-41z"/>
<glyph glyph-name="registered" horiz-adv-x="829" unicode="®" d="M801 344q0 -148 -105 -253t-254 -105q-148 0 -253 105t-105 253q0 149 105 254t253 105q147 0 253 -105t106 -254zM780 344q0 140 -99 239t-239 99q-139 0 -238 -99t-99 -239t98.5 -238.5t238.5 -98.5t239 99t99 238zM629 143q-6 -7 -17.5 -13.5t-27.5 -6.5q-47 0 -67 35 q-11 20 -19 70t-16 69q-13 30 -41 41l4 17l14 -1q55 0 86 33t31 89q0 55 -24 77q-16 14 -43 14q-51 0 -74 -102q-16 -79 -25 -122q-30 -139 -58.5 -179.5t-72.5 -40.5q-21 0 -34.5 11.5t-13.5 30.5q0 10 5 18h18q-4 -7 -4 -18v-7q1 -7 7 -12t18 -5q35 0 55 82q15 67 23 104 q27 116 48 165.5t54 66.5l-1 5q-31 -9 -49 -19.5t-41 -34t-44 -58.5q-24 -41 -45 -96l-26 6q31 79 60 122q21 31 49 53q36 28 70.5 38.5t82.5 10.5q60 0 91 -37q26 -31 26 -81q0 -59 -48 -94q-43 -31 -100 -31l-1 -5q40 -18 57 -48q14 -24 17 -58.5t6 -61.5q6 -29 24 -29 q8 0 18 5t18 13z"/>
<glyph glyph-name="degree" horiz-adv-x="220" unicode="°" d="M276 632q0 -42 -30.5 -72.5t-72.5 -30.5q-39 0 -69 26q-34 29 -34 77t32.5 75.5t70.5 27.5q41 0 72 -30t31 -73zM255 632q0 31 -20 55q-23 27 -62 27q-40 0 -61.5 -26t-21.5 -56q0 -34 24 -58t59 -24q34 0 58 23t24 59z"/>
<glyph glyph-name="plusminus" horiz-adv-x="756" unicode="±" d="M700 366h-308v-238h-28v238h-308v28h308v278h28v-278h308v-28zM700 50h-644v28h644v-28z"/>
<glyph glyph-name="mu" horiz-adv-x="384" unicode="µ" d="M377 163l-48 -78q-31 -50 -39 -60q-28 -35 -53 -35q-15 0 -26 12.5t-11 34.5q0 18 5 34q8 20 11 29l15 42l-5 3q-10 -17 -33.5 -46t-44.5 -52q-26 -27 -37 -36q-26 -21 -45 -21q-13 0 -23 10q-14 14 -14 37q0 22 15 63l9 25l-5 3q-35 -56 -54 -90q-36 -65 -36 -115 q0 -26 7 -50t7 -34q0 -13 -3 -21t-14 -8q-20 0 -27.5 14.5t-7.5 43.5q0 46 20 98q17 46 51 96q56 86 59 91q26 46 55 124l37 100h45l-115 -325l-6 -22v-8q3 -10 15 -10q17 0 56 42q10 11 31 36q40 51 61 86q27 45 47 101l37 100h45l-115 -325q-10 -27 -10 -36q0 -11 9 -11 q17 0 48 43q10 14 24 37l51 85z"/>
<glyph glyph-name="paragraph" horiz-adv-x="628" unicode="¶" d="M668 688q-16 -13 -38 -21.5t-63 -8.5h-36l-38 4q-30 -24 -47 -67.5t-32 -125.5q-18 -98 -35 -196q-30 -160 -86 -227q-50 -60 -134 -60q-75 0 -108 50q-23 35 -23 85q0 32 12 50.5t28 18.5q12 0 22.5 -17.5t10.5 -43.5q0 -18 -8 -37t-27 -31q9 -26 31 -41t64 -15 q62 0 98 52q29 43 47 132q8 41 25 172q-103 10 -151 61q-39 42 -39 108q0 60 31 102q50 67 167 67q20 0 58 -2t65.5 -5.5t58.5 -7.5t64 -4q22 0 39 4.5t35 15.5z"/>
<glyph glyph-name="guillemotright" horiz-adv-x="550" unicode="»" d="M480 192q4 -8 4 -13q-59 37 -117 75q-118 99 -118 122q0 2 4.5 3t12.5 -2q145 -51 214 -185zM298 192q4 -8 4 -13q-59 37 -117 75q-118 99 -118 122q0 2 4.5 3t12.5 -2q145 -51 214 -185zM480 186q11 3 14.5 2t3.5 -3q0 -20 -131 -111t-160 -91q-5 0 -4 4t7 13 q53 70 119 116t151 70zM298 186q11 3 14.5 2t3.5 -3q0 -20 -131 -111t-160 -91q-5 0 -4 4t7 13q53 70 119 116t151 70z"/>
</font>
</defs>
</svg>
